<?xml version="1.0" encoding="UTF-8" standalone="no"?>
<!DOCTYPE svg PUBLIC "-//W3C//DTD SVG 1.0//EN" "http://www.w3.org/TR/2001/PR-SVG-20010719/DTD/svg10.dtd">
<svg width="57cm" height="53cm" viewBox="99 111 1121 1059" xmlns="http://www.w3.org/2000/svg" xmlns:xlink="http://www.w3.org/1999/xlink">
  <g>
    <rect style="fill: #ffffff" x="1160" y="180" width="58.8" height="36"/>
    <rect style="fill: none; fill-opacity:0; stroke-width: 2; stroke: #000000" x="1160" y="180" width="58.8" height="36"/>
    <text font-size="12.8" style="fill: #000000;text-anchor:middle;font-family:monospace;font-style:normal;font-weight:normal" x="1189.4" y="202">Diff</text>
  </g>
  <g>
    <rect style="fill: #ffffff" x="113.7" y="183.581" width="89.6" height="36"/>
    <rect style="fill: none; fill-opacity:0; stroke-width: 2; stroke: #000000" x="113.7" y="183.581" width="89.6" height="36"/>
    <text font-size="12.8" style="fill: #000000;text-anchor:middle;font-family:monospace;font-style:normal;font-weight:normal" x="158.5" y="205.581">Document</text>
  </g>
  <g>
    <rect style="fill: #ffffff" x="125.25" y="480" width="66.5" height="36"/>
    <rect style="fill: none; fill-opacity:0; stroke-width: 2; stroke: #000000" x="125.25" y="480" width="66.5" height="36"/>
    <text font-size="12.8" style="fill: #000000;text-anchor:middle;font-family:monospace;font-style:normal;font-weight:normal" x="158.5" y="502">Model</text>
  </g>
  <g>
    <rect style="fill: #ffffff" x="720" y="1034.79" width="105" height="36"/>
    <rect style="fill: none; fill-opacity:0; stroke-width: 2; stroke: #000000" x="720" y="1034.79" width="105" height="36"/>
    <text font-size="12.8" style="fill: #000000;text-anchor:middle;font-family:monospace;font-style:normal;font-weight:normal" x="772.5" y="1056.79">DiffUpdate</text>
  </g>
  <g>
    <polygon style="fill: #ffffff" points="980,1052.79 1034.65,1020 1089.3,1052.79 1034.65,1085.58 "/>
    <polygon style="fill: none; fill-opacity:0; stroke-width: 2; stroke: #000000" points="980,1052.79 1034.65,1020 1089.3,1052.79 1034.65,1085.58 "/>
    <text font-size="12.8" style="fill: #000000;text-anchor:end;font-family:monospace;font-style:normal;font-weight:normal" x="974" y="1046.79">1</text>
    <text font-size="12.8" style="fill: #000000;text-anchor:start;font-family:monospace;font-style:normal;font-weight:normal" x="1095.3" y="1046.79">n</text>
    <text font-size="12.8" style="fill: #000000;text-anchor:middle;font-family:monospace;font-style:normal;font-weight:normal" x="1034.65" y="1056.79">has_entry</text>
  </g>
  <g>
    <polygon style="fill: #ffffff" points="572.832,142.48 623.632,112 674.432,142.48 623.632,172.96 "/>
    <polygon style="fill: none; fill-opacity:0; stroke-width: 2; stroke: #000000" points="572.832,142.48 623.632,112 674.432,142.48 623.632,172.96 "/>
    <text font-size="12.8" style="fill: #000000;text-anchor:end;font-family:monospace;font-style:normal;font-weight:normal" x="566.832" y="136.48">n</text>
    <text font-size="12.8" style="fill: #000000;text-anchor:start;font-family:monospace;font-style:normal;font-weight:normal" x="680.432" y="136.48">1</text>
    <text font-size="12.8" style="fill: #000000;text-anchor:middle;font-family:monospace;font-style:normal;font-weight:normal" x="623.632" y="146.48">has_diff</text>
  </g>
  <g>
    <rect style="fill: #ffffff" x="102.15" y="866.34" width="112.7" height="36"/>
    <rect style="fill: none; fill-opacity:0; stroke-width: 2; stroke: #000000" x="102.15" y="866.34" width="112.7" height="36"/>
    <text font-size="12.8" style="fill: #000000;text-anchor:middle;font-family:monospace;font-style:normal;font-weight:normal" x="158.5" y="888.34">ModelEntity</text>
  </g>
  <g>
    <polygon style="fill: #ffffff" points="460,992.79 514.65,960 569.3,992.79 514.65,1025.58 "/>
    <polygon style="fill: none; fill-opacity:0; stroke-width: 2; stroke: #000000" points="460,992.79 514.65,960 569.3,992.79 514.65,1025.58 "/>
    <text font-size="12.8" style="fill: #000000;text-anchor:end;font-family:monospace;font-style:normal;font-weight:normal" x="454" y="986.79">0..1</text>
    <text font-size="12.8" style="fill: #000000;text-anchor:start;font-family:monospace;font-style:normal;font-weight:normal" x="575.3" y="986.79">n</text>
    <text font-size="12.8" style="fill: #000000;text-anchor:middle;font-family:monospace;font-style:normal;font-weight:normal" x="514.65" y="996.79">is_source</text>
  </g>
  <g>
    <polygon style="fill: #ffffff" points="440.75,1124.34 514.65,1080 588.55,1124.34 514.65,1168.68 "/>
    <polygon style="fill: none; fill-opacity:0; stroke-width: 2; stroke: #000000" points="440.75,1124.34 514.65,1080 588.55,1124.34 514.65,1168.68 "/>
    <text font-size="12.8" style="fill: #000000;text-anchor:end;font-family:monospace;font-style:normal;font-weight:normal" x="434.75" y="1118.34">0..1</text>
    <text font-size="12.8" style="fill: #000000;text-anchor:start;font-family:monospace;font-style:normal;font-weight:normal" x="594.55" y="1118.34">n</text>
    <text font-size="12.8" style="fill: #000000;text-anchor:middle;font-family:monospace;font-style:normal;font-weight:normal" x="514.65" y="1128.34">is_destination</text>
  </g>
  <g>
    <polygon style="fill: #ffffff" points="572.832,270.48 623.632,240 674.432,270.48 623.632,300.96 "/>
    <polygon style="fill: none; fill-opacity:0; stroke-width: 2; stroke: #000000" points="572.832,270.48 623.632,240 674.432,270.48 623.632,300.96 "/>
    <text font-size="12.8" style="fill: #000000;text-anchor:end;font-family:monospace;font-style:normal;font-weight:normal" x="566.832" y="264.48">n</text>
    <text font-size="12.8" style="fill: #000000;text-anchor:start;font-family:monospace;font-style:normal;font-weight:normal" x="680.432" y="264.48">1</text>
    <text font-size="12.8" style="fill: #000000;text-anchor:middle;font-family:monospace;font-style:normal;font-weight:normal" x="623.632" y="274.48">has_diff</text>
  </g>
  <polyline style="fill: none; fill-opacity:0; stroke-width: 2; stroke: #000000" points="674.432,142.48 840,142.48 840,198 1160,198 "/>
  <polyline style="fill: none; fill-opacity:0; stroke-width: 2; stroke: #000000" points="674.432,270.48 840,270.48 840,198 1160,198 "/>
  <polyline style="fill: none; fill-opacity:0; stroke-width: 2; stroke: #000000" points="571.884,142.48 387.592,142.48 387.592,201.581 203.3,201.581 "/>
  <polyline style="fill: none; fill-opacity:0; stroke-width: 2; stroke: #000000" points="572.832,270.48 388.066,270.48 388.066,201.581 203.3,201.581 "/>
  <polyline style="fill: none; fill-opacity:0; stroke-width: 2; stroke: #000000" points="980,1052.79 980,1052.79 980,1052.79 825,1052.79 "/>
  <polyline style="fill: none; fill-opacity:0; stroke-width: 2; stroke: #000000" points="720,1052.79 660,1052.79 660,992.79 570.301,992.79 "/>
  <polyline style="fill: none; fill-opacity:0; stroke-width: 2; stroke: #000000" points="720,1052.79 660,1052.79 660,1124.34 589.543,1124.34 "/>
  <polyline style="fill: none; fill-opacity:0; stroke-width: 2; stroke: #000000" points="214.85,884.34 380,884.34 380,992.79 460,992.79 "/>
  <polyline style="fill: none; fill-opacity:0; stroke-width: 2; stroke: #000000" points="214.85,884.34 380,884.34 380,1124.34 440.75,1124.34 "/>
  <g>
    <polygon style="fill: #ffffff" points="103.85,352.79 158.5,320 213.15,352.79 158.5,385.58 "/>
    <polygon style="fill: none; fill-opacity:0; stroke-width: 2; stroke: #000000" points="103.85,352.79 158.5,320 213.15,352.79 158.5,385.58 "/>
    <text font-size="12.8" style="fill: #000000;text-anchor:start;font-family:monospace;font-style:normal;font-weight:normal" x="162.5" y="314">1</text>
    <text font-size="12.8" style="fill: #000000;text-anchor:start;font-family:monospace;font-style:normal;font-weight:normal" x="162.5" y="407.58">1</text>
    <text font-size="12.8" style="fill: #000000;text-anchor:middle;font-family:monospace;font-style:normal;font-weight:normal" x="158.5" y="356.79">has_model</text>
  </g>
  <g>
    <polygon style="fill: #ffffff" points="100,675.1 158.5,640 217,675.1 158.5,710.2 "/>
    <polygon style="fill: none; fill-opacity:0; stroke-width: 2; stroke: #000000" points="100,675.1 158.5,640 217,675.1 158.5,710.2 "/>
    <text font-size="12.8" style="fill: #000000;text-anchor:start;font-family:monospace;font-style:normal;font-weight:normal" x="162.5" y="634">1</text>
    <text font-size="12.8" style="fill: #000000;text-anchor:start;font-family:monospace;font-style:normal;font-weight:normal" x="162.5" y="732.2">n</text>
    <text font-size="12.8" style="fill: #000000;text-anchor:middle;font-family:monospace;font-style:normal;font-weight:normal" x="158.5" y="679.1">has_entity</text>
  </g>
  <polyline style="fill: none; fill-opacity:0; stroke-width: 2; stroke: #000000" points="158.5,220.59 158.5,221.59 158.5,317.997 158.5,318.997 "/>
  <polyline style="fill: none; fill-opacity:0; stroke-width: 2; stroke: #000000" points="158.5,385.58 158.5,386.58 158.5,477.991 158.5,478.991 "/>
  <text font-size="12.8016" style="fill: #000000;text-anchor:end;font-family:monospace;font-style:normal;font-weight:normal" x="560" y="160">
    <tspan x="560" y="160">source</tspan>
  </text>
  <text font-size="12.8" style="fill: #000000;text-anchor:end;font-family:monospace;font-style:normal;font-weight:normal" x="580" y="300">
    <tspan x="580" y="300">destination</tspan>
  </text>
  <g>
    <rect style="fill: #ffffff" x="860" y="300" width="120.4" height="36"/>
    <rect style="fill: none; fill-opacity:0; stroke-width: 2; stroke: #000000" x="860" y="300" width="120.4" height="36"/>
    <text font-size="12.8" style="fill: #000000;text-anchor:middle;font-family:monospace;font-style:normal;font-weight:normal" x="920.2" y="322">OntologyTerm</text>
  </g>
  <g>
    <polygon style="fill: #ffffff" points="800,981.24 835.4,960 870.8,981.24 835.4,1002.48 "/>
    <polygon style="fill: none; fill-opacity:0; stroke-width: 2; stroke: #000000" points="800,981.24 835.4,960 870.8,981.24 835.4,1002.48 "/>
    <text font-size="12.8" style="fill: #000000;text-anchor:end;font-family:monospace;font-style:normal;font-weight:normal" x="794" y="975.24">n</text>
    <text font-size="12.8" style="fill: #000000;text-anchor:start;font-family:monospace;font-style:normal;font-weight:normal" x="876.8" y="975.24">m</text>
    <text font-size="12.8" style="fill: #000000;text-anchor:middle;font-family:monospace;font-style:normal;font-weight:normal" x="835.4" y="985.24">is_a</text>
  </g>
  <polyline style="fill: none; fill-opacity:0; stroke-width: 2; stroke: #000000" points="800,981.24 800,980 772.5,980 772.5,1034.79 "/>
  <polyline style="fill: none; fill-opacity:0; stroke-width: 2; stroke: #000000" points="158.5,517.009 158.5,518.009 158.5,638 158.5,639 "/>
  <polyline style="fill: none; fill-opacity:0; stroke-width: 2; stroke: #000000" points="158.5,711.2 158.5,712.2 158.5,865.34 158.5,866.34 "/>
  <g>
    <rect style="fill: #ffffff" x="727.7" y="794.79" width="89.6" height="36"/>
    <rect style="fill: none; fill-opacity:0; stroke-width: 2; stroke: #000000" x="727.7" y="794.79" width="89.6" height="36"/>
    <text font-size="12.8" style="fill: #000000;text-anchor:middle;font-family:monospace;font-style:normal;font-weight:normal" x="772.5" y="816.79">DiffMove</text>
  </g>
  <g>
    <rect style="fill: #ffffff" x="720" y="466.34" width="105" height="36"/>
    <rect style="fill: none; fill-opacity:0; stroke-width: 2; stroke: #000000" x="720" y="466.34" width="105" height="36"/>
    <text font-size="12.8" style="fill: #000000;text-anchor:middle;font-family:monospace;font-style:normal;font-weight:normal" x="772.5" y="488.34">DiffInsert</text>
  </g>
  <g>
    <rect style="fill: #ffffff" x="720" y="614.79" width="105" height="36"/>
    <rect style="fill: none; fill-opacity:0; stroke-width: 2; stroke: #000000" x="720" y="614.79" width="105" height="36"/>
    <text font-size="12.8" style="fill: #000000;text-anchor:middle;font-family:monospace;font-style:normal;font-weight:normal" x="772.5" y="636.79">DiffDelete</text>
  </g>
  <g>
    <polygon style="fill: #ffffff" points="980,484.34 1034.65,451.55 1089.3,484.34 1034.65,517.13 "/>
    <polygon style="fill: none; fill-opacity:0; stroke-width: 2; stroke: #000000" points="980,484.34 1034.65,451.55 1089.3,484.34 1034.65,517.13 "/>
    <text font-size="12.8" style="fill: #000000;text-anchor:end;font-family:monospace;font-style:normal;font-weight:normal" x="974" y="478.34">1</text>
    <text font-size="12.8" style="fill: #000000;text-anchor:start;font-family:monospace;font-style:normal;font-weight:normal" x="1095.3" y="478.34">n</text>
    <text font-size="12.8" style="fill: #000000;text-anchor:middle;font-family:monospace;font-style:normal;font-weight:normal" x="1034.65" y="488.34">has_entry</text>
  </g>
  <g>
    <polygon style="fill: #ffffff" points="980,632.79 1034.65,600 1089.3,632.79 1034.65,665.58 "/>
    <polygon style="fill: none; fill-opacity:0; stroke-width: 2; stroke: #000000" points="980,632.79 1034.65,600 1089.3,632.79 1034.65,665.58 "/>
    <text font-size="12.8" style="fill: #000000;text-anchor:end;font-family:monospace;font-style:normal;font-weight:normal" x="974" y="626.79">1</text>
    <text font-size="12.8" style="fill: #000000;text-anchor:start;font-family:monospace;font-style:normal;font-weight:normal" x="1095.3" y="626.79">n</text>
    <text font-size="12.8" style="fill: #000000;text-anchor:middle;font-family:monospace;font-style:normal;font-weight:normal" x="1034.65" y="636.79">has_entry</text>
  </g>
  <g>
    <polygon style="fill: #ffffff" points="980,812.79 1034.65,780 1089.3,812.79 1034.65,845.58 "/>
    <polygon style="fill: none; fill-opacity:0; stroke-width: 2; stroke: #000000" points="980,812.79 1034.65,780 1089.3,812.79 1034.65,845.58 "/>
    <text font-size="12.8" style="fill: #000000;text-anchor:end;font-family:monospace;font-style:normal;font-weight:normal" x="974" y="806.79">1</text>
    <text font-size="12.8" style="fill: #000000;text-anchor:start;font-family:monospace;font-style:normal;font-weight:normal" x="1095.3" y="806.79">n</text>
    <text font-size="12.8" style="fill: #000000;text-anchor:middle;font-family:monospace;font-style:normal;font-weight:normal" x="1034.65" y="816.79">has_entry</text>
  </g>
  <polyline style="fill: none; fill-opacity:0; stroke-width: 2; stroke: #000000" points="826.007,484.34 827.007,484.34 979,484.34 980,484.34 "/>
  <polyline style="fill: none; fill-opacity:0; stroke-width: 2; stroke: #000000" points="825,632.79 826,632.79 979,632.79 980,632.79 "/>
  <polyline style="fill: none; fill-opacity:0; stroke-width: 2; stroke: #000000" points="817.3,812.79 818.3,812.79 979,812.79 980,812.79 "/>
  <g>
    <polygon style="fill: #ffffff" points="800,741.24 835.4,720 870.8,741.24 835.4,762.48 "/>
    <polygon style="fill: none; fill-opacity:0; stroke-width: 2; stroke: #000000" points="800,741.24 835.4,720 870.8,741.24 835.4,762.48 "/>
    <text font-size="12.8" style="fill: #000000;text-anchor:end;font-family:monospace;font-style:normal;font-weight:normal" x="794" y="735.24">n</text>
    <text font-size="12.8" style="fill: #000000;text-anchor:start;font-family:monospace;font-style:normal;font-weight:normal" x="876.8" y="735.24">m</text>
    <text font-size="12.8" style="fill: #000000;text-anchor:middle;font-family:monospace;font-style:normal;font-weight:normal" x="835.4" y="745.24">is_a</text>
  </g>
  <g>
    <polygon style="fill: #ffffff" points="800,561.24 835.4,540 870.8,561.24 835.4,582.48 "/>
    <polygon style="fill: none; fill-opacity:0; stroke-width: 2; stroke: #000000" points="800,561.24 835.4,540 870.8,561.24 835.4,582.48 "/>
    <text font-size="12.8" style="fill: #000000;text-anchor:end;font-family:monospace;font-style:normal;font-weight:normal" x="794" y="555.24">n</text>
    <text font-size="12.8" style="fill: #000000;text-anchor:start;font-family:monospace;font-style:normal;font-weight:normal" x="876.8" y="555.24">m</text>
    <text font-size="12.8" style="fill: #000000;text-anchor:middle;font-family:monospace;font-style:normal;font-weight:normal" x="835.4" y="565.24">is_a</text>
  </g>
  <g>
    <polygon style="fill: #ffffff" points="800,406.45 835.4,385.21 870.8,406.45 835.4,427.69 "/>
    <polygon style="fill: none; fill-opacity:0; stroke-width: 2; stroke: #000000" points="800,406.45 835.4,385.21 870.8,406.45 835.4,427.69 "/>
    <text font-size="12.8" style="fill: #000000;text-anchor:end;font-family:monospace;font-style:normal;font-weight:normal" x="794" y="400.45">n</text>
    <text font-size="12.8" style="fill: #000000;text-anchor:start;font-family:monospace;font-style:normal;font-weight:normal" x="876.8" y="400.45">m</text>
    <text font-size="12.8" style="fill: #000000;text-anchor:middle;font-family:monospace;font-style:normal;font-weight:normal" x="835.4" y="410.45">is_a</text>
  </g>
  <polyline style="fill: none; fill-opacity:0; stroke-width: 2; stroke: #000000" points="772.5,466.34 780,466.34 780,406.45 800,406.45 "/>
  <polyline style="fill: none; fill-opacity:0; stroke-width: 2; stroke: #000000" points="772.5,614.79 780,614.79 780,561.24 800,561.24 "/>
  <polyline style="fill: none; fill-opacity:0; stroke-width: 2; stroke: #000000" points="772.5,794.79 780,794.79 780,741.24 800,741.24 "/>
  <polyline style="fill: none; fill-opacity:0; stroke-width: 2; stroke: #000000" points="870.8,406.45 870.8,405.436 920.2,405.436 920.2,336 "/>
  <polyline style="fill: none; fill-opacity:0; stroke-width: 2; stroke: #000000" points="870.8,561.24 870.8,560.288 920.2,560.288 920.2,336 "/>
  <polyline style="fill: none; fill-opacity:0; stroke-width: 2; stroke: #000000" points="870.8,741.24 870.8,740.768 920.2,740.768 920.2,337.004 "/>
  <polyline style="fill: none; fill-opacity:0; stroke-width: 2; stroke: #000000" points="870.8,981.24 870.8,980.678 920.2,980.678 920.2,336 "/>
  <g>
    <polygon style="fill: #ffffff" points="460,752.79 514.65,720 569.3,752.79 514.65,785.58 "/>
    <polygon style="fill: none; fill-opacity:0; stroke-width: 2; stroke: #000000" points="460,752.79 514.65,720 569.3,752.79 514.65,785.58 "/>
    <text font-size="12.8" style="fill: #000000;text-anchor:end;font-family:monospace;font-style:normal;font-weight:normal" x="454" y="746.79">0..1</text>
    <text font-size="12.8" style="fill: #000000;text-anchor:start;font-family:monospace;font-style:normal;font-weight:normal" x="575.3" y="746.79">n</text>
    <text font-size="12.8" style="fill: #000000;text-anchor:middle;font-family:monospace;font-style:normal;font-weight:normal" x="514.65" y="756.79">is_source</text>
  </g>
  <g>
    <polygon style="fill: #ffffff" points="440.75,884.34 514.65,840 588.55,884.34 514.65,928.68 "/>
    <polygon style="fill: none; fill-opacity:0; stroke-width: 2; stroke: #000000" points="440.75,884.34 514.65,840 588.55,884.34 514.65,928.68 "/>
    <text font-size="12.8" style="fill: #000000;text-anchor:end;font-family:monospace;font-style:normal;font-weight:normal" x="434.75" y="878.34">0..1</text>
    <text font-size="12.8" style="fill: #000000;text-anchor:start;font-family:monospace;font-style:normal;font-weight:normal" x="594.55" y="878.34">n</text>
    <text font-size="12.8" style="fill: #000000;text-anchor:middle;font-family:monospace;font-style:normal;font-weight:normal" x="514.65" y="888.34">is_destination</text>
  </g>
  <polyline style="fill: none; fill-opacity:0; stroke-width: 2; stroke: #000000" points="569.3,752.79 660,752.79 660,812.79 727.7,812.79 "/>
  <polyline style="fill: none; fill-opacity:0; stroke-width: 2; stroke: #000000" points="588.55,884.34 660,884.34 660,812.79 727.7,812.79 "/>
  <polyline style="fill: none; fill-opacity:0; stroke-width: 2; stroke: #000000" points="460,752.79 380,752.79 380,884.34 214.85,884.34 "/>
  <polyline style="fill: none; fill-opacity:0; stroke-width: 2; stroke: #000000" points="440.75,884.34 380,884.34 380,884.34 214.85,884.34 "/>
  <g>
    <polygon style="fill: #ffffff" points="460,632.79 514.65,600 569.3,632.79 514.65,665.58 "/>
    <polygon style="fill: none; fill-opacity:0; stroke-width: 2; stroke: #000000" points="460,632.79 514.65,600 569.3,632.79 514.65,665.58 "/>
    <text font-size="12.8" style="fill: #000000;text-anchor:end;font-family:monospace;font-style:normal;font-weight:normal" x="454" y="626.79">0..1</text>
    <text font-size="12.8" style="fill: #000000;text-anchor:start;font-family:monospace;font-style:normal;font-weight:normal" x="575.3" y="626.79">n</text>
    <text font-size="12.8" style="fill: #000000;text-anchor:middle;font-family:monospace;font-style:normal;font-weight:normal" x="514.65" y="636.79">is_source</text>
  </g>
  <g>
    <polygon style="fill: #ffffff" points="440.75,484.34 514.65,440 588.55,484.34 514.65,528.68 "/>
    <polygon style="fill: none; fill-opacity:0; stroke-width: 2; stroke: #000000" points="440.75,484.34 514.65,440 588.55,484.34 514.65,528.68 "/>
    <text font-size="12.8" style="fill: #000000;text-anchor:end;font-family:monospace;font-style:normal;font-weight:normal" x="434.75" y="478.34">0..1</text>
    <text font-size="12.8" style="fill: #000000;text-anchor:start;font-family:monospace;font-style:normal;font-weight:normal" x="594.55" y="478.34">n</text>
    <text font-size="12.8" style="fill: #000000;text-anchor:middle;font-family:monospace;font-style:normal;font-weight:normal" x="514.65" y="488.34">is_destination</text>
  </g>
  <polyline style="fill: none; fill-opacity:0; stroke-width: 2; stroke: #000000" points="588.55,484.34 589.55,484.34 717.993,484.34 718.993,484.34 "/>
  <polyline style="fill: none; fill-opacity:0; stroke-width: 2; stroke: #000000" points="569.3,632.79 570.3,632.79 719,632.79 720,632.79 "/>
  <polyline style="fill: none; fill-opacity:0; stroke-width: 2; stroke: #000000" points="440.75,484.34 380,484.34 380,884.34 214.85,884.34 "/>
  <polyline style="fill: none; fill-opacity:0; stroke-width: 2; stroke: #000000" points="460,632.79 380,632.79 380,884.34 214.85,884.34 "/>
  <polyline style="fill: none; fill-opacity:0; stroke-width: 2; stroke: #000000" points="1189.4,216 1189.4,482.862 1089.3,482.862 1089.3,484.34 "/>
  <polyline style="fill: none; fill-opacity:0; stroke-width: 2; stroke: #000000" points="1189.4,216 1189.4,632.808 1089.3,632.808 1089.3,632.79 "/>
  <polyline style="fill: none; fill-opacity:0; stroke-width: 2; stroke: #000000" points="1189.4,216 1189.4,813.832 1089.3,813.832 1089.3,812.79 "/>
  <polyline style="fill: none; fill-opacity:0; stroke-width: 2; stroke: #000000" points="1189.4,216 1189.4,1053.74 1089.3,1053.74 1089.3,1052.79 "/>
</svg>
