<svg xmlns="http://www.w3.org/2000/svg" width="1218.4324951171875" height="1366.345458984375" viewBox="-474.6019287109375 -594.4407958984375 1218.4324951171875 1366.345458984375"><title>Neo4j Graph Visualization</title><desc>Created using Neo4j (http://www.neo4j.com/)</desc><g class="layer relationships"><g class="relationship" transform="translate(218.36915826660308 727.1217800532977) rotate(292.1435263876464)"><path class="outline" fill="#A5ABB6" stroke="none" d="M 25 0.5 L 48.99468556137867 0.5 L 48.99468556137867 -0.5 L 25 -0.5 Z M 66.99468556137867 0.5 L 90.98937112275733 0.5 L 90.98937112275733 3.5 L 97.98937112275733 0 L 90.98937112275733 -3.5 L 90.98937112275733 -0.5 L 66.99468556137867 -0.5 Z"/><text text-anchor="middle" pointer-events="none" font-size="8px" fill="#000000" x="57.99468556137867" y="3" font-family="sans-serif">isA</text></g><g class="relationship" transform="translate(264.72729823843315 613.203790835073) rotate(287.105758569734)"><path class="outline" fill="#A5ABB6" stroke="none" d="M 25 0.5 L 58.98878363393075 0.5 L 58.98878363393075 -0.5 L 25 -0.5 Z M 76.98878363393075 0.5 L 110.9775672678615 0.5 L 110.9775672678615 3.5 L 117.9775672678615 0 L 110.9775672678615 -3.5 L 110.9775672678615 -0.5 L 76.98878363393075 -0.5 Z"/><text text-anchor="middle" pointer-events="none" font-size="8px" fill="#000000" x="67.98878363393075" y="3" font-family="sans-serif">isA</text></g><g class="relationship" transform="translate(306.7822032511476 476.5510568477597) rotate(261.26461363579267)"><path class="outline" fill="#A5ABB6" stroke="none" d="M 25 0.5 L 85.020486676312 0.5 L 85.020486676312 -0.5 L 25 -0.5 Z M 103.020486676312 0.5 L 163.040973352624 0.5 L 163.040973352624 3.5 L 170.040973352624 0 L 163.040973352624 -3.5 L 163.040973352624 -0.5 L 103.020486676312 -0.5 Z"/><text text-anchor="middle" pointer-events="none" font-size="8px" fill="#000000" x="94.020486676312" y="3" transform="rotate(180 94.020486676312 0)" font-family="sans-serif">isA</text></g><g class="relationship" transform="translate(389.00469277647915 586.7564034876834) rotate(233.27395486136248)"><path class="outline" fill="#A5ABB6" stroke="none" d="M 25 0.5 L 56.24910219735419 0.5 L 56.24910219735419 -0.5 L 25 -0.5 Z M 74.24910219735419 0.5 L 105.49820439470838 0.5 L 105.49820439470838 3.5 L 112.49820439470838 0 L 105.49820439470838 -3.5 L 105.49820439470838 -0.5 L 74.24910219735419 -0.5 Z"/><text text-anchor="middle" pointer-events="none" font-size="8px" fill="#000000" x="65.24910219735419" y="3" transform="rotate(180 65.24910219735419 0)" font-family="sans-serif">isA</text></g><g class="relationship" transform="translate(-94.45109944221224 -141.43814003941912) rotate(415.83412512549154)"><path class="outline" fill="#A5ABB6" stroke="none" d="M 25 0.5 L 99.23573150915759 0.5 L 99.23573150915759 -0.5 L 25 -0.5 Z M 117.23573150915759 0.5 L 191.47146301831518 0.5 L 191.47146301831518 3.5 L 198.47146301831518 0 L 191.47146301831518 -3.5 L 191.47146301831518 -0.5 L 117.23573150915759 -0.5 Z"/><text text-anchor="middle" pointer-events="none" font-size="8px" fill="#000000" x="108.23573150915759" y="3" font-family="sans-serif">isA</text></g><g class="relationship" transform="translate(-243.24690818895795 -169.74404812011716) rotate(370.7708643186708)"><path class="outline" fill="#A5ABB6" stroke="none" d="M 25 0.5 L 63.232121871883166 0.5 L 63.232121871883166 -0.5 L 25 -0.5 Z M 81.23212187188317 0.5 L 119.46424374376633 0.5 L 119.46424374376633 3.5 L 126.46424374376633 0 L 119.46424374376633 -3.5 L 119.46424374376633 -0.5 L 81.23212187188317 -0.5 Z"/><text text-anchor="middle" pointer-events="none" font-size="8px" fill="#000000" x="72.23212187188317" y="3" font-family="sans-serif">isA</text></g><g class="relationship" transform="translate(-184.36764920612268 -217.6643748303769) rotate(400.2894184394632)"><path class="outline" fill="#A5ABB6" stroke="none" d="M 25 0.5 L 46.43942821204665 0.5 L 46.43942821204665 -0.5 L 25 -0.5 Z M 64.43942821204665 0.5 L 85.8788564240933 0.5 L 85.8788564240933 3.5 L 92.8788564240933 0 L 85.8788564240933 -3.5 L 85.8788564240933 -0.5 L 64.43942821204665 -0.5 Z"/><text text-anchor="middle" pointer-events="none" font-size="8px" fill="#000000" x="55.43942821204665" y="3" font-family="sans-serif">isA</text></g><g class="relationship" transform="translate(-163.85858935207014 -295.8144050608699) rotate(425.79134076371975)"><path class="outline" fill="#A5ABB6" stroke="none" d="M 25 0.5 L 72.13071377691469 0.5 L 72.13071377691469 -0.5 L 25 -0.5 Z M 90.13071377691469 0.5 L 137.26142755382938 0.5 L 137.26142755382938 3.5 L 144.26142755382938 0 L 137.26142755382938 -3.5 L 137.26142755382938 -0.5 L 90.13071377691469 -0.5 Z"/><text text-anchor="middle" pointer-events="none" font-size="8px" fill="#000000" x="81.13071377691469" y="3" font-family="sans-serif">isA</text></g><g class="relationship" transform="translate(-49.6848541101295 -316.0574969344693) rotate(464.37894733346735)"><path class="outline" fill="#A5ABB6" stroke="none" d="M 25 0.5 L 77.63314668252343 0.5 L 77.63314668252343 -0.5 L 25 -0.5 Z M 95.63314668252343 0.5 L 148.26629336504686 0.5 L 148.26629336504686 3.5 L 155.26629336504686 0 L 148.26629336504686 -3.5 L 148.26629336504686 -0.5 L 95.63314668252343 -0.5 Z"/><text text-anchor="middle" pointer-events="none" font-size="8px" fill="#000000" x="86.63314668252343" y="3" transform="rotate(180 86.63314668252343 0)" font-family="sans-serif">isA</text></g><g class="relationship" transform="translate(31.048389752522134 43.46554568752077) rotate(371.2651163370233)"><path class="outline" fill="#A5ABB6" stroke="none" d="M 25 0.5 L 107.11848803221257 0.5 L 107.11848803221257 -0.5 L 25 -0.5 Z M 125.11848803221257 0.5 L 207.23697606442514 0.5 L 207.23697606442514 3.5 L 214.23697606442514 0 L 207.23697606442514 -3.5 L 207.23697606442514 -0.5 L 125.11848803221257 -0.5 Z"/><text text-anchor="middle" pointer-events="none" font-size="8px" fill="#000000" x="116.11848803221257" y="3" font-family="sans-serif">isA</text></g><g class="relationship" transform="translate(-156.17052337364692 171.96925938950397) rotate(325.5349925851391)"><path class="outline" fill="#A5ABB6" stroke="none" d="M 25 0.5 L 101.03867828557951 0.5 L 101.03867828557951 -0.5 L 25 -0.5 Z M 119.03867828557951 0.5 L 195.07735657115902 0.5 L 195.07735657115902 3.5 L 202.07735657115902 0 L 195.07735657115902 -3.5 L 195.07735657115902 -0.5 L 119.03867828557951 -0.5 Z"/><text text-anchor="middle" pointer-events="none" font-size="8px" fill="#000000" x="110.03867828557951" y="3" font-family="sans-serif">isA</text></g><g class="relationship" transform="translate(41.434828858557616 -79.58171280795426) rotate(454.8249084819623)"><path class="outline" fill="#A5ABB6" stroke="none" d="M 25 0.5 L 49.24242046712219 0.5 L 49.24242046712219 -0.5 L 25 -0.5 Z M 67.24242046712219 0.5 L 91.48484093424437 0.5 L 91.48484093424437 3.5 L 98.48484093424437 0 L 91.48484093424437 -3.5 L 91.48484093424437 -0.5 L 67.24242046712219 -0.5 Z"/><text text-anchor="middle" pointer-events="none" font-size="8px" fill="#000000" x="58.24242046712219" y="3" transform="rotate(180 58.24242046712219 0)" font-family="sans-serif">isA</text></g><g class="relationship" transform="translate(24.2101104725636 184.89246155390697) rotate(272.7682116325904)"><path class="outline" fill="#A5ABB6" stroke="none" d="M 25 0.5 L 58.29607085670183 0.5 L 58.29607085670183 -0.5 L 25 -0.5 Z M 76.29607085670183 0.5 L 109.59214171340366 0.5 L 109.59214171340366 3.5 L 116.59214171340366 0 L 109.59214171340366 -3.5 L 109.59214171340366 -0.5 L 76.29607085670183 -0.5 Z"/><text text-anchor="middle" pointer-events="none" font-size="8px" fill="#000000" x="67.29607085670183" y="3" font-family="sans-serif">isA</text></g><g class="relationship" transform="translate(-80.73407049386796 35.483156544031786) rotate(364.0845599805339)"><path class="outline" fill="#A5ABB6" stroke="none" d="M 25 0.5 L 43.533554579318526 0.5 L 43.533554579318526 -0.5 L 25 -0.5 Z M 61.533554579318526 0.5 L 80.06710915863705 0.5 L 80.06710915863705 3.5 L 87.06710915863705 0 L 80.06710915863705 -3.5 L 80.06710915863705 -0.5 L 61.533554579318526 -0.5 Z"/><text text-anchor="middle" pointer-events="none" font-size="8px" fill="#000000" x="52.533554579318526" y="3" font-family="sans-serif">isA</text></g><g class="relationship" transform="translate(72.66689550863248 448.9614435838383) rotate(264.615680977636)"><path class="outline" fill="#A5ABB6" stroke="none" d="M 25 0.5 L 54.472752011672114 0.5 L 54.472752011672114 -0.5 L 25 -0.5 Z M 72.47275201167211 0.5 L 101.94550402334423 0.5 L 101.94550402334423 3.5 L 108.94550402334423 0 L 101.94550402334423 -3.5 L 101.94550402334423 -0.5 L 72.47275201167211 -0.5 Z"/><text text-anchor="middle" pointer-events="none" font-size="8px" fill="#000000" x="63.472752011672114" y="3" transform="rotate(180 63.472752011672114 0)" font-family="sans-serif">isA</text></g><g class="relationship" transform="translate(60.09800666053521 315.60694954186044) rotate(254.64762667161295)"><path class="outline" fill="#A5ABB6" stroke="none" d="M 25 0.5 L 55.27576717151835 0.5 L 55.27576717151835 -0.5 L 25 -0.5 Z M 73.27576717151835 0.5 L 103.5515343430367 0.5 L 103.5515343430367 3.5 L 110.5515343430367 0 L 103.5515343430367 -3.5 L 103.5515343430367 -0.5 L 73.27576717151835 -0.5 Z"/><text text-anchor="middle" pointer-events="none" font-size="8px" fill="#000000" x="64.27576717151835" y="3" transform="rotate(180 64.27576717151835 0)" font-family="sans-serif">isA</text></g><g class="relationship" transform="translate(-46.29570547192524 429.7998283989647) rotate(274.36790711605346)"><path class="outline" fill="#A5ABB6" stroke="none" d="M 25 0.5 L 52.175075123459635 0.5 L 52.175075123459635 -0.5 L 25 -0.5 Z M 70.17507512345964 0.5 L 97.35015024691927 0.5 L 97.35015024691927 3.5 L 104.35015024691927 0 L 97.35015024691927 -3.5 L 97.35015024691927 -0.5 L 70.17507512345964 -0.5 Z"/><text text-anchor="middle" pointer-events="none" font-size="8px" fill="#000000" x="61.175075123459635" y="3" font-family="sans-serif">isA</text></g><g class="relationship" transform="translate(-36.44432812037341 300.82536684483404) rotate(297.61792129373634)"><path class="outline" fill="#A5ABB6" stroke="none" d="M 25 0.5 L 52.92056146621533 0.5 L 52.92056146621533 -0.5 L 25 -0.5 Z M 70.92056146621533 0.5 L 98.84112293243066 0.5 L 98.84112293243066 3.5 L 105.84112293243066 0 L 98.84112293243066 -3.5 L 98.84112293243066 -0.5 L 70.92056146621533 -0.5 Z"/><text text-anchor="middle" pointer-events="none" font-size="8px" fill="#000000" x="61.92056146621533" y="3" font-family="sans-serif">isA</text></g><g class="relationship" transform="translate(-369.2918254013622 -226.26981761087436) rotate(384.1541998965931)"><path class="outline" fill="#A5ABB6" stroke="none" d="M 25 0.5 L 56.56968179238278 0.5 L 56.56968179238278 -0.5 L 25 -0.5 Z M 74.56968179238278 0.5 L 106.13936358476556 0.5 L 106.13936358476556 3.5 L 113.13936358476556 0 L 106.13936358476556 -3.5 L 106.13936358476556 -0.5 L 74.56968179238278 -0.5 Z"/><text text-anchor="middle" pointer-events="none" font-size="8px" fill="#000000" x="65.56968179238278" y="3" font-family="sans-serif">isA</text></g><g class="relationship" transform="translate(-151.84938856225878 742.9047510271089) rotate(237.0801652976021)"><path class="outline" fill="#A5ABB6" stroke="none" d="M 25 0.5 L 46.97613821119982 0.5 L 46.97613821119982 -0.5 L 25 -0.5 Z M 64.97613821119981 0.5 L 86.95227642239963 0.5 L 86.95227642239963 3.5 L 93.95227642239963 0 L 86.95227642239963 -3.5 L 86.95227642239963 -0.5 L 64.97613821119981 -0.5 Z"/><text text-anchor="middle" pointer-events="none" font-size="8px" fill="#000000" x="55.97613821119982" y="3" transform="rotate(180 55.97613821119982 0)" font-family="sans-serif">isA</text></g><g class="relationship" transform="translate(-216.49579671394068 643.0524301769798) rotate(252.83611828660923)"><path class="outline" fill="#A5ABB6" stroke="none" d="M 25 0.5 L 55.70363468264411 0.5 L 55.70363468264411 -0.5 L 25 -0.5 Z M 73.70363468264411 0.5 L 104.40726936528822 0.5 L 104.40726936528822 3.5 L 111.40726936528822 0 L 104.40726936528822 -3.5 L 104.40726936528822 -0.5 L 73.70363468264411 -0.5 Z"/><text text-anchor="middle" pointer-events="none" font-size="8px" fill="#000000" x="64.70363468264411" y="3" transform="rotate(180 64.70363468264411 0)" font-family="sans-serif">isA</text></g><g class="relationship" transform="translate(-344.4078873512823 600.2996148764296) rotate(315.0255079164099)"><path class="outline" fill="#A5ABB6" stroke="none" d="M 25 0.5 L 49.45564643152451 0.5 L 49.45564643152451 -0.5 L 25 -0.5 Z M 67.45564643152451 0.5 L 91.91129286304901 0.5 L 91.91129286304901 3.5 L 98.91129286304901 0 L 91.91129286304901 -3.5 L 91.91129286304901 -0.5 L 67.45564643152451 -0.5 Z"/><text text-anchor="middle" pointer-events="none" font-size="8px" fill="#000000" x="58.45564643152451" y="3" font-family="sans-serif">isA</text></g><g class="relationship" transform="translate(-256.750373075211 512.7201156204242) rotate(278.6057244891594)"><path class="outline" fill="#A5ABB6" stroke="none" d="M 25 0.5 L 69.10117294721523 0.5 L 69.10117294721523 -0.5 L 25 -0.5 Z M 87.10117294721523 0.5 L 131.20234589443047 0.5 L 131.20234589443047 3.5 L 138.20234589443047 0 L 131.20234589443047 -3.5 L 131.20234589443047 -0.5 L 87.10117294721523 -0.5 Z"/><text text-anchor="middle" pointer-events="none" font-size="8px" fill="#000000" x="78.10117294721523" y="3" font-family="sans-serif">isA</text></g><g class="relationship" transform="translate(513.8876872492555 275.12290631999235) rotate(230.62275981431702)"><path class="outline" fill="#A5ABB6" stroke="none" d="M 25 0.5 L 54.97563635092742 0.5 L 54.97563635092742 -0.5 L 25 -0.5 Z M 72.97563635092742 0.5 L 102.95127270185483 0.5 L 102.95127270185483 3.5 L 109.95127270185483 0 L 102.95127270185483 -3.5 L 102.95127270185483 -0.5 L 72.97563635092742 -0.5 Z"/><text text-anchor="middle" pointer-events="none" font-size="8px" fill="#000000" x="63.97563635092742" y="3" transform="rotate(180 63.97563635092742 0)" font-family="sans-serif">isA</text></g><g class="relationship" transform="translate(585.6365486113368 238.41858709210825) rotate(203.2505182762805)"><path class="outline" fill="#A5ABB6" stroke="none" d="M 25 0.5 L 73.13737383777197 0.5 L 73.13737383777197 -0.5 L 25 -0.5 Z M 91.13737383777197 0.5 L 139.27474767554395 0.5 L 139.27474767554395 3.5 L 146.27474767554395 0 L 139.27474767554395 -3.5 L 139.27474767554395 -0.5 L 91.13737383777197 -0.5 Z"/><text text-anchor="middle" pointer-events="none" font-size="8px" fill="#000000" x="82.13737383777197" y="3" transform="rotate(180 82.13737383777197 0)" font-family="sans-serif">isA</text></g><g class="relationship" transform="translate(546.5027718845179 117.30444361601359) rotate(515.6518876555817)"><path class="outline" fill="#A5ABB6" stroke="none" d="M 25 0.5 L 52.38688007474454 0.5 L 52.38688007474454 -0.5 L 25 -0.5 Z M 70.38688007474454 0.5 L 97.77376014948908 0.5 L 97.77376014948908 3.5 L 104.77376014948908 0 L 97.77376014948908 -3.5 L 97.77376014948908 -0.5 L 70.38688007474454 -0.5 Z"/><text text-anchor="middle" pointer-events="none" font-size="8px" fill="#000000" x="61.38688007474454" y="3" transform="rotate(180 61.38688007474454 0)" font-family="sans-serif">isA</text></g><g class="relationship" transform="translate(555.4005154404499 180.82211367868294) rotate(184.50417824137907)"><path class="outline" fill="#A5ABB6" stroke="none" d="M 25 0.5 L 51.26146426670065 0.5 L 51.26146426670065 -0.5 L 25 -0.5 Z M 69.26146426670064 0.5 L 95.5229285334013 0.5 L 95.5229285334013 3.5 L 102.5229285334013 0 L 95.5229285334013 -3.5 L 95.5229285334013 -0.5 L 69.26146426670064 -0.5 Z"/><text text-anchor="middle" pointer-events="none" font-size="8px" fill="#000000" x="60.26146426670065" y="3" transform="rotate(180 60.26146426670065 0)" font-family="sans-serif">isA</text></g><g class="relationship" transform="translate(428.27142750476577 170.80750922438395) rotate(206.37009664339865)"><path class="outline" fill="#A5ABB6" stroke="none" d="M 25 0.5 L 78.23966097844117 0.5 L 78.23966097844117 -0.5 L 25 -0.5 Z M 96.23966097844117 0.5 L 149.47932195688233 0.5 L 149.47932195688233 3.5 L 156.47932195688233 0 L 149.47932195688233 -3.5 L 149.47932195688233 -0.5 L 96.23966097844117 -0.5 Z"/><text text-anchor="middle" pointer-events="none" font-size="8px" fill="#000000" x="87.23966097844117" y="3" transform="rotate(180 87.23966097844117 0)" font-family="sans-serif">isA</text></g><g class="relationship" transform="translate(447.82383399788023 296.30430210608324) rotate(261.1445084610275)"><path class="outline" fill="#A5ABB6" stroke="none" d="M 25 0.5 L 51.00539666686626 0.5 L 51.00539666686626 -0.5 L 25 -0.5 Z M 69.00539666686626 0.5 L 95.01079333373252 0.5 L 95.01079333373252 3.5 L 102.01079333373252 0 L 95.01079333373252 -3.5 L 95.01079333373252 -0.5 L 69.00539666686626 -0.5 Z"/><text text-anchor="middle" pointer-events="none" font-size="8px" fill="#000000" x="60.00539666686626" y="3" transform="rotate(180 60.00539666686626 0)" font-family="sans-serif">isA</text></g><g class="relationship" transform="translate(346.79545827526863 385.9321215362829) rotate(235.7207443480193)"><path class="outline" fill="#A5ABB6" stroke="none" d="M 25 0.5 L 49.31734025518341 0.5 L 49.31734025518341 -0.5 L 25 -0.5 Z M 67.31734025518341 0.5 L 91.63468051036682 0.5 L 91.63468051036682 3.5 L 98.63468051036682 0 L 91.63468051036682 -3.5 L 91.63468051036682 -0.5 L 67.31734025518341 -0.5 Z"/><text text-anchor="middle" pointer-events="none" font-size="8px" fill="#000000" x="58.31734025518341" y="3" transform="rotate(180 58.31734025518341 0)" font-family="sans-serif">isA</text></g><g class="relationship" transform="translate(277.16107831302094 283.77250450404364) rotate(266.6045434852489)"><path class="outline" fill="#A5ABB6" stroke="none" d="M 25 0.5 L 84.45632247712159 0.5 L 84.45632247712159 -0.5 L 25 -0.5 Z M 102.45632247712159 0.5 L 161.91264495424318 0.5 L 161.91264495424318 3.5 L 168.91264495424318 0 L 161.91264495424318 -3.5 L 161.91264495424318 -0.5 L 102.45632247712159 -0.5 Z"/><text text-anchor="middle" pointer-events="none" font-size="8px" fill="#000000" x="93.45632247712159" y="3" transform="rotate(180 93.45632247712159 0)" font-family="sans-serif">isA</text></g><g class="relationship" transform="translate(231.10508517724276 393.1681036115582) rotate(292.8312910547825)"><path class="outline" fill="#A5ABB6" stroke="none" d="M 25 0.5 L 46.847602326915634 0.5 L 46.847602326915634 -0.5 L 25 -0.5 Z M 64.84760232691563 0.5 L 86.69520465383127 0.5 L 86.69520465383127 3.5 L 93.69520465383127 0 L 86.69520465383127 -3.5 L 86.69520465383127 -0.5 L 64.84760232691563 -0.5 Z"/><text text-anchor="middle" pointer-events="none" font-size="8px" fill="#000000" x="55.847602326915634" y="3" font-family="sans-serif">isA</text></g><g class="relationship" transform="translate(284.35113626810903 -49.21665289608185) rotate(457.6293829204799)"><path class="outline" fill="#A5ABB6" stroke="none" d="M 25 0.5 L 57.83106008910022 0.5 L 57.83106008910022 -0.5 L 25 -0.5 Z M 75.83106008910022 0.5 L 108.66212017820044 0.5 L 108.66212017820044 3.5 L 115.66212017820044 0 L 108.66212017820044 -3.5 L 108.66212017820044 -0.5 L 75.83106008910022 -0.5 Z"/><text text-anchor="middle" pointer-events="none" font-size="8px" fill="#000000" x="66.83106008910022" y="3" transform="rotate(180 66.83106008910022 0)" font-family="sans-serif">isA</text></g><g class="relationship" transform="translate(339.17475201691616 150.79515309427723) rotate(219.50340292099662)"><path class="outline" fill="#A5ABB6" stroke="none" d="M 25 0.5 L 35.1281988521284 0.5 L 35.1281988521284 -0.5 L 25 -0.5 Z M 53.1281988521284 0.5 L 63.2563977042568 0.5 L 63.2563977042568 3.5 L 70.2563977042568 0 L 63.2563977042568 -3.5 L 63.2563977042568 -0.5 L 53.1281988521284 -0.5 Z"/><text text-anchor="middle" pointer-events="none" font-size="8px" fill="#000000" x="44.1281988521284" y="3" transform="rotate(180 44.1281988521284 0)" font-family="sans-serif">isA</text></g><g class="relationship" transform="translate(424.8802507999819 -13.143325186561546) rotate(507.0113277696289)"><path class="outline" fill="#A5ABB6" stroke="none" d="M 25 0.5 L 82.40236660133822 0.5 L 82.40236660133822 -0.5 L 25 -0.5 Z M 100.40236660133822 0.5 L 157.80473320267643 0.5 L 157.80473320267643 3.5 L 164.80473320267643 0 L 157.80473320267643 -3.5 L 157.80473320267643 -0.5 L 100.40236660133822 -0.5 Z"/><text text-anchor="middle" pointer-events="none" font-size="8px" fill="#000000" x="91.40236660133822" y="3" transform="rotate(180 91.40236660133822 0)" font-family="sans-serif">isA</text></g><g class="relationship" transform="translate(518.9014391162069 -104.45461242466818) rotate(495.8377097993487)"><path class="outline" fill="#A5ABB6" stroke="none" d="M 25 0.5 L 53.031929296860824 0.5 L 53.031929296860824 -0.5 L 25 -0.5 Z M 71.03192929686082 0.5 L 99.06385859372165 0.5 L 99.06385859372165 3.5 L 106.06385859372165 0 L 99.06385859372165 -3.5 L 99.06385859372165 -0.5 L 71.03192929686082 -0.5 Z"/><text text-anchor="middle" pointer-events="none" font-size="8px" fill="#000000" x="62.031929296860824" y="3" transform="rotate(180 62.031929296860824 0)" font-family="sans-serif">isA</text></g><g class="relationship" transform="translate(567.8480296730525 -62.638335581902425) rotate(520.9043021167739)"><path class="outline" fill="#A5ABB6" stroke="none" d="M 25 0.5 L 63.146450428843806 0.5 L 63.146450428843806 -0.5 L 25 -0.5 Z M 81.1464504288438 0.5 L 119.29290085768761 0.5 L 119.29290085768761 3.5 L 126.29290085768761 0 L 119.29290085768761 -3.5 L 119.29290085768761 -0.5 L 81.1464504288438 -0.5 Z"/><text text-anchor="middle" pointer-events="none" font-size="8px" fill="#000000" x="72.1464504288438" y="3" transform="rotate(180 72.1464504288438 0)" font-family="sans-serif">isA</text></g><g class="relationship" transform="translate(513.4132194009329 -171.67087062309326) rotate(479.18207310964647)"><path class="outline" fill="#A5ABB6" stroke="none" d="M 25 0.5 L 78.28693351940657 0.5 L 78.28693351940657 -0.5 L 25 -0.5 Z M 96.28693351940657 0.5 L 149.57386703881315 0.5 L 149.57386703881315 3.5 L 156.57386703881315 0 L 149.57386703881315 -3.5 L 149.57386703881315 -0.5 L 96.28693351940657 -0.5 Z"/><text text-anchor="middle" pointer-events="none" font-size="8px" fill="#000000" x="87.28693351940657" y="3" transform="rotate(180 87.28693351940657 0)" font-family="sans-serif">isA</text></g><g class="relationship" transform="translate(560.5151432821506 0.8546313310420106) rotate(185.892248292141)"><path class="outline" fill="#A5ABB6" stroke="none" d="M 25 0.5 L 55.67764817980701 0.5 L 55.67764817980701 -0.5 L 25 -0.5 Z M 73.67764817980701 0.5 L 104.35529635961402 0.5 L 104.35529635961402 3.5 L 111.35529635961402 0 L 104.35529635961402 -3.5 L 104.35529635961402 -0.5 L 73.67764817980701 -0.5 Z"/><text text-anchor="middle" pointer-events="none" font-size="8px" fill="#000000" x="64.67764817980701" y="3" transform="rotate(180 64.67764817980701 0)" font-family="sans-serif">isA</text></g><g class="relationship" transform="translate(107.86801076235989 -190.61459558021193) rotate(480.89292217531664)"><path class="outline" fill="#A5ABB6" stroke="none" d="M 25 0.5 L 52.194800244265366 0.5 L 52.194800244265366 -0.5 L 25 -0.5 Z M 70.19480024426537 0.5 L 97.38960048853073 0.5 L 97.38960048853073 3.5 L 104.38960048853073 0 L 97.38960048853073 -3.5 L 97.38960048853073 -0.5 L 70.19480024426537 -0.5 Z"/><text text-anchor="middle" pointer-events="none" font-size="8px" fill="#000000" x="61.194800244265366" y="3" transform="rotate(180 61.194800244265366 0)" font-family="sans-serif">isA</text></g><g class="relationship" transform="translate(-14.181567216805345 -182.46765940036693) rotate(421.6059588172949)"><path class="outline" fill="#A5ABB6" stroke="none" d="M 25 0.5 L 45.97799055762014 0.5 L 45.97799055762014 -0.5 L 25 -0.5 Z M 63.97799055762014 0.5 L 84.95598111524028 0.5 L 84.95598111524028 3.5 L 91.95598111524028 0 L 84.95598111524028 -3.5 L 84.95598111524028 -0.5 L 63.97799055762014 -0.5 Z"/><text text-anchor="middle" pointer-events="none" font-size="8px" fill="#000000" x="54.97799055762014" y="3" font-family="sans-serif">isA</text></g><g class="relationship" transform="translate(51.824516857274745 -218.95457371114153) rotate(454.26328514401155)"><path class="outline" fill="#A5ABB6" stroke="none" d="M 25 0.5 L 57.37978959085716 0.5 L 57.37978959085716 -0.5 L 25 -0.5 Z M 75.37978959085716 0.5 L 107.75957918171432 0.5 L 107.75957918171432 3.5 L 114.75957918171432 0 L 107.75957918171432 -3.5 L 107.75957918171432 -0.5 L 75.37978959085716 -0.5 Z"/><text text-anchor="middle" pointer-events="none" font-size="8px" fill="#000000" x="66.37978959085716" y="3" transform="rotate(180 66.37978959085716 0)" font-family="sans-serif">isA</text></g><g class="relationship" transform="translate(257.8258250101403 -177.79498060111473) rotate(438.3435815503136)"><path class="outline" fill="#A5ABB6" stroke="none" d="M 25 0.5 L 53.14293277412837 0.5 L 53.14293277412837 -0.5 L 25 -0.5 Z M 71.14293277412837 0.5 L 99.28586554825674 0.5 L 99.28586554825674 3.5 L 106.28586554825674 0 L 99.28586554825674 -3.5 L 99.28586554825674 -0.5 L 71.14293277412837 -0.5 Z"/><text text-anchor="middle" pointer-events="none" font-size="8px" fill="#000000" x="62.14293277412837" y="3" font-family="sans-serif">isA</text></g><g class="relationship" transform="translate(384.5192798701827 -114.03506200872197) rotate(507.093254036544)"><path class="outline" fill="#A5ABB6" stroke="none" d="M 25 0.5 L 47.1554338526241 0.5 L 47.1554338526241 -0.5 L 25 -0.5 Z M 65.1554338526241 0.5 L 87.3108677052482 0.5 L 87.3108677052482 3.5 L 94.3108677052482 0 L 87.3108677052482 -3.5 L 87.3108677052482 -0.5 L 65.1554338526241 -0.5 Z"/><text text-anchor="middle" pointer-events="none" font-size="8px" fill="#000000" x="56.1554338526241" y="3" transform="rotate(180 56.1554338526241 0)" font-family="sans-serif">isA</text></g><g class="relationship" transform="translate(309.8776703685698 -207.63181158730194) rotate(459.15378155185317)"><path class="outline" fill="#A5ABB6" stroke="none" d="M 25 0.5 L 67.72930643839948 0.5 L 67.72930643839948 -0.5 L 25 -0.5 Z M 85.72930643839948 0.5 L 128.45861287679895 0.5 L 128.45861287679895 3.5 L 135.45861287679895 0 L 128.45861287679895 -3.5 L 128.45861287679895 -0.5 L 85.72930643839948 -0.5 Z"/><text text-anchor="middle" pointer-events="none" font-size="8px" fill="#000000" x="76.72930643839948" y="3" transform="rotate(180 76.72930643839948 0)" font-family="sans-serif">isA</text></g><g class="relationship" transform="translate(356.65478979357437 -170.06373757343704) rotate(480.8923773306148)"><path class="outline" fill="#A5ABB6" stroke="none" d="M 25 0.5 L 57.91277616339663 0.5 L 57.91277616339663 -0.5 L 25 -0.5 Z M 75.91277616339663 0.5 L 108.82555232679326 0.5 L 108.82555232679326 3.5 L 115.82555232679326 0 L 108.82555232679326 -3.5 L 108.82555232679326 -0.5 L 75.91277616339663 -0.5 Z"/><text text-anchor="middle" pointer-events="none" font-size="8px" fill="#000000" x="66.91277616339663" y="3" transform="rotate(180 66.91277616339663 0)" font-family="sans-serif">isA</text></g><g class="relationship" transform="translate(204.79345953286816 -122.62721683538798) rotate(402.6987758199925)"><path class="outline" fill="#A5ABB6" stroke="none" d="M 25 0.5 L 41.626090809784245 0.5 L 41.626090809784245 -0.5 L 25 -0.5 Z M 59.626090809784245 0.5 L 76.25218161956849 0.5 L 76.25218161956849 3.5 L 83.25218161956849 0 L 76.25218161956849 -3.5 L 76.25218161956849 -0.5 L 59.626090809784245 -0.5 Z"/><text text-anchor="middle" pointer-events="none" font-size="8px" fill="#000000" x="50.626090809784245" y="3" font-family="sans-serif">isA</text></g><g class="relationship" transform="translate(-319.8365456589489 20.135708162346198) rotate(444.26289069631855)"><path class="outline" fill="#A5ABB6" stroke="none" d="M 25 0.5 L 46.237077392568345 0.5 L 46.237077392568345 -0.5 L 25 -0.5 Z M 64.23707739256835 0.5 L 85.47415478513669 0.5 L 85.47415478513669 3.5 L 92.47415478513669 0 L 85.47415478513669 -3.5 L 85.47415478513669 -0.5 L 64.23707739256835 -0.5 Z"/><text text-anchor="middle" pointer-events="none" font-size="8px" fill="#000000" x="55.237077392568345" y="3" font-family="sans-serif">isA</text></g><g class="relationship" transform="translate(-436.0744450595548 77.92937915533561) rotate(384.78394416824426)"><path class="outline" fill="#A5ABB6" stroke="none" d="M 25 0.5 L 57.98233119432885 0.5 L 57.98233119432885 -0.5 L 25 -0.5 Z M 75.98233119432885 0.5 L 108.9646623886577 0.5 L 108.9646623886577 3.5 L 115.9646623886577 0 L 108.9646623886577 -3.5 L 108.9646623886577 -0.5 L 75.98233119432885 -0.5 Z"/><text text-anchor="middle" pointer-events="none" font-size="8px" fill="#000000" x="66.98233119432885" y="3" font-family="sans-serif">isA</text></g><g class="relationship" transform="translate(-392.47748883701865 32.047574635759176) rotate(411.205636071869)"><path class="outline" fill="#A5ABB6" stroke="none" d="M 25 0.5 L 54.842775384697674 0.5 L 54.842775384697674 -0.5 L 25 -0.5 Z M 72.84277538469767 0.5 L 102.68555076939535 0.5 L 102.68555076939535 3.5 L 109.68555076939535 0 L 102.68555076939535 -3.5 L 102.68555076939535 -0.5 L 72.84277538469767 -0.5 Z"/><text text-anchor="middle" pointer-events="none" font-size="8px" fill="#000000" x="63.842775384697674" y="3" font-family="sans-serif">isA</text></g><g class="relationship" transform="translate(-445.60191859203957 137.75315501520643) rotate(359.6951183034877)"><path class="outline" fill="#A5ABB6" stroke="none" d="M 25 0.5 L 56.255265172774514 0.5 L 56.255265172774514 -0.5 L 25 -0.5 Z M 74.25526517277451 0.5 L 105.51053034554903 0.5 L 105.51053034554903 3.5 L 112.51053034554903 0 L 105.51053034554903 -3.5 L 105.51053034554903 -0.5 L 74.25526517277451 -0.5 Z"/><text text-anchor="middle" pointer-events="none" font-size="8px" fill="#000000" x="65.25526517277451" y="3" font-family="sans-serif">isA</text></g><g class="relationship" transform="translate(-430.3416622474062 198.25726212555412) rotate(333.39309769193517)"><path class="outline" fill="#A5ABB6" stroke="none" d="M 25 0.5 L 55.86387852870804 0.5 L 55.86387852870804 -0.5 L 25 -0.5 Z M 73.86387852870804 0.5 L 104.72775705741608 0.5 L 104.72775705741608 3.5 L 111.72775705741608 0 L 104.72775705741608 -3.5 L 104.72775705741608 -0.5 L 73.86387852870804 -0.5 Z"/><text text-anchor="middle" pointer-events="none" font-size="8px" fill="#000000" x="64.86387852870804" y="3" font-family="sans-serif">isA</text></g><g class="relationship" transform="translate(-308.0933350511482 137.0214388872858) rotate(372.9547609783483)"><path class="outline" fill="#A5ABB6" stroke="none" d="M 25 0.5 L 65.4453187591352 0.5 L 65.4453187591352 -0.5 L 25 -0.5 Z M 83.4453187591352 0.5 L 123.89063751827041 0.5 L 123.89063751827041 3.5 L 130.8906375182704 0 L 123.89063751827041 -3.5 L 123.89063751827041 -0.5 L 83.4453187591352 -0.5 Z"/><text text-anchor="middle" pointer-events="none" font-size="8px" fill="#000000" x="74.4453187591352" y="3" font-family="sans-serif">isA</text></g><g class="relationship" transform="translate(-369.1742072446111 235.4059927008458) rotate(301.8335829644236)"><path class="outline" fill="#A5ABB6" stroke="none" d="M 25 0.5 L 45.40162643874401 0.5 L 45.40162643874401 -0.5 L 25 -0.5 Z M 63.40162643874401 0.5 L 83.80325287748802 0.5 L 83.80325287748802 3.5 L 90.80325287748802 0 L 83.80325287748802 -3.5 L 83.80325287748802 -0.5 L 63.40162643874401 -0.5 Z"/><text text-anchor="middle" pointer-events="none" font-size="8px" fill="#000000" x="54.40162643874401" y="3" font-family="sans-serif">isA</text></g><g class="relationship" transform="translate(-179.4065601657584 -428.9256321233707) rotate(443.3377921403444)"><path class="outline" fill="#A5ABB6" stroke="none" d="M 25 0.5 L 54.50809310543755 0.5 L 54.50809310543755 -0.5 L 25 -0.5 Z M 72.50809310543755 0.5 L 102.0161862108751 0.5 L 102.0161862108751 3.5 L 109.0161862108751 0 L 102.0161862108751 -3.5 L 102.0161862108751 -0.5 L 72.50809310543755 -0.5 Z"/><text text-anchor="middle" pointer-events="none" font-size="8px" fill="#000000" x="63.50809310543755" y="3" font-family="sans-serif">isA</text></g><g class="relationship" transform="translate(-265.02429476559627 -383.6519238705629) rotate(400.9662763671102)"><path class="outline" fill="#A5ABB6" stroke="none" d="M 25 0.5 L 54.48867378605789 0.5 L 54.48867378605789 -0.5 L 25 -0.5 Z M 72.48867378605789 0.5 L 101.97734757211578 0.5 L 101.97734757211578 3.5 L 108.97734757211578 0 L 101.97734757211578 -3.5 L 101.97734757211578 -0.5 L 72.48867378605789 -0.5 Z"/><text text-anchor="middle" pointer-events="none" font-size="8px" fill="#000000" x="63.48867378605789" y="3" font-family="sans-serif">isA</text></g><g class="relationship" transform="translate(68.90461856569482 -565.4407894870009) rotate(482.9515683660184)"><path class="outline" fill="#A5ABB6" stroke="none" d="M 25 0.5 L 48.441595079974626 0.5 L 48.441595079974626 -0.5 L 25 -0.5 Z M 66.44159507997463 0.5 L 89.88319015994925 0.5 L 89.88319015994925 3.5 L 96.88319015994925 0 L 89.88319015994925 -3.5 L 89.88319015994925 -0.5 L 66.44159507997463 -0.5 Z"/><text text-anchor="middle" pointer-events="none" font-size="8px" fill="#000000" x="57.441595079974626" y="3" transform="rotate(180 57.441595079974626 0)" font-family="sans-serif">isA</text></g><g class="relationship" transform="translate(2.6087047607996934 -463.1648692694821) rotate(469.5692238451851)"><path class="outline" fill="#A5ABB6" stroke="none" d="M 25 0.5 L 65.56278770115024 0.5 L 65.56278770115024 -0.5 L 25 -0.5 Z M 83.56278770115024 0.5 L 124.12557540230048 0.5 L 124.12557540230048 3.5 L 131.12557540230048 0 L 124.12557540230048 -3.5 L 124.12557540230048 -0.5 L 83.56278770115024 -0.5 Z"/><text text-anchor="middle" pointer-events="none" font-size="8px" fill="#000000" x="74.56278770115024" y="3" transform="rotate(180 74.56278770115024 0)" font-family="sans-serif">isA</text></g><g class="relationship" transform="translate(581.5531371209081 -292.85116615371635) rotate(479.34913325379506)"><path class="outline" fill="#A5ABB6" stroke="none" d="M 25 0.5 L 57.01207163467029 0.5 L 57.01207163467029 -0.5 L 25 -0.5 Z M 75.01207163467029 0.5 L 107.02414326934058 0.5 L 107.02414326934058 3.5 L 114.02414326934058 0 L 107.02414326934058 -3.5 L 107.02414326934058 -0.5 L 75.01207163467029 -0.5 Z"/><text text-anchor="middle" pointer-events="none" font-size="8px" fill="#000000" x="66.01207163467029" y="3" transform="rotate(180 66.01207163467029 0)" font-family="sans-serif">isA</text></g><g class="relationship" transform="translate(-188.15334443449063 457.86078420524115) rotate(247.47230449643712)"><path class="outline" fill="#A5ABB6" stroke="none" d="M 25 0.5 L 45.151960071345876 0.5 L 45.151960071345876 -0.5 L 25 -0.5 Z M 63.151960071345876 0.5 L 83.30392014269175 0.5 L 83.30392014269175 3.5 L 90.30392014269175 0 L 83.30392014269175 -3.5 L 83.30392014269175 -0.5 L 63.151960071345876 -0.5 Z"/><text text-anchor="middle" pointer-events="none" font-size="8px" fill="#000000" x="54.151960071345876" y="3" transform="rotate(180 54.151960071345876 0)" font-family="sans-serif">isA</text></g><g class="relationship" transform="translate(-327.61252458055304 434.44276531421815) rotate(318.91123831162855)"><path class="outline" fill="#A5ABB6" stroke="none" d="M 25 0.5 L 50.71066980929364 0.5 L 50.71066980929364 -0.5 L 25 -0.5 Z M 68.71066980929365 0.5 L 94.42133961858728 0.5 L 94.42133961858728 3.5 L 101.42133961858728 0 L 94.42133961858728 -3.5 L 94.42133961858728 -0.5 L 68.71066980929365 -0.5 Z"/><text text-anchor="middle" pointer-events="none" font-size="8px" fill="#000000" x="59.71066980929364" y="3" font-family="sans-serif">isA</text></g><g class="relationship" transform="translate(-358.00899200960475 367.0177119838224) rotate(352.8962565330163)"><path class="outline" fill="#A5ABB6" stroke="none" d="M 25 0.5 L 50.82572716739112 0.5 L 50.82572716739112 -0.5 L 25 -0.5 Z M 68.82572716739112 0.5 L 94.65145433478224 0.5 L 94.65145433478224 3.5 L 101.65145433478224 0 L 94.65145433478224 -3.5 L 94.65145433478224 -0.5 L 68.82572716739112 -0.5 Z"/><text text-anchor="middle" pointer-events="none" font-size="8px" fill="#000000" x="59.82572716739112" y="3" font-family="sans-serif">isA</text></g><g class="relationship" transform="translate(-232.32973194884207 351.355193805234) rotate(293.00389625065816)"><path class="outline" fill="#A5ABB6" stroke="none" d="M 25 0.5 L 84.94169861640944 0.5 L 84.94169861640944 -0.5 L 25 -0.5 Z M 102.94169861640944 0.5 L 162.88339723281888 0.5 L 162.88339723281888 3.5 L 169.88339723281888 0 L 162.88339723281888 -3.5 L 162.88339723281888 -0.5 L 102.94169861640944 -0.5 Z"/><text text-anchor="middle" pointer-events="none" font-size="8px" fill="#000000" x="93.94169861640944" y="3" font-family="sans-serif">isA</text></g><g class="relationship" transform="translate(444.6577368872863 690.0849013173347) rotate(241.69295902291492)"><path class="outline" fill="#A5ABB6" stroke="none" d="M 25 0.5 L 46.181427603909945 0.5 L 46.181427603909945 -0.5 L 25 -0.5 Z M 64.18142760390995 0.5 L 85.36285520781989 0.5 L 85.36285520781989 3.5 L 92.36285520781989 0 L 85.36285520781989 -3.5 L 85.36285520781989 -0.5 L 64.18142760390995 -0.5 Z"/><text text-anchor="middle" pointer-events="none" font-size="8px" fill="#000000" x="55.181427603909945" y="3" transform="rotate(180 55.181427603909945 0)" font-family="sans-serif">isA</text></g><g class="relationship" transform="translate(714.8305879794856 272.39073630133817) rotate(194.73266140410743)"><path class="outline" fill="#A5ABB6" stroke="none" d="M 25 0.5 L 54.2929762964508 0.5 L 54.2929762964508 -0.5 L 25 -0.5 Z M 72.2929762964508 0.5 L 101.5859525929016 0.5 L 101.5859525929016 3.5 L 108.5859525929016 0 L 101.5859525929016 -3.5 L 101.5859525929016 -0.5 L 72.2929762964508 -0.5 Z"/><text text-anchor="middle" pointer-events="none" font-size="8px" fill="#000000" x="63.2929762964508" y="3" transform="rotate(180 63.2929762964508 0)" font-family="sans-serif">isA</text></g></g><g class="layer nodes"><g class="node" transform="translate(700.2482970289013,557.7007401078099)"><circle class="outline" cx="0" cy="0" r="25" fill="#68BDF6" stroke="#5CA8DB" stroke-width="2px"/><text text-anchor="middle" pointer-events="none" y="5" font-size="10px" fill="#FFFFFF" font-family="sans-serif"> owl:Co…</text></g><g class="node" transform="translate(264.72729823843315,613.203790835073)"><circle class="outline" cx="0" cy="0" r="25" fill="#68BDF6" stroke="#5CA8DB" stroke-width="2px"/><text text-anchor="middle" pointer-events="none" y="5" font-size="10px" fill="#FFFFFF" font-family="sans-serif"> EntityN…</text></g><g class="node" transform="translate(306.7822032511476,476.5510568477597)"><circle class="outline" cx="0" cy="0" r="25" fill="#68BDF6" stroke="#5CA8DB" stroke-width="2px"/><text text-anchor="middle" pointer-events="none" y="5" font-size="10px" fill="#FFFFFF" font-family="sans-serif"> XmlAtt…</text></g><g class="node" transform="translate(-94.45109944221224,-141.43814003941912)"><circle class="outline" cx="0" cy="0" r="25" fill="#68BDF6" stroke="#5CA8DB" stroke-width="2px"/><text text-anchor="middle" pointer-events="none" y="5" font-size="10px" fill="#FFFFFF" font-family="sans-serif"> Model…</text></g><g class="node" transform="translate(31.048389752522134,43.46554568752077)"><circle class="outline" cx="0" cy="0" r="25" fill="#68BDF6" stroke="#5CA8DB" stroke-width="2px"/><text text-anchor="middle" pointer-events="none" y="5" font-size="10px" fill="#FFFFFF" font-family="sans-serif"> Target</text></g><g class="node" transform="translate(72.66689550863248,448.9614435838383)"><circle class="outline" cx="0" cy="0" r="25" fill="#68BDF6" stroke="#5CA8DB" stroke-width="2px"/><text text-anchor="middle" pointer-events="none" y="5" font-size="10px" fill="#FFFFFF" font-family="sans-serif"> MetaId…</text></g><g class="node" transform="translate(60.09800666053521,315.60694954186044)"><circle class="outline" cx="0" cy="0" r="25" fill="#68BDF6" stroke="#5CA8DB" stroke-width="2px"/><text text-anchor="middle" pointer-events="none" y="5" font-size="10px" fill="#FFFFFF" font-family="sans-serif"> Identifi…</text></g><g class="node" transform="translate(-36.44432812037341,300.82536684483404)"><circle class="outline" cx="0" cy="0" r="25" fill="#68BDF6" stroke="#5CA8DB" stroke-width="2px"/><text text-anchor="middle" pointer-events="none" y="5" font-size="10px" fill="#FFFFFF" font-family="sans-serif"> Annota…</text></g><g class="node" transform="translate(24.2101104725636,184.89246155390697)"><circle class="outline" cx="0" cy="0" r="25" fill="#68BDF6" stroke="#5CA8DB" stroke-width="2px"/><text text-anchor="middle" pointer-events="none" y="5" font-size="10px" fill="#FFFFFF" font-family="sans-serif"> ModelE…</text></g><g class="node" transform="translate(-243.24690818895795,-169.74404812011716)"><circle class="outline" cx="0" cy="0" r="25" fill="#68BDF6" stroke="#5CA8DB" stroke-width="2px"/><text text-anchor="middle" pointer-events="none" y="5" font-size="10px" fill="#FFFFFF" font-family="sans-serif"> Textual…</text></g><g class="node" transform="translate(-80.73407049386796,35.483156544031786)"><circle class="outline" cx="0" cy="0" r="25" fill="#68BDF6" stroke="#5CA8DB" stroke-width="2px"/><text text-anchor="middle" pointer-events="none" y="5" font-size="10px" fill="#FFFFFF" font-family="sans-serif"> Model…</text></g><g class="node" transform="translate(-184.36764920612268,-217.6643748303769)"><circle class="outline" cx="0" cy="0" r="25" fill="#68BDF6" stroke="#5CA8DB" stroke-width="2px"/><text text-anchor="middle" pointer-events="none" y="5" font-size="10px" fill="#FFFFFF" font-family="sans-serif"> Ontolo…</text></g><g class="node" transform="translate(-216.49579671394068,643.0524301769798)"><circle class="outline" cx="0" cy="0" r="25" fill="#68BDF6" stroke="#5CA8DB" stroke-width="2px"/><text text-anchor="middle" pointer-events="none" y="5" font-size="10px" fill="#FFFFFF" font-family="sans-serif"> Reacti…</text></g><g class="node" transform="translate(-256.750373075211,512.7201156204242)"><circle class="outline" cx="0" cy="0" r="25" fill="#68BDF6" stroke="#5CA8DB" stroke-width="2px"/><text text-anchor="middle" pointer-events="none" y="5" font-size="10px" fill="#FFFFFF" font-family="sans-serif"> Reacti…</text></g><g class="node" transform="translate(513.8876872492555,275.12290631999235)"><circle class="outline" cx="0" cy="0" r="25" fill="#68BDF6" stroke="#5CA8DB" stroke-width="2px"/><text text-anchor="middle" pointer-events="none" y="5" font-size="10px" fill="#FFFFFF" font-family="sans-serif"> Trial</text></g><g class="node" transform="translate(428.27142750476577,170.80750922438395)"><circle class="outline" cx="0" cy="0" r="25" fill="#68BDF6" stroke="#5CA8DB" stroke-width="2px"/><text text-anchor="middle" pointer-events="none" y="5" font-size="10px" fill="#FFFFFF" font-family="sans-serif"> Intenti…</text></g><g class="node" transform="translate(-151.84938856225878,742.9047510271089)"><circle class="outline" cx="0" cy="0" r="25" fill="#68BDF6" stroke="#5CA8DB" stroke-width="2px"/><text text-anchor="middle" pointer-events="none" y="5" font-size="10px" fill="#FFFFFF" font-family="sans-serif"> Revers…</text></g><g class="node" transform="translate(447.82383399788023,296.30430210608324)"><circle class="outline" cx="0" cy="0" r="25" fill="#68BDF6" stroke="#5CA8DB" stroke-width="2px"/><text text-anchor="middle" pointer-events="none" y="5" font-size="10px" fill="#FFFFFF" font-family="sans-serif"> Correc…</text></g><g class="node" transform="translate(277.16107831302094,283.77250450404364)"><circle class="outline" cx="0" cy="0" r="25" fill="#68BDF6" stroke="#5CA8DB" stroke-width="2px"/><text text-anchor="middle" pointer-events="none" y="5" font-size="10px" fill="#FFFFFF" font-family="sans-serif"> XmlEnt…</text></g><g class="node" transform="translate(265.6761725557863,90.20026782507715)"><circle class="outline" cx="0" cy="0" r="25" fill="#68BDF6" stroke="#5CA8DB" stroke-width="2px"/><text text-anchor="middle" pointer-events="none" y="5" font-size="10px" fill="#FFFFFF" font-family="sans-serif"> owl:Thi…</text></g><g class="node" transform="translate(555.4005154404499,180.82211367868294)"><circle class="outline" cx="0" cy="0" r="25" fill="#68BDF6" stroke="#5CA8DB" stroke-width="2px"/><text text-anchor="middle" pointer-events="none" y="5" font-size="10px" fill="#FFFFFF" font-family="sans-serif"> Simplif…</text></g><g class="node" transform="translate(424.8802507999819,-13.143325186561546)"><circle class="outline" cx="0" cy="0" r="25" fill="#68BDF6" stroke="#5CA8DB" stroke-width="2px"/><text text-anchor="middle" pointer-events="none" y="5" font-size="10px" fill="#FFFFFF" font-family="sans-serif"> Change</text></g><g class="node" transform="translate(107.86801076235989,-190.61459558021193)"><circle class="outline" cx="0" cy="0" r="25" fill="#68BDF6" stroke="#5CA8DB" stroke-width="2px"/><text text-anchor="middle" pointer-events="none" y="5" font-size="10px" fill="#FFFFFF" font-family="sans-serif"> Specie…</text></g><g class="node" transform="translate(41.434828858557616,-79.58171280795426)"><circle class="outline" cx="0" cy="0" r="25" fill="#68BDF6" stroke="#5CA8DB" stroke-width="2px"/><text text-anchor="middle" pointer-events="none" y="5" font-size="10px" fill="#FFFFFF" font-family="sans-serif"> Model…</text></g><g class="node" transform="translate(231.10508517724276,393.1681036115582)"><circle class="outline" cx="0" cy="0" r="25" fill="#68BDF6" stroke="#5CA8DB" stroke-width="2px"/><text text-anchor="middle" pointer-events="none" y="5" font-size="10px" fill="#FFFFFF" font-family="sans-serif"> XmlNo…</text></g><g class="node" transform="translate(-369.2918254013622,-226.26981761087436)"><circle class="outline" cx="0" cy="0" r="25" fill="#68BDF6" stroke="#5CA8DB" stroke-width="2px"/><text text-anchor="middle" pointer-events="none" y="5" font-size="10px" fill="#FFFFFF" font-family="sans-serif"> Attribu…</text></g><g class="node" transform="translate(257.8258250101403,-177.79498060111473)"><circle class="outline" cx="0" cy="0" r="25" fill="#68BDF6" stroke="#5CA8DB" stroke-width="2px"/><text text-anchor="middle" pointer-events="none" y="5" font-size="10px" fill="#FFFFFF" font-family="sans-serif"> Misma…</text></g><g class="node" transform="translate(284.35113626810903,-49.21665289608185)"><circle class="outline" cx="0" cy="0" r="25" fill="#68BDF6" stroke="#5CA8DB" stroke-width="2px"/><text text-anchor="middle" pointer-events="none" y="5" font-size="10px" fill="#FFFFFF" font-family="sans-serif"> Reason</text></g><g class="node" transform="translate(51.824516857274745,-218.95457371114153)"><circle class="outline" cx="0" cy="0" r="25" fill="#68BDF6" stroke="#5CA8DB" stroke-width="2px"/><text text-anchor="middle" pointer-events="none" y="5" font-size="10px" fill="#FFFFFF" font-family="sans-serif"> Param…</text></g><g class="node" transform="translate(-319.8365456589489,20.135708162346198)"><circle class="outline" cx="0" cy="0" r="25" fill="#68BDF6" stroke="#5CA8DB" stroke-width="2px"/><text text-anchor="middle" pointer-events="none" y="5" font-size="10px" fill="#FFFFFF" font-family="sans-serif"> Functio…</text></g><g class="node" transform="translate(-308.0933350511482,137.0214388872858)"><circle class="outline" cx="0" cy="0" r="25" fill="#68BDF6" stroke="#5CA8DB" stroke-width="2px"/><text text-anchor="middle" pointer-events="none" y="5" font-size="10px" fill="#FFFFFF" font-family="sans-serif"> Mathe…</text></g><g class="node" transform="translate(-163.85858935207014,-295.8144050608699)"><circle class="outline" cx="0" cy="0" r="25" fill="#68BDF6" stroke="#5CA8DB" stroke-width="2px"/><text text-anchor="middle" pointer-events="none" y="5" font-size="10px" fill="#FFFFFF" font-family="sans-serif"> Date</text></g><g class="node" transform="translate(-369.1742072446111,235.4059927008458)"><circle class="outline" cx="0" cy="0" r="25" fill="#68BDF6" stroke="#5CA8DB" stroke-width="2px"/><text text-anchor="middle" pointer-events="none" y="5" font-size="10px" fill="#FFFFFF" font-family="sans-serif"> UnitDe…</text></g><g class="node" transform="translate(560.5151432821506,0.8546313310420106)"><circle class="outline" cx="0" cy="0" r="25" fill="#68BDF6" stroke="#5CA8DB" stroke-width="2px"/><text text-anchor="middle" pointer-events="none" y="5" font-size="10px" fill="#FFFFFF" font-family="sans-serif"> Update</text></g><g class="node" transform="translate(339.17475201691616,150.79515309427723)"><circle class="outline" cx="0" cy="0" r="25" fill="#68BDF6" stroke="#5CA8DB" stroke-width="2px"/><text text-anchor="middle" pointer-events="none" y="5" font-size="10px" fill="#FFFFFF" font-family="sans-serif"> _obsol…</text></g><g class="node" transform="translate(2.6087047607996934,-463.1648692694821)"><circle class="outline" cx="0" cy="0" r="25" fill="#68BDF6" stroke="#5CA8DB" stroke-width="2px"/><text text-anchor="middle" pointer-events="none" y="5" font-size="10px" fill="#FFFFFF" font-family="sans-serif"> Contri…</text></g><g class="node" transform="translate(-49.6848541101295,-316.0574969344693)"><circle class="outline" cx="0" cy="0" r="25" fill="#68BDF6" stroke="#5CA8DB" stroke-width="2px"/><text text-anchor="middle" pointer-events="none" y="5" font-size="10px" fill="#FFFFFF" font-family="sans-serif"> Person</text></g><g class="node" transform="translate(-265.02429476559627,-383.6519238705629)"><circle class="outline" cx="0" cy="0" r="25" fill="#68BDF6" stroke="#5CA8DB" stroke-width="2px"/><text text-anchor="middle" pointer-events="none" y="5" font-size="10px" fill="#FFFFFF" font-family="sans-serif"> Creati…</text></g><g class="node" transform="translate(204.79345953286816,-122.62721683538798)"><circle class="outline" cx="0" cy="0" r="25" fill="#68BDF6" stroke="#5CA8DB" stroke-width="2px"/><text text-anchor="middle" pointer-events="none" y="5" font-size="10px" fill="#FFFFFF" font-family="sans-serif"> Model…</text></g><g class="node" transform="translate(513.4132194009329,-171.67087062309326)"><circle class="outline" cx="0" cy="0" r="25" fill="#68BDF6" stroke="#5CA8DB" stroke-width="2px"/><text text-anchor="middle" pointer-events="none" y="5" font-size="10px" fill="#FFFFFF" font-family="sans-serif"> Move</text></g><g class="node" transform="translate(-188.15334443449063,457.86078420524115)"><circle class="outline" cx="0" cy="0" r="25" fill="#68BDF6" stroke="#5CA8DB" stroke-width="2px"/><text text-anchor="middle" pointer-events="none" y="5" font-size="10px" fill="#FFFFFF" font-family="sans-serif"> PortDe…</text></g><g class="node" transform="translate(-232.32973194884207,351.355193805234)"><circle class="outline" cx="0" cy="0" r="25" fill="#68BDF6" stroke="#5CA8DB" stroke-width="2px"/><text text-anchor="middle" pointer-events="none" y="5" font-size="10px" fill="#FFFFFF" font-family="sans-serif"> Networ…</text></g><g class="node" transform="translate(-14.181567216805345,-182.46765940036693)"><circle class="outline" cx="0" cy="0" r="25" fill="#68BDF6" stroke="#5CA8DB" stroke-width="2px"/><text text-anchor="middle" pointer-events="none" y="5" font-size="10px" fill="#FFFFFF" font-family="sans-serif"> Variabl…</text></g><g class="node" transform="translate(68.90461856569482,-565.4407894870009)"><circle class="outline" cx="0" cy="0" r="25" fill="#68BDF6" stroke="#5CA8DB" stroke-width="2px"/><text text-anchor="middle" pointer-events="none" y="5" font-size="10px" fill="#FFFFFF" font-family="sans-serif"> Creator</text></g><g class="node" transform="translate(218.36915826660308,727.1217800532977)"><circle class="outline" cx="0" cy="0" r="25" fill="#68BDF6" stroke="#5CA8DB" stroke-width="2px"/><text text-anchor="middle" pointer-events="none" y="5" font-size="10px" fill="#FFFFFF" font-family="sans-serif"> Model…</text></g><g class="node" transform="translate(-46.29570547192524,429.7998283989647)"><circle class="outline" cx="0" cy="0" r="25" fill="#68BDF6" stroke="#5CA8DB" stroke-width="2px"/><text text-anchor="middle" pointer-events="none" y="5" font-size="10px" fill="#FFFFFF" font-family="sans-serif"> VcardE…</text></g><g class="node" transform="translate(567.8480296730525,-62.638335581902425)"><circle class="outline" cx="0" cy="0" r="25" fill="#68BDF6" stroke="#5CA8DB" stroke-width="2px"/><text text-anchor="middle" pointer-events="none" y="5" font-size="10px" fill="#FFFFFF" font-family="sans-serif"> Inserti…</text></g><g class="node" transform="translate(-179.4065601657584,-428.9256321233707)"><circle class="outline" cx="0" cy="0" r="25" fill="#68BDF6" stroke="#5CA8DB" stroke-width="2px"/><text text-anchor="middle" pointer-events="none" y="5" font-size="10px" fill="#FFFFFF" font-family="sans-serif"> Modific…</text></g><g class="node" transform="translate(356.65478979357437,-170.06373757343704)"><circle class="outline" cx="0" cy="0" r="25" fill="#68BDF6" stroke="#5CA8DB" stroke-width="2px"/><text text-anchor="middle" pointer-events="none" y="5" font-size="10px" fill="#FFFFFF" font-family="sans-serif"> Typo</text></g><g class="node" transform="translate(-156.17052337364692,171.96925938950397)"><circle class="outline" cx="0" cy="0" r="25" fill="#68BDF6" stroke="#5CA8DB" stroke-width="2px"/><text text-anchor="middle" pointer-events="none" y="5" font-size="10px" fill="#FFFFFF" font-family="sans-serif"> Model…</text></g><g class="node" transform="translate(581.5531371209081,-292.85116615371635)"><circle class="outline" cx="0" cy="0" r="25" fill="#68BDF6" stroke="#5CA8DB" stroke-width="2px"/><text text-anchor="middle" pointer-events="none" y="5" font-size="10px" fill="#FFFFFF" font-family="sans-serif"> Permu…</text></g><g class="node" transform="translate(346.79545827526863,385.9321215362829)"><circle class="outline" cx="0" cy="0" r="25" fill="#68BDF6" stroke="#5CA8DB" stroke-width="2px"/><text text-anchor="middle" pointer-events="none" y="5" font-size="10px" fill="#FFFFFF" font-family="sans-serif"> XmlText</text></g><g class="node" transform="translate(309.8776703685698,-207.63181158730194)"><circle class="outline" cx="0" cy="0" r="25" fill="#68BDF6" stroke="#5CA8DB" stroke-width="2px"/><text text-anchor="middle" pointer-events="none" y="5" font-size="10px" fill="#FFFFFF" font-family="sans-serif"> Knowle…</text></g><g class="node" transform="translate(384.5192798701827,-114.03506200872197)"><circle class="outline" cx="0" cy="0" r="25" fill="#68BDF6" stroke="#5CA8DB" stroke-width="2px"/><text text-anchor="middle" pointer-events="none" y="5" font-size="10px" fill="#FFFFFF" font-family="sans-serif"> Chang…</text></g><g class="node" transform="translate(-430.3416622474062,198.25726212555412)"><circle class="outline" cx="0" cy="0" r="25" fill="#68BDF6" stroke="#5CA8DB" stroke-width="2px"/><text text-anchor="middle" pointer-events="none" y="5" font-size="10px" fill="#FFFFFF" font-family="sans-serif"> Comp…</text></g><g class="node" transform="translate(546.5027718845179,117.30444361601359)"><circle class="outline" cx="0" cy="0" r="25" fill="#68BDF6" stroke="#5CA8DB" stroke-width="2px"/><text text-anchor="middle" pointer-events="none" y="5" font-size="10px" fill="#FFFFFF" font-family="sans-serif"> Elabor…</text></g><g class="node" transform="translate(-445.60191859203957,137.75315501520643)"><circle class="outline" cx="0" cy="0" r="25" fill="#68BDF6" stroke="#5CA8DB" stroke-width="2px"/><text text-anchor="middle" pointer-events="none" y="5" font-size="10px" fill="#FFFFFF" font-family="sans-serif"> Kinetic…</text></g><g class="node" transform="translate(-392.47748883701865,32.047574635759176)"><circle class="outline" cx="0" cy="0" r="25" fill="#68BDF6" stroke="#5CA8DB" stroke-width="2px"/><text text-anchor="middle" pointer-events="none" y="5" font-size="10px" fill="#FFFFFF" font-family="sans-serif"> EventD…</text></g><g class="node" transform="translate(-358.00899200960475,367.0177119838224)"><circle class="outline" cx="0" cy="0" r="25" fill="#68BDF6" stroke="#5CA8DB" stroke-width="2px"/><text text-anchor="middle" pointer-events="none" y="5" font-size="10px" fill="#FFFFFF" font-family="sans-serif"> Hierarc…</text></g><g class="node" transform="translate(-327.61252458055304,434.44276531421815)"><circle class="outline" cx="0" cy="0" r="25" fill="#68BDF6" stroke="#5CA8DB" stroke-width="2px"/><text text-anchor="middle" pointer-events="none" y="5" font-size="10px" fill="#FFFFFF" font-family="sans-serif"> Variabl…</text></g><g class="node" transform="translate(-344.4078873512823,600.2996148764296)"><circle class="outline" cx="0" cy="0" r="25" fill="#68BDF6" stroke="#5CA8DB" stroke-width="2px"/><text text-anchor="middle" pointer-events="none" y="5" font-size="10px" fill="#FFFFFF" font-family="sans-serif"> Partici…</text></g><g class="node" transform="translate(444.6577368872863,690.0849013173347)"><circle class="outline" cx="0" cy="0" r="25" fill="#68BDF6" stroke="#5CA8DB" stroke-width="2px"/><text text-anchor="middle" pointer-events="none" y="5" font-size="10px" fill="#FFFFFF" font-family="sans-serif"> ModelId</text></g><g class="node" transform="translate(389.00469277647915,586.7564034876834)"><circle class="outline" cx="0" cy="0" r="25" fill="#68BDF6" stroke="#5CA8DB" stroke-width="2px"/><text text-anchor="middle" pointer-events="none" y="5" font-size="10px" fill="#FFFFFF" font-family="sans-serif"> EntityI…</text></g><g class="node" transform="translate(585.6365486113368,238.41858709210825)"><circle class="outline" cx="0" cy="0" r="25" fill="#68BDF6" stroke="#5CA8DB" stroke-width="2px"/><text text-anchor="middle" pointer-events="none" y="5" font-size="10px" fill="#FFFFFF" font-family="sans-serif"> Expans…</text></g><g class="node" transform="translate(714.8305879794856,272.39073630133817)"><circle class="outline" cx="0" cy="0" r="25" fill="#68BDF6" stroke="#5CA8DB" stroke-width="2px"/><text text-anchor="middle" pointer-events="none" y="5" font-size="10px" fill="#FFFFFF" font-family="sans-serif"> Merge</text></g><g class="node" transform="translate(-436.0744450595548,77.92937915533561)"><circle class="outline" cx="0" cy="0" r="25" fill="#68BDF6" stroke="#5CA8DB" stroke-width="2px"/><text text-anchor="middle" pointer-events="none" y="5" font-size="10px" fill="#FFFFFF" font-family="sans-serif"> RuleDe…</text></g><g class="node" transform="translate(518.9014391162069,-104.45461242466818)"><circle class="outline" cx="0" cy="0" r="25" fill="#68BDF6" stroke="#5CA8DB" stroke-width="2px"/><text text-anchor="middle" pointer-events="none" y="5" font-size="10px" fill="#FFFFFF" font-family="sans-serif"> Deleti…</text></g></g></svg>