<?xml version="1.0" encoding="UTF-8" standalone="no"?>
<svg
   xmlns:dc="http://purl.org/dc/elements/1.1/"
   xmlns:cc="http://creativecommons.org/ns#"
   xmlns:rdf="http://www.w3.org/1999/02/22-rdf-syntax-ns#"
   xmlns:svg="http://www.w3.org/2000/svg"
   xmlns="http://www.w3.org/2000/svg"
   xmlns:sodipodi="http://sodipodi.sourceforge.net/DTD/sodipodi-0.dtd"
   xmlns:inkscape="http://www.inkscape.org/namespaces/inkscape"
   width="884.3785400390625"
   height="520.4137573242188"
   viewBox="-356.1802062988281 -247.41490173339844 884.3785400390625 520.4137573242188"
   id="svg29998"
   version="1.1"
   inkscape:version="0.91 r13725"
   sodipodi:docname="demo-sbml-simple-diff.svg">
  <metadata
     id="metadata30598">
    <rdf:RDF>
      <cc:Work
         rdf:about="">
        <dc:format>image/svg+xml</dc:format>
        <dc:type
           rdf:resource="http://purl.org/dc/dcmitype/StillImage" />
      </cc:Work>
    </rdf:RDF>
  </metadata>
  <defs
     id="defs30596" />
  <sodipodi:namedview
     pagecolor="#ffffff"
     bordercolor="#666666"
     borderopacity="1"
     objecttolerance="10"
     gridtolerance="10"
     guidetolerance="10"
     inkscape:pageopacity="0"
     inkscape:pageshadow="2"
     inkscape:window-width="1596"
     inkscape:window-height="861"
     id="namedview30594"
     showgrid="false"
     inkscape:zoom="0.75985562"
     inkscape:cx="332.53228"
     inkscape:cy="215.46676"
     inkscape:window-x="0"
     inkscape:window-y="18"
     inkscape:window-maximized="0"
     inkscape:current-layer="svg29998" />
  <title
     id="title30000">Neo4j Graph Visualization</title>
  <desc
     id="desc30002">Created using Neo4j (http://www.neo4j.com/)</desc>
  <g
     class="layer relationships"
     id="g30004">
    <g
       class="relationship"
       transform="translate(483.52439962867237 -77.01061572772394) rotate(530.1303966507121)"
       id="g30006">
      <path
         class="outline"
         fill="#A5ABB6"
         stroke="none"
         d="M 25 0.5 L 58.4435469127511 0.5 L 58.4435469127511 -0.5 L 25 -0.5 Z M 123.4435469127511 0.5 L 156.8870938255022 0.5 L 156.8870938255022 3.5 L 163.8870938255022 0 L 156.8870938255022 -3.5 L 156.8870938255022 -0.5 L 123.4435469127511 -0.5 Z"
         id="path30008" />
      <text
         text-anchor="middle"
         pointer-events="none"
         font-size="8px"
         fill="#000000"
         x="90.9435469127511"
         y="3"
         transform="rotate(180 90.9435469127511 0)"
         font-family="sans-serif"
         id="text30010">HAS_SPECIES</text>
    </g>
    <g
       class="relationship"
       transform="translate(-320.2701318455323 -196.43502857751642) rotate(379.4432109488031)"
       id="g30012">
      <path
         class="outline"
         fill="#A5ABB6"
         stroke="none"
         d="M 25 0.5 L 188.4277607376139 0.5 L 188.4277607376139 -0.5 L 25 -0.5 Z M 236.4277607376139 0.5 L 399.8555214752278 0.5 L 399.8555214752278 3.5 L 406.8555214752278 0 L 399.8555214752278 -3.5 L 399.8555214752278 -0.5 L 236.4277607376139 -0.5 Z"
         id="path30014" />
      <text
         text-anchor="middle"
         pointer-events="none"
         font-size="8px"
         fill="#000000"
         x="212.4277607376139"
         y="3"
         font-family="sans-serif"
         id="text30016">HAS_DIFF</text>
    </g>
    <g
       class="relationship"
       transform="translate(461.4598923992061 -218.41489460889045) rotate(516.1286487132913)"
       id="g30018">
      <path
         class="outline"
         fill="#A5ABB6"
         stroke="none"
         d="M 25 0.5 L 177.26777401957088 0.5 L 177.26777401957088 -0.5 L 25 -0.5 Z M 225.26777401957088 0.5 L 377.53554803914176 0.5 L 377.53554803914176 3.5 L 384.53554803914176 0 L 377.53554803914176 -3.5 L 377.53554803914176 -0.5 L 225.26777401957088 -0.5 Z"
         id="path30020" />
      <text
         text-anchor="middle"
         pointer-events="none"
         font-size="8px"
         fill="#000000"
         x="201.26777401957088"
         y="3"
         transform="rotate(180 201.26777401957088 0)"
         font-family="sans-serif"
         id="text30022">HAS_DIFF</text>
    </g>
    <g
       class="relationship"
       transform="translate(-320.2701318455323 -196.43502857751642) rotate(358.3894416102461)"
       id="g30024">
      <path
         class="outline"
         fill="#A5ABB6"
         stroke="none"
         d="M 25 0.5 L 346.01948331139346 0.5 L 346.01948331139346 -0.5 L 25 -0.5 Z M 429.01948331139346 0.5 L 750.0389666227869 0.5 L 750.0389666227869 3.5 L 757.0389666227869 0 L 750.0389666227869 -3.5 L 750.0389666227869 -0.5 L 429.01948331139346 -0.5 Z"
         id="path30026" />
      <text
         text-anchor="middle"
         pointer-events="none"
         font-size="8px"
         fill="#000000"
         x="387.51948331139346"
         y="3"
         font-family="sans-serif"
         id="text30028">HAS_SUCCESSOR</text>
    </g>
    <g
       class="relationship"
       transform="translate(86.95748227825337 -52.68224869590833) rotate(421.521695895804)"
       id="g30030">
      <path
         class="outline"
         fill="#A5ABB6"
         stroke="none"
         d="M 25 0.5 L 74.1448411052012 0.5 L 74.1448411052012 -0.5 L 25 -0.5 Z M 153.14484110520118 0.5 L 202.2896822104024 0.5 L 202.2896822104024 3.5 L 209.2896822104024 0 L 202.2896822104024 -3.5 L 202.2896822104024 -0.5 L 153.14484110520118 -0.5 Z"
         id="path30032" />
      <text
         text-anchor="middle"
         pointer-events="none"
         font-size="8px"
         fill="#000000"
         x="113.6448411052012"
         y="3"
         font-family="sans-serif"
         id="text30034">HAS_DIFF_ENTRY</text>
    </g>
    <g
       class="relationship"
       transform="translate(191.52049309057395 140.0728848123897) rotate(366.5490323803024)"
       id="g30036">
      <path
         class="outline"
         fill="#A5ABB6"
         stroke="none"
         d="M 10 0.5 L 63.84376465232795 0.5 L 63.84376465232795 -0.5 L 10 -0.5 Z M 141.84376465232793 0.5 L 195.6875293046559 0.5 L 195.6875293046559 3.5 L 202.6875293046559 0 L 195.6875293046559 -3.5 L 195.6875293046559 -0.5 L 141.84376465232793 -0.5 Z"
         id="path30038" />
      <text
         text-anchor="middle"
         pointer-events="none"
         font-size="8px"
         fill="#000000"
         x="102.84376465232795"
         y="3"
         font-family="sans-serif"
         id="text30040">IS_DESTINATION</text>
    </g>
    <g
       class="relationship"
       transform="translate(-320.2701318455323 -196.43502857751642) rotate(448.76462111226294)"
       id="g30042">
      <path
         class="outline"
         fill="#A5ABB6"
         stroke="none"
         d="M 24.018736134675446,-6.953439040707552 L 24.277555179777966,-5.987513214418485 A 149.98728203381845 149.98728203381845 0 0 1 31.926653611540583,-7.823523133196858 L 31.718832879948657,-8.801690063490753 A 150.98728203381845 150.98728203381845 0 0 0 24.018736134675446,-6.953439040707552 Z M 90.53124750841428,-9.584921606236037 L 90.34954924319896,-8.601567275174375 A 149.98728203381845 149.98728203381845 0 0 1 98.04482822996275,-6.969905374988667 L 97.34581480436864,-4.052478386898098 L 104.96866010643976,-5.825111879950854 L 98.9768461307549,-10.85980802577609 L 98.27783270516079,-7.9423810376855215 A 150.98728203381845 150.98728203381845 0 0 0 90.53124750841428,-9.584921606236037"
         id="path30044" />
      <text
         text-anchor="middle"
         pointer-events="none"
         font-size="8px"
         fill="#000000"
         x="61.093190746513486"
         y="-8.584862890101391"
         font-family="sans-serif"
         id="text30046">HAS_MODEL</text>
    </g>
    <g
       class="relationship"
       transform="translate(-317.48287437202066 -67.1845266950315) rotate(453.5606214631419)"
       id="g30048">
      <path
         class="outline"
         fill="#A5ABB6"
         stroke="none"
         d="M 25 0.5 L 28.572584753308462 0.5 L 28.572584753308462 -0.5 L 25 -0.5 Z M 120.57258475330846 0.5 L 124.14516950661692 0.5 L 124.14516950661692 3.5 L 131.14516950661692 0 L 124.14516950661692 -3.5 L 124.14516950661692 -0.5 L 120.57258475330846 -0.5 Z"
         id="path30050" />
      <text
         text-anchor="middle"
         pointer-events="none"
         font-size="8px"
         fill="#000000"
         x="74.57258475330846"
         y="3"
         transform="rotate(180 74.57258475330846 0)"
         font-family="sans-serif"
         id="text30052">HAS_COMPARTMENT</text>
    </g>
    <g
       class="relationship"
       transform="translate(461.4598923992061 -218.41489460889045) rotate(441.1311722050922)"
       id="g30054">
      <path
         class="outline"
         fill="#A5ABB6"
         stroke="none"
         d="M 24.018736134675446,-6.953439040707552 L 24.277555179777966,-5.987513214418485 A 177.290491370185 177.290491370185 0 0 1 38.77008369658891,-9.22689806895653 L 38.593009185018936,-10.211095517313453 A 178.290491370185 178.290491370185 0 0 0 24.018736134675446,-6.953439040707552 Z M 97.48351984686681,-10.9229725753421 L 97.3302878445601,-9.93478233380506 A 177.290491370185 177.290491370185 0 0 1 111.89688645750351,-7.04666843442638 L 111.1907034816484,-4.130968586257433 L 118.81788326587356,-5.884858132125936 L 112.83846375864366,-10.934268231984975 L 112.13228078278854,-8.018568383816028 A 178.290491370185 178.290491370185 0 0 0 97.48351984686681,-10.9229725753421"
         id="path30056" />
      <text
         text-anchor="middle"
         pointer-events="none"
         font-size="8px"
         fill="#000000"
         x="68.01471054782564"
         y="-9.515551974940223"
         font-family="sans-serif"
         id="text30058">HAS_MODEL</text>
    </g>
    <g
       class="relationship"
       transform="translate(191.52049309057395 140.0728848123897) rotate(238.07432946063864)"
       id="g30060">
      <path
         class="outline"
         fill="#A5ABB6"
         stroke="none"
         d="M 10 0.5 L 10.7414098742487 0.5 L 10.7414098742487 -0.5 L 10 -0.5 Z M 35.7414098742487 0.5 L 36.4828197484974 0.5 L 36.4828197484974 3.5 L 43.4828197484974 0 L 36.4828197484974 -3.5 L 36.4828197484974 -0.5 L 35.7414098742487 -0.5 Z"
         id="path30062" />
      <text
         text-anchor="middle"
         pointer-events="none"
         font-size="8px"
         fill="#000000"
         x="23.2414098742487"
         y="3"
         transform="rotate(180 23.2414098742487 0)"
         font-family="sans-serif"
         id="text30064">DI…</text>
    </g>
    <g
       class="relationship"
       transform="translate(191.52049309057395 140.0728848123897) rotate(432.3603773898719)"
       id="g30066">
      <path
         class="outline"
         fill="#A5ABB6"
         stroke="none"
         d="M 10 0.5 L 30.30554682117441 0.5 L 30.30554682117441 -0.5 L 10 -0.5 Z M 55.30554682117441 0.5 L 75.61109364234882 0.5 L 75.61109364234882 3.5 L 82.61109364234882 0 L 75.61109364234882 -3.5 L 75.61109364234882 -0.5 L 55.30554682117441 -0.5 Z"
         id="path30068" />
      <text
         text-anchor="middle"
         pointer-events="none"
         font-size="8px"
         fill="#000000"
         x="42.80554682117441"
         y="3"
         font-family="sans-serif"
         id="text30070">type</text>
    </g>
    <g
       class="relationship"
       transform="translate(191.52049309057395 140.0728848123897) rotate(503.4842589489837)"
       id="g30072">
      <path
         class="outline"
         fill="#A5ABB6"
         stroke="none"
         d="M 10 0.5 L 53.82632475848331 0.5 L 53.82632475848331 -0.5 L 10 -0.5 Z M 98.82632475848331 0.5 L 142.65264951696662 0.5 L 142.65264951696662 3.5 L 149.65264951696662 0 L 142.65264951696662 -3.5 L 142.65264951696662 -0.5 L 98.82632475848331 -0.5 Z"
         id="path30074" />
      <text
         text-anchor="middle"
         pointer-events="none"
         font-size="8px"
         fill="#000000"
         x="76.32632475848331"
         y="3"
         transform="rotate(180 76.32632475848331 0)"
         font-family="sans-serif"
         id="text30076">appliesTo</text>
    </g>
    <g
       class="relationship"
       transform="translate(143.3568873517736 151.8367571722141) rotate(289.1793074933658)"
       id="g30078">
      <path
         class="outline"
         fill="#A5ABB6"
         stroke="none"
         d="M 10 0.5 L 11.75775688694959 0.5 L 11.75775688694959 -0.5 L 10 -0.5 Z M 41.75775688694959 0.5 L 43.51551377389918 0.5 L 43.51551377389918 3.5 L 50.51551377389918 0 L 43.51551377389918 -3.5 L 43.51551377389918 -0.5 L 41.75775688694959 -0.5 Z"
         id="path30080" />
      <text
         text-anchor="middle"
         pointer-events="none"
         font-size="8px"
         fill="#000000"
         x="26.75775688694959"
         y="3"
         font-family="sans-serif"
         id="text30082">DIF…</text>
    </g>
    <g
       class="relationship"
       transform="translate(86.95748227825337 -52.68224869590833) rotate(434.58294949560013)"
       id="g30084">
      <path
         class="outline"
         fill="#A5ABB6"
         stroke="none"
         d="M 25 0.5 L 70.57652503491538 0.5 L 70.57652503491538 -0.5 L 25 -0.5 Z M 149.5765250349154 0.5 L 195.15305006983075 0.5 L 195.15305006983075 3.5 L 202.15305006983075 0 L 195.15305006983075 -3.5 L 195.15305006983075 -0.5 L 149.5765250349154 -0.5 Z"
         id="path30086" />
      <text
         text-anchor="middle"
         pointer-events="none"
         font-size="8px"
         fill="#000000"
         x="110.07652503491538"
         y="3"
         font-family="sans-serif"
         id="text30088">HAS_DIFF_ENTRY</text>
    </g>
    <g
       class="relationship"
       transform="translate(143.3568873517736 151.8367571722141) rotate(408.3407723635787)"
       id="g30090">
      <path
         class="outline"
         fill="#A5ABB6"
         stroke="none"
         d="M 10 0.5 L 37.25900737786247 0.5 L 37.25900737786247 -0.5 L 10 -0.5 Z M 62.25900737786247 0.5 L 89.51801475572493 0.5 L 89.51801475572493 3.5 L 96.51801475572493 0 L 89.51801475572493 -3.5 L 89.51801475572493 -0.5 L 62.25900737786247 -0.5 Z"
         id="path30092" />
      <text
         text-anchor="middle"
         pointer-events="none"
         font-size="8px"
         fill="#000000"
         x="49.75900737786247"
         y="3"
         font-family="sans-serif"
         id="text30094">type</text>
    </g>
    <g
       class="relationship"
       transform="translate(143.3568873517736 151.8367571722141) rotate(515.2075250294911)"
       id="g30096">
      <path
         class="outline"
         fill="#A5ABB6"
         stroke="none"
         d="M 10 0.5 L 77.64315626270496 0.5 L 77.64315626270496 -0.5 L 10 -0.5 Z M 112.64315626270496 0.5 L 180.28631252540993 0.5 L 180.28631252540993 3.5 L 187.28631252540993 0 L 180.28631252540993 -3.5 L 180.28631252540993 -0.5 L 112.64315626270496 -0.5 Z"
         id="path30098" />
      <text
         text-anchor="middle"
         pointer-events="none"
         font-size="8px"
         fill="#000000"
         x="95.14315626270496"
         y="3"
         transform="rotate(180 95.14315626270496 0)"
         font-family="sans-serif"
         id="text30100">affects</text>
    </g>
    <g
       class="relationship"
       transform="translate(143.3568873517736 151.8367571722141) rotate(495.01289936342874)"
       id="g30102">
      <path
         class="outline"
         fill="#A5ABB6"
         stroke="none"
         d="M 10 0.5 L 31.683101956542814 0.5 L 31.683101956542814 -0.5 L 10 -0.5 Z M 76.68310195654281 0.5 L 98.36620391308563 0.5 L 98.36620391308563 3.5 L 105.36620391308563 0 L 98.36620391308563 -3.5 L 98.36620391308563 -0.5 L 76.68310195654281 -0.5 Z"
         id="path30104" />
      <text
         text-anchor="middle"
         pointer-events="none"
         font-size="8px"
         fill="#000000"
         x="54.183101956542814"
         y="3"
         transform="rotate(180 54.183101956542814 0)"
         font-family="sans-serif"
         id="text30106">appliesTo</text>
    </g>
    <g
       class="relationship"
       transform="translate(143.3568873517736 151.8367571722141) rotate(362.9637191241735)"
       id="g30108">
      <path
         class="outline"
         fill="#A5ABB6"
         stroke="none"
         d="M 10 0.5 L 87.36642421245952 0.5 L 87.36642421245952 -0.5 L 10 -0.5 Z M 165.36642421245952 0.5 L 242.73284842491904 0.5 L 242.73284842491904 3.5 L 249.73284842491904 0 L 242.73284842491904 -3.5 L 242.73284842491904 -0.5 L 165.36642421245952 -0.5 Z"
         id="path30110" />
      <text
         text-anchor="middle"
         pointer-events="none"
         font-size="8px"
         fill="#000000"
         x="126.36642421245952"
         y="3"
         font-family="sans-serif"
         id="text30112">IS_DESTINATION</text>
    </g>
    <g
       class="relationship"
       transform="translate(219.6251319898281 101.52382807180422) rotate(186.92008473051453)"
       id="g30114">
      <path
         class="outline"
         fill="#A5ABB6"
         stroke="none"
         d="M 10 0.5 L 12.40056913305559 0.5 L 12.40056913305559 -0.5 L 10 -0.5 Z M 37.40056913305559 0.5 L 39.80113826611118 0.5 L 39.80113826611118 3.5 L 46.80113826611118 0 L 39.80113826611118 -3.5 L 39.80113826611118 -0.5 L 37.40056913305559 -0.5 Z"
         id="path30116" />
      <text
         text-anchor="middle"
         pointer-events="none"
         font-size="8px"
         fill="#000000"
         x="24.90056913305559"
         y="3"
         transform="rotate(180 24.90056913305559 0)"
         font-family="sans-serif"
         id="text30118">DI…</text>
    </g>
    <g
       class="relationship"
       transform="translate(86.95748227825337 -52.68224869590833) rotate(409.2937009324949)"
       id="g30120">
      <path
         class="outline"
         fill="#A5ABB6"
         stroke="none"
         d="M 25 0.5 L 66.21064274706305 0.5 L 66.21064274706305 -0.5 L 25 -0.5 Z M 145.21064274706305 0.5 L 186.4212854941261 0.5 L 186.4212854941261 3.5 L 193.4212854941261 0 L 186.4212854941261 -3.5 L 186.4212854941261 -0.5 L 145.21064274706305 -0.5 Z"
         id="path30122" />
      <text
         text-anchor="middle"
         pointer-events="none"
         font-size="8px"
         fill="#000000"
         x="105.71064274706305"
         y="3"
         font-family="sans-serif"
         id="text30124">HAS_DIFF_ENTRY</text>
    </g>
    <g
       class="relationship"
       transform="translate(219.6251319898281 101.52382807180422) rotate(378.0397406611199)"
       id="g30126">
      <path
         class="outline"
         fill="#A5ABB6"
         stroke="none"
         d="M 10 0.5 L 54.169331882395866 0.5 L 54.169331882395866 -0.5 L 10 -0.5 Z M 132.16933188239585 0.5 L 176.33866376479173 0.5 L 176.33866376479173 3.5 L 183.33866376479173 0 L 176.33866376479173 -3.5 L 176.33866376479173 -0.5 L 132.16933188239585 -0.5 Z"
         id="path30128" />
      <text
         text-anchor="middle"
         pointer-events="none"
         font-size="8px"
         fill="#000000"
         x="93.16933188239587"
         y="3"
         font-family="sans-serif"
         id="text30130">IS_DESTINATION</text>
    </g>
    <g
       class="relationship"
       transform="translate(219.6251319898281 101.52382807180422) rotate(420.66131289854684)"
       id="g30132">
      <path
         class="outline"
         fill="#A5ABB6"
         stroke="none"
         d="M 10 0.5 L 47.629883995125155 0.5 L 47.629883995125155 -0.5 L 10 -0.5 Z M 92.62988399512516 0.5 L 130.2597679902503 0.5 L 130.2597679902503 3.5 L 137.2597679902503 0 L 130.2597679902503 -3.5 L 130.2597679902503 -0.5 L 92.62988399512516 -0.5 Z"
         id="path30134" />
      <text
         text-anchor="middle"
         pointer-events="none"
         font-size="8px"
         fill="#000000"
         x="70.12988399512516"
         y="3"
         font-family="sans-serif"
         id="text30136">appliesTo</text>
    </g>
    <g
       class="relationship"
       transform="translate(219.6251319898281 101.52382807180422) rotate(499.77912017925325)"
       id="g30138">
      <path
         class="outline"
         fill="#A5ABB6"
         stroke="none"
         d="M 10 0.5 L 76.81985392488903 0.5 L 76.81985392488903 -0.5 L 10 -0.5 Z M 121.81985392488903 0.5 L 188.63970784977806 0.5 L 188.63970784977806 3.5 L 195.63970784977806 0 L 188.63970784977806 -3.5 L 188.63970784977806 -0.5 L 121.81985392488903 -0.5 Z"
         id="path30140" />
      <text
         text-anchor="middle"
         pointer-events="none"
         font-size="8px"
         fill="#000000"
         x="99.31985392488903"
         y="3"
         transform="rotate(180 99.31985392488903 0)"
         font-family="sans-serif"
         id="text30142">appliesTo</text>
    </g>
    <g
       class="relationship"
       transform="translate(219.6251319898281 101.52382807180422) rotate(448.1714486376849)"
       id="g30144">
      <path
         class="outline"
         fill="#A5ABB6"
         stroke="none"
         d="M 10 0.5 L 47.08615395729612 0.5 L 47.08615395729612 -0.5 L 10 -0.5 Z M 72.08615395729612 0.5 L 109.17230791459224 0.5 L 109.17230791459224 3.5 L 116.17230791459224 0 L 109.17230791459224 -3.5 L 109.17230791459224 -0.5 L 72.08615395729612 -0.5 Z"
         id="path30146" />
      <text
         text-anchor="middle"
         pointer-events="none"
         font-size="8px"
         fill="#000000"
         x="59.58615395729612"
         y="3"
         font-family="sans-serif"
         id="text30148">type</text>
    </g>
    <g
       class="relationship"
       transform="translate(86.95748227825337 -52.68224869590833) rotate(422.6322235235797)"
       id="g30150">
      <path
         class="outline"
         fill="#A5ABB6"
         stroke="none"
         d="M 25 0.5 L 47.46740487355474 0.5 L 47.46740487355474 -0.5 L 25 -0.5 Z M 126.46740487355474 0.5 L 148.93480974710948 0.5 L 148.93480974710948 3.5 L 155.93480974710948 0 L 148.93480974710948 -3.5 L 148.93480974710948 -0.5 L 126.46740487355474 -0.5 Z"
         id="path30152" />
      <text
         text-anchor="middle"
         pointer-events="none"
         font-size="8px"
         fill="#000000"
         x="86.96740487355474"
         y="3"
         font-family="sans-serif"
         id="text30154">HAS_DIFF_ENTRY</text>
    </g>
    <g
       class="relationship"
       transform="translate(163.23778049582108 94.68015217231977) rotate(375.6642955155242)"
       id="g30156">
      <path
         class="outline"
         fill="#A5ABB6"
         stroke="none"
         d="M 10 0.5 L 82.15028338133402 0.5 L 82.15028338133402 -0.5 L 10 -0.5 Z M 160.15028338133402 0.5 L 232.30056676266804 0.5 L 232.30056676266804 3.5 L 239.30056676266804 0 L 232.30056676266804 -3.5 L 232.30056676266804 -0.5 L 160.15028338133402 -0.5 Z"
         id="path30158" />
      <text
         text-anchor="middle"
         pointer-events="none"
         font-size="8px"
         fill="#000000"
         x="121.15028338133402"
         y="3"
         font-family="sans-serif"
         id="text30160">IS_DESTINATION</text>
    </g>
    <g
       class="relationship"
       transform="translate(163.23778049582108 94.68015217231977) rotate(505.48931342164747)"
       id="g30162">
      <path
         class="outline"
         fill="#A5ABB6"
         stroke="none"
         d="M 10 0.5 L 100.50244099103412 0.5 L 100.50244099103412 -0.5 L 10 -0.5 Z M 135.50244099103412 0.5 L 226.00488198206824 0.5 L 226.00488198206824 3.5 L 233.00488198206824 0 L 226.00488198206824 -3.5 L 226.00488198206824 -0.5 L 135.50244099103412 -0.5 Z"
         id="path30164" />
      <text
         text-anchor="middle"
         pointer-events="none"
         font-size="8px"
         fill="#000000"
         x="118.00244099103412"
         y="3"
         transform="rotate(180 118.00244099103412 0)"
         font-family="sans-serif"
         id="text30166">affects</text>
    </g>
    <g
       class="relationship"
       transform="translate(163.23778049582108 94.68015217231977) rotate(427.6285291657872)"
       id="g30168">
      <path
         class="outline"
         fill="#A5ABB6"
         stroke="none"
         d="M 10 0.5 L 56.49264128096132 0.5 L 56.49264128096132 -0.5 L 10 -0.5 Z M 81.49264128096132 0.5 L 127.98528256192265 0.5 L 127.98528256192265 3.5 L 134.98528256192265 0 L 127.98528256192265 -3.5 L 127.98528256192265 -0.5 L 81.49264128096132 -0.5 Z"
         id="path30170" />
      <text
         text-anchor="middle"
         pointer-events="none"
         font-size="8px"
         fill="#000000"
         x="68.99264128096132"
         y="3"
         font-family="sans-serif"
         id="text30172">type</text>
    </g>
    <g
       class="relationship"
       transform="translate(163.23778049582108 94.68015217231977) rotate(455.4699466778038)"
       id="g30174">
      <path
         class="outline"
         fill="#A5ABB6"
         stroke="none"
         d="M 10 0.5 L 40.780808637049404 0.5 L 40.780808637049404 -0.5 L 10 -0.5 Z M 85.7808086370494 0.5 L 116.56161727409881 0.5 L 116.56161727409881 3.5 L 123.56161727409881 0 L 116.56161727409881 -3.5 L 116.56161727409881 -0.5 L 85.7808086370494 -0.5 Z"
         id="path30176" />
      <text
         text-anchor="middle"
         pointer-events="none"
         font-size="8px"
         fill="#000000"
         x="63.280808637049404"
         y="3"
         transform="rotate(180 63.280808637049404 0)"
         font-family="sans-serif"
         id="text30178">appliesTo</text>
    </g>
    <g
       class="relationship"
       transform="translate(30.46184088120019 23.122526104834833) rotate(444.64820826294874)"
       id="g30180">
      <path
         class="outline"
         fill="#A5ABB6"
         stroke="none"
         d="M 10 0.5 L 77.42168135458363 0.5 L 77.42168135458363 -0.5 L 10 -0.5 Z M 122.42168135458363 0.5 L 189.84336270916725 0.5 L 189.84336270916725 3.5 L 196.84336270916725 0 L 189.84336270916725 -3.5 L 189.84336270916725 -0.5 L 122.42168135458363 -0.5 Z"
         id="path30182" />
      <text
         text-anchor="middle"
         pointer-events="none"
         font-size="8px"
         fill="#000000"
         x="99.92168135458363"
         y="3"
         font-family="sans-serif"
         id="text30184">appliesTo</text>
    </g>
    <g
       class="relationship"
       transform="translate(86.95748227825337 -52.68224869590833) rotate(486.69635746990605)"
       id="g30186">
      <path
         class="outline"
         fill="#A5ABB6"
         stroke="none"
         d="M 25 0.5 L 25.270819168530956 0.5 L 25.270819168530956 -0.5 L 25 -0.5 Z M 77.27081916853095 0.5 L 77.54163833706191 0.5 L 77.54163833706191 3.5 L 84.54163833706191 0 L 77.54163833706191 -3.5 L 77.54163833706191 -0.5 L 77.27081916853095 -0.5 Z"
         id="path30188" />
      <text
         text-anchor="middle"
         pointer-events="none"
         font-size="8px"
         fill="#000000"
         x="51.270819168530956"
         y="3"
         transform="rotate(180 51.270819168530956 0)"
         font-family="sans-serif"
         id="text30190">HAS_DIF…</text>
    </g>
    <g
       class="relationship"
       transform="translate(30.46184088120019 23.122526104834833) rotate(470.1339836416238)"
       id="g30192">
      <path
         class="outline"
         fill="#A5ABB6"
         stroke="none"
         d="M 10 0.5 L 87.45224026786762 0.5 L 87.45224026786762 -0.5 L 10 -0.5 Z M 122.45224026786762 0.5 L 199.90448053573525 0.5 L 199.90448053573525 3.5 L 206.90448053573525 0 L 199.90448053573525 -3.5 L 199.90448053573525 -0.5 L 122.45224026786762 -0.5 Z"
         id="path30194" />
      <text
         text-anchor="middle"
         pointer-events="none"
         font-size="8px"
         fill="#000000"
         x="104.95224026786762"
         y="3"
         transform="rotate(180 104.95224026786762 0)"
         font-family="sans-serif"
         id="text30196">affects</text>
    </g>
    <g
       class="relationship"
       transform="translate(30.46184088120019 23.122526104834833) rotate(486.9094509258488)"
       id="g30198">
      <path
         class="outline"
         fill="#A5ABB6"
         stroke="none"
         d="M 10 0.5 L 110.36650081809847 0.5 L 110.36650081809847 -0.5 L 10 -0.5 Z M 135.36650081809847 0.5 L 235.73300163619695 0.5 L 235.73300163619695 3.5 L 242.73300163619695 0 L 235.73300163619695 -3.5 L 235.73300163619695 -0.5 L 135.36650081809847 -0.5 Z"
         id="path30200" />
      <text
         text-anchor="middle"
         pointer-events="none"
         font-size="8px"
         fill="#000000"
         x="122.86650081809847"
         y="3"
         transform="rotate(180 122.86650081809847 0)"
         font-family="sans-serif"
         id="text30202">type</text>
    </g>
    <g
       class="relationship"
       transform="translate(30.46184088120019 23.122526104834833) rotate(523.479494409849)"
       id="g30204">
      <path
         class="outline"
         fill="#A5ABB6"
         stroke="none"
         d="M 10 0.5 L 105.97565582722913 0.5 L 105.97565582722913 -0.5 L 10 -0.5 Z M 161.97565582722913 0.5 L 257.95131165445827 0.5 L 257.95131165445827 3.5 L 264.95131165445827 0 L 257.95131165445827 -3.5 L 257.95131165445827 -0.5 L 161.97565582722913 -0.5 Z"
         id="path30206" />
      <text
         text-anchor="middle"
         pointer-events="none"
         font-size="8px"
         fill="#000000"
         x="133.97565582722913"
         y="3"
         transform="rotate(180 133.97565582722913 0)"
         font-family="sans-serif"
         id="text30208">IS_SOURCE</text>
    </g>
    <g
       class="relationship"
       transform="translate(30.46184088120019 23.122526104834833) rotate(345.7591335303373)"
       id="g30210">
      <path
         class="outline"
         fill="#A5ABB6"
         stroke="none"
         d="M 10 0.5 L 87.71749913105054 0.5 L 87.71749913105054 -0.5 L 10 -0.5 Z M 165.71749913105054 0.5 L 243.4349982621011 0.5 L 243.4349982621011 3.5 L 250.4349982621011 0 L 243.4349982621011 -3.5 L 243.4349982621011 -0.5 L 165.71749913105054 -0.5 Z"
         id="path30212" />
      <text
         text-anchor="middle"
         pointer-events="none"
         font-size="8px"
         fill="#000000"
         x="126.71749913105054"
         y="3"
         font-family="sans-serif"
         id="text30214">IS_DESTINATION</text>
    </g>
    <g
       class="relationship"
       transform="translate(86.95748227825337 -52.68224869590833) rotate(413.2414992379868)"
       id="g30216">
      <path
         class="outline"
         fill="#A5ABB6"
         stroke="none"
         d="M 25 0.5 L 83.66882438687284 0.5 L 83.66882438687284 -0.5 L 25 -0.5 Z M 162.66882438687284 0.5 L 221.33764877374568 0.5 L 221.33764877374568 3.5 L 228.33764877374568 0 L 221.33764877374568 -3.5 L 221.33764877374568 -0.5 L 162.66882438687284 -0.5 Z"
         id="path30218" />
      <text
         text-anchor="middle"
         pointer-events="none"
         font-size="8px"
         fill="#000000"
         x="123.16882438687284"
         y="3"
         font-family="sans-serif"
         id="text30220">HAS_DIFF_ENTRY</text>
    </g>
    <g
       class="relationship"
       transform="translate(229.58909256595226 138.26554147128724) rotate(393.7825605526991)"
       id="g30222">
      <path
         class="outline"
         fill="#A5ABB6"
         stroke="none"
         d="M 10 0.5 L 59.35613918570954 0.5 L 59.35613918570954 -0.5 L 10 -0.5 Z M 104.35613918570954 0.5 L 153.71227837141907 0.5 L 153.71227837141907 3.5 L 160.71227837141907 0 L 153.71227837141907 -3.5 L 153.71227837141907 -0.5 L 104.35613918570954 -0.5 Z"
         id="path30224" />
      <text
         text-anchor="middle"
         pointer-events="none"
         font-size="8px"
         fill="#000000"
         x="81.85613918570954"
         y="3"
         font-family="sans-serif"
         id="text30226">appliesTo</text>
    </g>
    <g
       class="relationship"
       transform="translate(229.58909256595226 138.26554147128724) rotate(452.99458500642476)"
       id="g30228">
      <path
         class="outline"
         fill="#A5ABB6"
         stroke="none"
         d="M 10 0.5 L 28.750703206123255 0.5 L 28.750703206123255 -0.5 L 10 -0.5 Z M 53.750703206123255 0.5 L 72.50140641224651 0.5 L 72.50140641224651 3.5 L 79.50140641224651 0 L 72.50140641224651 -3.5 L 72.50140641224651 -0.5 L 53.750703206123255 -0.5 Z"
         id="path30230" />
      <text
         text-anchor="middle"
         pointer-events="none"
         font-size="8px"
         fill="#000000"
         x="41.250703206123255"
         y="3"
         transform="rotate(180 41.250703206123255 0)"
         font-family="sans-serif"
         id="text30232">type</text>
    </g>
    <g
       class="relationship"
       transform="translate(229.58909256595226 138.26554147128724) rotate(509.3508618040089)"
       id="g30234">
      <path
         class="outline"
         fill="#A5ABB6"
         stroke="none"
         d="M 10 0.5 L 70.20493801064035 0.5 L 70.20493801064035 -0.5 L 10 -0.5 Z M 115.20493801064035 0.5 L 175.4098760212807 0.5 L 175.4098760212807 3.5 L 182.4098760212807 0 L 175.4098760212807 -3.5 L 175.4098760212807 -0.5 L 115.20493801064035 -0.5 Z"
         id="path30236" />
      <text
         text-anchor="middle"
         pointer-events="none"
         font-size="8px"
         fill="#000000"
         x="92.70493801064035"
         y="3"
         transform="rotate(180 92.70493801064035 0)"
         font-family="sans-serif"
         id="text30238">appliesTo</text>
    </g>
    <g
       class="relationship"
       transform="translate(229.58909256595226 138.26554147128724) rotate(213.3004365722203)"
       id="g30240">
      <path
         class="outline"
         fill="#A5ABB6"
         stroke="none"
         d="M 10 0.5 L 11.19314416171413 0.5 L 11.19314416171413 -0.5 L 10 -0.5 Z M 61.19314416171413 0.5 L 62.38628832342826 0.5 L 62.38628832342826 3.5 L 69.38628832342826 0 L 62.38628832342826 -3.5 L 62.38628832342826 -0.5 L 61.19314416171413 -0.5 Z"
         id="path30242" />
      <text
         text-anchor="middle"
         pointer-events="none"
         font-size="8px"
         fill="#000000"
         x="36.19314416171413"
         y="3"
         transform="rotate(180 36.19314416171413 0)"
         font-family="sans-serif"
         id="text30244">DIFF_TR…</text>
    </g>
    <g
       class="relationship"
       transform="translate(229.58909256595226 138.26554147128724) rotate(368.3984500982565)"
       id="g30246">
      <path
         class="outline"
         fill="#A5ABB6"
         stroke="none"
         d="M 10 0.5 L 45.08626865956175 0.5 L 45.08626865956175 -0.5 L 10 -0.5 Z M 123.08626865956175 0.5 L 158.1725373191235 0.5 L 158.1725373191235 3.5 L 165.1725373191235 0 L 158.1725373191235 -3.5 L 158.1725373191235 -0.5 L 123.08626865956175 -0.5 Z"
         id="path30248" />
      <text
         text-anchor="middle"
         pointer-events="none"
         font-size="8px"
         fill="#000000"
         x="84.08626865956175"
         y="3"
         font-family="sans-serif"
         id="text30250">IS_DESTINATION</text>
    </g>
    <g
       class="relationship"
       transform="translate(-317.48287437202066 -67.1845266950315) rotate(268.76462111226294)"
       id="g30252">
      <path
         class="outline"
         fill="#A5ABB6"
         stroke="none"
         d="M 24.018736134675446,-6.953439040707552 L 24.277555179777966,-5.987513214418485 A 149.98728203381845 149.98728203381845 0 0 1 29.00829011674081,-7.173021735595626 L 28.78101197879264,-8.146851622183021 A 150.98728203381845 150.98728203381845 0 0 0 24.018736134675446,-6.953439040707552 Z M 93.4854649895701,-9.00855010666578 L 93.28420072222956,-8.029013126918784 A 149.98728203381845 149.98728203381845 0 0 1 98.04482822996275,-6.969905374988667 L 97.34581480436864,-4.052478386898098 L 104.96866010643976,-5.825111879950854 L 98.9768461307549,-10.85980802577609 L 98.27783270516079,-7.9423810376855215 A 150.98728203381845 150.98728203381845 0 0 0 93.4854649895701,-9.00855010666578"
         id="path30254" />
      <text
         text-anchor="middle"
         pointer-events="none"
         font-size="8px"
         fill="#000000"
         x="61.093190746513486"
         y="-8.584862890101391"
         transform="rotate(180 61.093190746513486 -11.584862890101391)"
         font-family="sans-serif"
         id="text30256">BELONGS_TO</text>
    </g>
    <g
       class="relationship"
       transform="translate(-317.48287437202066 -67.1845266950315) rotate(400.0158636497123)"
       id="g30258">
      <path
         class="outline"
         fill="#A5ABB6"
         stroke="none"
         d="M 25 0.5 L 34.96744076093324 0.5 L 34.96744076093324 -0.5 L 25 -0.5 Z M 106.96744076093324 0.5 L 116.93488152186649 0.5 L 116.93488152186649 3.5 L 123.93488152186649 0 L 116.93488152186649 -3.5 L 116.93488152186649 -0.5 L 106.96744076093324 -0.5 Z"
         id="path30260" />
      <text
         text-anchor="middle"
         pointer-events="none"
         font-size="8px"
         fill="#000000"
         x="70.96744076093324"
         y="3"
         font-family="sans-serif"
         id="text30262">HAS_REACTION</text>
    </g>
    <g
       class="relationship"
       transform="translate(-317.48287437202066 -67.1845266950315) rotate(427.95304598489736)"
       id="g30264">
      <path
         class="outline"
         fill="#A5ABB6"
         stroke="none"
         d="M 25 0.5 L 57.193190723027215 0.5 L 57.193190723027215 -0.5 L 25 -0.5 Z M 122.19319072302721 0.5 L 154.38638144605443 0.5 L 154.38638144605443 3.5 L 161.38638144605443 0 L 154.38638144605443 -3.5 L 154.38638144605443 -0.5 L 122.19319072302721 -0.5 Z"
         id="path30266" />
      <text
         text-anchor="middle"
         pointer-events="none"
         font-size="8px"
         fill="#000000"
         x="89.69319072302721"
         y="3"
         font-family="sans-serif"
         id="text30268">HAS_SPECIES</text>
    </g>
    <g
       class="relationship"
       transform="translate(-317.48287437202066 -67.1845266950315) rotate(370.0106526981097)"
       id="g30270">
      <path
         class="outline"
         fill="#A5ABB6"
         stroke="none"
         d="M 25 0.5 L 52.979970476623365 0.5 L 52.979970476623365 -0.5 L 25 -0.5 Z M 117.97997047662336 0.5 L 145.95994095324673 0.5 L 145.95994095324673 3.5 L 152.95994095324673 0 L 145.95994095324673 -3.5 L 145.95994095324673 -0.5 L 117.97997047662336 -0.5 Z"
         id="path30272" />
      <text
         text-anchor="middle"
         pointer-events="none"
         font-size="8px"
         fill="#000000"
         x="85.47997047662336"
         y="3"
         font-family="sans-serif"
         id="text30274">HAS_SPECIES</text>
    </g>
    <g
       class="relationship"
       transform="translate(483.52439962867237 -77.01061572772394) rotate(444.66096840253016)"
       id="g30276">
      <path
         class="outline"
         fill="#A5ABB6"
         stroke="none"
         d="M 25 0.5 L 34.72416568259763 0.5 L 34.72416568259763 -0.5 L 25 -0.5 Z M 126.72416568259763 0.5 L 136.44833136519526 0.5 L 136.44833136519526 3.5 L 143.44833136519526 0 L 136.44833136519526 -3.5 L 136.44833136519526 -0.5 L 126.72416568259763 -0.5 Z"
         id="path30278" />
      <text
         text-anchor="middle"
         pointer-events="none"
         font-size="8px"
         fill="#000000"
         x="80.72416568259763"
         y="3"
         font-family="sans-serif"
         id="text30280">HAS_COMPARTMENT</text>
    </g>
    <g
       class="relationship"
       transform="translate(483.52439962867237 -77.01061572772394) rotate(261.1311722050922)"
       id="g30282">
      <path
         class="outline"
         fill="#A5ABB6"
         stroke="none"
         d="M 24.018736134675446,-6.953439040707552 L 24.277555179777966,-5.987513214418485 A 177.290491370185 177.290491370185 0 0 1 35.83040380803422,-8.672353560430878 L 35.63674814839569,-9.653423122434475 A 178.290491370185 178.290491370185 0 0 0 24.018736134675446,-6.953439040707552 Z M 100.45239753293907,-10.43692411910655 L 100.28251361799667,-9.451460037851518 A 177.290491370185 177.290491370185 0 0 1 111.89688645750351,-7.04666843442638 L 111.1907034816484,-4.130968586257433 L 118.81788326587356,-5.884858132125936 L 112.83846375864366,-10.934268231984975 L 112.13228078278854,-8.018568383816028 A 178.290491370185 178.290491370185 0 0 0 100.45239753293907,-10.43692411910655"
         id="path30284" />
      <text
         text-anchor="middle"
         pointer-events="none"
         font-size="8px"
         fill="#000000"
         x="68.01471054782564"
         y="-9.515551974940223"
         transform="rotate(180 68.01471054782564 -12.515551974940223)"
         font-family="sans-serif"
         id="text30286">BELONGS_TO</text>
    </g>
    <g
       class="relationship"
       transform="translate(483.52439962867237 -77.01061572772394) rotate(500.2760671530713)"
       id="g30288">
      <path
         class="outline"
         fill="#A5ABB6"
         stroke="none"
         d="M 25 0.5 L 70.23089875099062 0.5 L 70.23089875099062 -0.5 L 25 -0.5 Z M 135.2308987509906 0.5 L 180.46179750198124 0.5 L 180.46179750198124 3.5 L 187.46179750198124 0 L 180.46179750198124 -3.5 L 180.46179750198124 -0.5 L 135.2308987509906 -0.5 Z"
         id="path30290" />
      <text
         text-anchor="middle"
         pointer-events="none"
         font-size="8px"
         fill="#000000"
         x="102.73089875099062"
         y="3"
         transform="rotate(180 102.73089875099062 0)"
         font-family="sans-serif"
         id="text30292">HAS_SPECIES</text>
    </g>
    <g
       class="relationship"
       transform="translate(483.52439962867237 -77.01061572772394) rotate(465.148693597278)"
       id="g30294">
      <path
         class="outline"
         fill="#A5ABB6"
         stroke="none"
         d="M 25 0.5 L 89.90097094178134 0.5 L 89.90097094178134 -0.5 L 25 -0.5 Z M 154.90097094178134 0.5 L 219.80194188356268 0.5 L 219.80194188356268 3.5 L 226.80194188356268 0 L 219.80194188356268 -3.5 L 219.80194188356268 -0.5 L 154.90097094178134 -0.5 Z"
         id="path30296" />
      <text
         text-anchor="middle"
         pointer-events="none"
         font-size="8px"
         fill="#000000"
         x="122.40097094178134"
         y="3"
         transform="rotate(180 122.40097094178134 0)"
         font-family="sans-serif"
         id="text30298">HAS_SPECIES</text>
    </g>
    <g
       class="relationship"
       transform="translate(483.52439962867237 -77.01061572772394) rotate(482.9230271001985)"
       id="g30300">
      <path
         class="outline"
         fill="#A5ABB6"
         stroke="none"
         d="M 25 0.5 L 26.88779180210085 0.5 L 26.88779180210085 -0.5 L 25 -0.5 Z M 79.88779180210085 0.5 L 81.7755836042017 0.5 L 81.7755836042017 3.5 L 88.7755836042017 0 L 81.7755836042017 -3.5 L 81.7755836042017 -0.5 L 79.88779180210085 -0.5 Z"
         id="path30302" />
      <text
         text-anchor="middle"
         pointer-events="none"
         font-size="8px"
         fill="#000000"
         x="53.38779180210085"
         y="3"
         transform="rotate(180 53.38779180210085 0)"
         font-family="sans-serif"
         id="text30304">HAS_REA…</text>
    </g>
    <g
       class="relationship"
       transform="translate(-247.51970861086403 105.57263994424581) rotate(299.80407899166653)"
       id="g30306">
      <path
         class="outline"
         fill="#A5ABB6"
         stroke="none"
         d="M 24.018736134675446,-6.953439040707552 L 24.277555179777966,-5.987513214418485 A 68.92104760870644 68.92104760870644 0 0 1 27.032060959149412,-6.665146888149863 L 26.81320801837847,-7.64090474249484 A 69.92104760870644 69.92104760870644 0 0 0 24.018736134675446,-6.953439040707552 Z M 54.81906389891594,-8.172262345568512 L 54.63738142383808,-7.188905097031849 A 68.92104760870644 68.92104760870644 0 0 1 57.41560914856625,-6.616244469856321 L 56.74963083990348,-3.6910995345769297 L 64.35194371566196,-5.549819238856422 L 58.303580226783275,-10.51643771689551 L 57.63760191812051,-7.591292781616119 A 69.92104760870644 69.92104760870644 0 0 0 54.81906389891594,-8.172262345568512"
         id="path30308" />
      <text
         text-anchor="middle"
         pointer-events="none"
         font-size="8px"
         fill="#000000"
         x="40.79874018270854"
         y="-5.823449306467694"
         font-family="sans-serif"
         id="text30310">IS_…</text>
    </g>
    <g
       class="relationship"
       transform="translate(-203.4186463808985 28.580554763304406) rotate(479.80407899166653)"
       id="g30312">
      <path
         class="outline"
         fill="#A5ABB6"
         stroke="none"
         d="M 24.018736134675446,-6.953439040707552 L 24.277555179777966,-5.987513214418485 A 68.92104760870644 68.92104760870644 0 0 1 24.620539005416376,-6.078469786940914 L 24.366696434664416,-7.045715334500599 A 69.92104760870644 69.92104760870644 0 0 0 24.018736134675446,-6.953439040707552 Z M 57.286391771476275,-7.670303652125995 L 57.0694219550764,-6.69412533912606 A 68.92104760870644 68.92104760870644 0 0 1 57.41560914856625,-6.616244469856321 L 56.74963083990348,-3.6910995345769297 L 64.35194371566196,-5.549819238856422 L 58.303580226783275,-10.51643771689551 L 57.63760191812051,-7.591292781616119 A 69.92104760870644 69.92104760870644 0 0 0 57.286391771476275,-7.670303652125995"
         id="path30314" />
      <text
         text-anchor="middle"
         pointer-events="none"
         font-size="8px"
         fill="#000000"
         x="40.79874018270854"
         y="-5.823449306467694"
         transform="rotate(180 40.79874018270854 -8.823449306467694)"
         font-family="sans-serif"
         id="text30316">HAS…</text>
    </g>
    <g
       class="relationship"
       transform="translate(-142.2322933464759 -36.249523312260905) rotate(493.3437722165241)"
       id="g30318">
      <path
         class="outline"
         fill="#A5ABB6"
         stroke="none"
         d="M 24.018736134675446,-6.953439040707552 L 24.277555179777966,-5.987513214418485 A 69.76556891344018 69.76556891344018 0 0 1 24.343038990744706,-6.005025456685345 L 24.085158572130677,-6.971202298518904 A 70.76556891344018 70.76556891344018 0 0 0 24.018736134675446,-6.953439040707552 Z M 57.987969003757115,-7.611652137091156 L 57.766763180966144,-6.636424992286734 A 69.76556891344018 69.76556891344018 0 0 1 57.8328616744814,-6.621398439689606 L 57.166401894583856,-3.696363164384551 L 64.76902061350945,-5.553831499146183 L 58.721474714344794,-10.52144547342968 L 58.05501493444725,-7.596410198124624 A 70.76556891344018 70.76556891344018 0 0 0 57.987969003757115,-7.611652137091156"
         id="path30320" />
      <text
         text-anchor="middle"
         pointer-events="none"
         font-size="8px"
         fill="#000000"
         x="41.00707992260036"
         y="-5.852183169842817"
         transform="rotate(180 41.00707992260036 -8.852183169842817)"
         font-family="sans-serif"
         id="text30322">IS_P…</text>
    </g>
    <g
       class="relationship"
       transform="translate(-203.4186463808985 28.580554763304406) rotate(313.3437722165241)"
       id="g30324">
      <path
         class="outline"
         fill="#A5ABB6"
         stroke="none"
         d="M 24.018736134675446,-6.953439040707552 L 24.277555179777966,-5.987513214418485 A 69.76556891344018 69.76556891344018 0 0 1 24.823141267761642,-6.1313405079662004 L 24.57214249986005,-7.099327914140417 A 70.76556891344018 70.76556891344018 0 0 0 24.018736134675446,-6.953439040707552 Z M 57.49649346946557,-7.721293910325485 L 57.282232769024894,-6.744517399425135 A 69.76556891344018 69.76556891344018 0 0 1 57.8328616744814,-6.621398439689606 L 57.166401894583856,-3.696363164384551 L 64.76902061350945,-5.553831499146183 L 58.721474714344794,-10.52144547342968 L 58.05501493444725,-7.596410198124624 A 70.76556891344018 70.76556891344018 0 0 0 57.49649346946557,-7.721293910325485"
         id="path30326" />
      <text
         text-anchor="middle"
         pointer-events="none"
         font-size="8px"
         fill="#000000"
         x="41.00707992260036"
         y="-5.852183169842817"
         font-family="sans-serif"
         id="text30328">HAS…</text>
    </g>
    <g
       class="relationship"
       transform="translate(421.68602190172214 18.492779314419536) rotate(206.93286787310353)"
       id="g30330">
      <path
         class="outline"
         fill="#A5ABB6"
         stroke="none"
         d="M 24.018736134675446,6.953439040707552 L 24.277555179777966,5.987513214418485 A 169.9094189102271 169.9094189102271 0 0 0 31.054838783647618,7.6550761483159135 L 30.835907366007646,8.630816397752284 A 170.9094189102271 170.9094189102271 0 0 1 24.018736134675446,6.953439040707552 Z M 101.52486347453478,9.507218227428211 L 101.3301900916947,8.526350104787042 A 169.9094189102271 169.9094189102271 0 0 0 108.14673307993571,7.027323462178634 L 107.44235686701428,4.111186608279203 L 115.06844844118795,5.8698017743452136 L 109.08590136383096,10.915505934044543 L 108.38152515090952,7.999369080145112 A 170.9094189102271 170.9094189102271 0 0 1 101.52486347453478,9.507218227428211"
         id="path30332" />
      <text
         text-anchor="middle"
         pointer-events="none"
         font-size="8px"
         fill="#000000"
         x="66.14077475047058"
         y="15.263940924287027"
         transform="rotate(180 66.14077475047058 12.263940924287027)"
         font-family="sans-serif"
         id="text30334">HAS_REACTANT</text>
    </g>
    <g
       class="relationship"
       transform="translate(297.43275930739514 -44.6341487126147) rotate(386.93286787310353)"
       id="g30336">
      <path
         class="outline"
         fill="#A5ABB6"
         stroke="none"
         d="M 24.018736134675446,6.953439040707552 L 24.277555179777966,5.987513214418485 A 169.9094189102271 169.9094189102271 0 0 0 35.44524697951426,8.579461850119941 L 35.25215526060333,9.560642561349027 A 170.9094189102271 170.9094189102271 0 0 1 24.018736134675446,6.953439040707552 Z M 97.0869205881056,10.327270114702685 L 96.91821384253294,9.341603825333777 A 169.9094189102271 169.9094189102271 0 0 0 108.14673307993571,7.027323462178634 L 107.44235686701428,4.111186608279203 L 115.06844844118795,5.8698017743452136 L 109.08590136383096,10.915505934044543 L 108.38152515090952,7.999369080145112 A 170.9094189102271 170.9094189102271 0 0 1 97.0869205881056,10.327270114702685"
         id="path30338" />
      <text
         text-anchor="middle"
         pointer-events="none"
         font-size="8px"
         fill="#000000"
         x="66.14077475047058"
         y="15.263940924287027"
         font-family="sans-serif"
         id="text30340">IS_REACTANT</text>
    </g>
    <g
       class="relationship"
       transform="translate(421.68602190172214 18.492779314419536) rotate(518.3692534112057)"
       id="g30342">
      <path
         class="outline"
         fill="#A5ABB6"
         stroke="none"
         d="M 24.018736134675446,6.953439040707552 L 24.277555179777966,5.987513214418485 A 110.23338806821425 110.23338806821425 0 0 0 26.941057603810645,6.665723176116828 L 26.70640095152494,7.637801493711692 A 111.23338806821425 111.23338806821425 0 0 1 24.018736134675446,6.953439040707552 Z M 75.52110045434613,8.400016842007773 L 75.31690776156931,7.421086127290664 A 110.23338806821425 110.23338806821425 0 0 0 78.00028632418434,6.826364844106057 L 77.31468013859057,3.905758030740801 L 84.92930325296891,5.713384879948125 L 78.91442790497604,10.720507261926398 L 78.22882171938227,7.799900448561142 A 111.23338806821425 111.23338806821425 0 0 1 75.52110045434613,8.400016842007773"
         id="path30344" />
      <text
         text-anchor="middle"
         pointer-events="none"
         font-size="8px"
         fill="#000000"
         x="51.07922370290686"
         y="13.230128260864902"
         transform="rotate(180 51.07922370290686 10.230128260864902)"
         font-family="sans-serif"
         id="text30346">HAS_PR…</text>
    </g>
    <g
       class="relationship"
       transform="translate(320.11309000946926 58.771412855994775) rotate(338.3692534112057)"
       id="g30348">
      <path
         class="outline"
         fill="#A5ABB6"
         stroke="none"
         d="M 24.018736134675446,6.953439040707552 L 24.277555179777966,5.987513214418485 A 110.23338806821425 110.23338806821425 0 0 0 24.528632554894056,6.0544721156657175 L 24.272091198788637,7.021005370451917 A 111.23338806821425 111.23338806821425 0 0 1 24.018736134675446,6.953439040707552 Z M 77.97348065722905,7.859523761160915 L 77.74724080536203,6.885452136778397 A 110.23338806821425 110.23338806821425 0 0 0 78.00028632418434,6.826364844106057 L 77.31468013859057,3.905758030740801 L 84.92930325296891,5.713384879948125 L 78.91442790497604,10.720507261926398 L 78.22882171938227,7.799900448561142 A 111.23338806821425 111.23338806821425 0 0 1 77.97348065722905,7.859523761160915"
         id="path30350" />
      <text
         text-anchor="middle"
         pointer-events="none"
         font-size="8px"
         fill="#000000"
         x="51.07922370290686"
         y="13.230128260864902"
         font-family="sans-serif"
         id="text30352">IS_PROD…</text>
    </g>
    <g
       class="relationship"
       transform="translate(421.68602190172214 18.492779314419536) rotate(451.5388241910621)"
       id="g30354">
      <path
         class="outline"
         fill="#A5ABB6"
         stroke="none"
         d="M 24.018736134675446,6.953439040707552 L 24.277555179777966,5.987513214418485 A 186.1214594267001 186.1214594267001 0 0 0 34.626696073532344,8.445871043642171 L 34.423481260879065,9.425005222352269 A 187.1214594267001 187.1214594267001 0 0 1 24.018736134675446,6.953439040707552 Z M 106.16453717391741,10.267016283153964 L 105.98435899608825,9.283382294195604 A 186.1214594267001 186.1214594267001 0 0 0 116.38834764249464,7.06859997967086 L 115.68011634778814,4.153396996481115 L 123.30852648572179,5.90192745588736 L 117.33265603543661,10.955537290590518 L 116.62442474073012,8.040334307400775 A 187.1214594267001 187.1214594267001 0 0 1 106.16453717391741,10.267016283153964"
         id="path30356" />
      <text
         text-anchor="middle"
         pointer-events="none"
         font-size="8px"
         fill="#000000"
         x="70.25914402991336"
         y="15.816595678786229"
         transform="rotate(180 70.25914402991336 12.816595678786229)"
         font-family="sans-serif"
         id="text30358">HAS_PRODUCT</text>
    </g>
    <g
       class="relationship"
       transform="translate(417.72227365649746 166.04143251272) rotate(271.5388241910621)"
       id="g30360">
      <path
         class="outline"
         fill="#A5ABB6"
         stroke="none"
         d="M 24.018736134675446,6.953439040707552 L 24.277555179777966,5.987513214418485 A 186.1214594267001 186.1214594267001 0 0 0 39.03156432095552,9.304822006456362 L 38.85201614116119,10.288571187463674 A 187.1214594267001 187.1214594267001 0 0 1 24.018736134675446,6.953439040707552 Z M 101.71695398536303,11.026404947055823 L 101.5605442368855,10.038712692058766 A 186.1214594267001 186.1214594267001 0 0 0 116.38834764249464,7.06859997967086 L 115.68011634778814,4.153396996481115 L 123.30852648572179,5.90192745588736 L 117.33265603543661,10.955537290590518 L 116.62442474073012,8.040334307400775 A 187.1214594267001 187.1214594267001 0 0 1 101.71695398536303,11.026404947055823"
         id="path30362" />
      <text
         text-anchor="middle"
         pointer-events="none"
         font-size="8px"
         fill="#000000"
         x="70.25914402991336"
         y="15.816595678786229"
         font-family="sans-serif"
         id="text30364">IS_PRODUCT</text>
    </g>
    <g
       class="relationship"
       transform="translate(-327.1802038922616 88.65922762456258) rotate(371.9869596909714)"
       id="g30366">
      <path
         class="outline"
         fill="#A5ABB6"
         stroke="none"
         d="M 24.018736134675446,-6.953439040707552 L 24.277555179777966,-5.987513214418485 A 54.056243181239346 54.056243181239346 0 0 1 26.84118543062646,-6.6078164445503305 L 26.62979162449686,-7.58521741586663 A 55.056243181239346 55.056243181239346 0 0 0 24.018736134675446,-6.953439040707552 Z M 47.687219635504114,-8.017773403998149 L 47.51614223048172,-7.032515812557818 A 54.056243181239346 54.056243181239346 0 0 1 50.10308333481097,-6.5180142254764055 L 49.44628170285022,-3.590795132847072 L 57.04272815627287,-5.473346933006219 L 50.97881884409197,-10.420973015648851 L 50.32201721213122,-7.493753923019518 A 55.056243181239346 55.056243181239346 0 0 0 47.687219635504114,-8.017773403998149"
         id="path30368" />
      <text
         text-anchor="middle"
         pointer-events="none"
         font-size="8px"
         fill="#000000"
         x="37.1478972047473"
         y="-5.317928327770531"
         font-family="sans-serif"
         id="text30370">C…</text>
    </g>
    <g
       class="relationship"
       transform="translate(-247.51970861086403 105.57263994424581) rotate(191.9869596909714)"
       id="g30372">
      <path
         class="outline"
         fill="#A5ABB6"
         stroke="none"
         d="M 24.018736134675446,-6.953439040707552 L 24.277555179777966,-5.987513214418485 A 54.056243181239346 54.056243181239346 0 0 1 25.393022508462764,-6.2737024748272106 L 25.154838773234534,-7.244922588021296 A 55.056243181239346 55.056243181239346 0 0 0 24.018736134675446,-6.953439040707552 Z M 49.174902853550776,-7.738336244609016 L 48.9768042946667,-6.758154138585823 A 54.056243181239346 54.056243181239346 0 0 1 50.10308333481097,-6.5180142254764055 L 49.44628170285022,-3.590795132847072 L 57.04272815627287,-5.473346933006219 L 50.97881884409197,-10.420973015648851 L 50.32201721213122,-7.493753923019518 A 55.056243181239346 55.056243181239346 0 0 0 49.174902853550776,-7.738336244609016"
         id="path30374" />
      <text
         text-anchor="middle"
         pointer-events="none"
         font-size="8px"
         fill="#000000"
         x="37.1478972047473"
         y="-5.317928327770531"
         transform="rotate(180 37.1478972047473 -8.317928327770531)"
         font-family="sans-serif"
         id="text30376">IS…</text>
    </g>
    <g
       class="relationship"
       transform="translate(-327.1802038922616 88.65922762456258) rotate(325.965986457096)"
       id="g30378">
      <path
         class="outline"
         fill="#A5ABB6"
         stroke="none"
         d="M 24.018736134675446,-6.953439040707552 L 24.277555179777966,-5.987513214418485 A 333.8895777909312 333.8895777909312 0 0 1 62.30361631403109,-13.839244249331102 L 62.15868540340057,-14.828686026872276 A 334.8895777909312 334.8895777909312 0 0 0 24.018736134675446,-6.953439040707552 Z M 154.00307340022727,-15.552347478782963 L 153.87375155983858,-14.56074480553201 A 333.8895777909312 333.8895777909312 0 0 1 192.01881475408376,-7.309182247185809 L 191.28811559522865,-4.399529563574164 L 198.9297875423201,-6.089159657125839 L 192.9930802992239,-11.188719158668 L 192.26238114036877,-8.279066475056357 A 334.8895777909312 334.8895777909312 0 0 0 154.00307340022727,-15.552347478782963"
         id="path30380" />
      <text
         text-anchor="middle"
         pointer-events="none"
         font-size="8px"
         fill="#000000"
         x="108.05989210573229"
         y="-14.854145386404866"
         font-family="sans-serif"
         id="text30382">CONTAINS_SPECIES</text>
    </g>
    <g
       class="relationship"
       transform="translate(-142.2322933464759 -36.249523312260905) rotate(505.965986457096)"
       id="g30384">
      <path
         class="outline"
         fill="#A5ABB6"
         stroke="none"
         d="M 24.018736134675446,-6.953439040707552 L 24.277555179777966,-5.987513214418485 A 333.8895777909312 333.8895777909312 0 0 1 72.20340376379184,-15.138455335327137 L 72.08812273775867,-16.131788252851152 A 334.8895777909312 334.8895777909312 0 0 0 24.018736134675446,-6.953439040707552 Z M 144.0543353038058,-16.6988253360081 L 143.95472098122656,-15.703799212362583 A 333.8895777909312 333.8895777909312 0 0 1 192.01881475408376,-7.309182247185809 L 191.28811559522865,-4.399529563574164 L 198.9297875423201,-6.089159657125839 L 192.9930802992239,-11.188719158668 L 192.26238114036877,-8.279066475056357 A 334.8895777909312 334.8895777909312 0 0 0 144.0543353038058,-16.6988253360081"
         id="path30386" />
      <text
         text-anchor="middle"
         pointer-events="none"
         font-size="8px"
         fill="#000000"
         x="108.05989210573229"
         y="-14.854145386404866"
         transform="rotate(180 108.05989210573229 -17.854145386404866)"
         font-family="sans-serif"
         id="text30388">IS_LOCATED_IN</text>
    </g>
    <g
       class="relationship"
       transform="translate(499.19832877035117 90.70690954909458) rotate(213.85306547510567)"
       id="g30390">
      <path
         class="outline"
         fill="#A5ABB6"
         stroke="none"
         d="M 24.018736134675446,-6.953439040707552 L 24.277555179777966,-5.987513214418485 A 372.3767664768903 372.3767664768903 0 0 1 72.15401272093044,-15.503778196768394 L 72.02376361319034,-16.49525949761727 A 373.3767664768903 373.3767664768903 0 0 0 24.018736134675446,-6.953439040707552 Z M 163.9112178431786,-17.161921001700478 L 163.79536847217022,-16.168654208116322 A 372.3767664768903 372.3767664768903 0 0 1 211.80486351901232,-7.348060619739023 L 211.07053379632018,-4.439322085877494 L 218.71430838513788,-6.1194143557676615 L 212.78396981593514,-11.226378664887728 L 212.049640093243,-8.317640131026199 A 373.3767664768903 373.3767664768903 0 0 0 163.9112178431786,-17.161921001700478"
         id="path30392" />
      <text
         text-anchor="middle"
         pointer-events="none"
         font-size="8px"
         fill="#000000"
         x="117.95053141509584"
         y="-16.166130509083473"
         transform="rotate(180 117.95053141509584 -19.166130509083473)"
         font-family="sans-serif"
         id="text30394">CONTAINS_SPECIES</text>
    </g>
    <g
       class="relationship"
       transform="translate(297.43275930739514 -44.6341487126147) rotate(393.85306547510567)"
       id="g30396">
      <path
         class="outline"
         fill="#A5ABB6"
         stroke="none"
         d="M 24.018736134675446,-6.953439040707552 L 24.277555179777966,-5.987513214418485 A 372.3767664768903 372.3767664768903 0 0 1 82.07178480084593,-16.671602781889533 L 81.96816939577678,-17.666220219818513 A 373.3767664768903 373.3767664768903 0 0 0 24.018736134675446,-6.953439040707552 Z M 153.95086870507217,-18.188468822651657 L 153.8616957371836,-17.19245266726159 A 372.3767664768903 372.3767664768903 0 0 1 211.80486351901232,-7.348060619739023 L 211.07053379632018,-4.439322085877494 L 218.71430838513788,-6.1194143557676615 L 212.78396981593514,-11.226378664887728 L 212.049640093243,-8.317640131026199 A 373.3767664768903 373.3767664768903 0 0 0 153.95086870507217,-18.188468822651657"
         id="path30398" />
      <text
         text-anchor="middle"
         pointer-events="none"
         font-size="8px"
         fill="#000000"
         x="117.95053141509584"
         y="-16.166130509083473"
         font-family="sans-serif"
         id="text30400">IS_LOCATED_IN</text>
    </g>
    <g
       class="relationship"
       transform="translate(499.19832877035117 90.70690954909458) rotate(190.11102574647657)"
       id="g30402">
      <path
         class="outline"
         fill="#A5ABB6"
         stroke="none"
         d="M 24.018736134675446,-6.953439040707552 L 24.277555179777966,-5.987513214418485 A 253.3853645862723 253.3853645862723 0 0 1 41.80877180329834,-10.023837319373456 L 41.61914071880335,-11.005692732249145 A 254.3853645862723 254.3853645862723 0 0 0 24.018736134675446,-6.953439040707552 Z M 133.29257633814248,-11.885992459677794 L 133.12183513562152,-10.900676550051998 A 253.3853645862723 253.3853645862723 0 0 1 150.72732992630455,-7.201754848221774 L 150.0066630076677,-4.289601144794965 L 157.64246638740659,-6.005557655306955 L 151.68821915115367,-11.084626452790854 L 150.96755223251682,-8.172472749364044 A 254.3853645862723 254.3853645862723 0 0 0 133.29257633814248,-11.885992459677794"
         id="path30404" />
      <text
         text-anchor="middle"
         pointer-events="none"
         font-size="8px"
         fill="#000000"
         x="87.42067606098621"
         y="-12.109705673023285"
         transform="rotate(180 87.42067606098621 -15.109705673023285)"
         font-family="sans-serif"
         id="text30406">CONTAINS_SPECIES</text>
    </g>
    <g
       class="relationship"
       transform="translate(320.11309000946926 58.771412855994775) rotate(370.11102574647657)"
       id="g30408">
      <path
         class="outline"
         fill="#A5ABB6"
         stroke="none"
         d="M 24.018736134675446,-6.953439040707552 L 24.277555179777966,-5.987513214418485 A 253.3853645862723 253.3853645862723 0 0 1 51.64272322454655,-11.722964130626082 L 51.491902398241905,-12.711525245758992 A 254.3853645862723 254.3853645862723 0 0 0 24.018736134675446,-6.953439040707552 Z M 123.38887750933115,-13.401920311304934 L 123.25706818028853,-12.410645222957953 A 253.3853645862723 253.3853645862723 0 0 1 150.72732992630455,-7.201754848221774 L 150.0066630076677,-4.289601144794965 L 157.64246638740659,-6.005557655306955 L 151.68821915115367,-11.084626452790854 L 150.96755223251682,-8.172472749364044 A 254.3853645862723 254.3853645862723 0 0 0 123.38887750933115,-13.401920311304934"
         id="path30410" />
      <text
         text-anchor="middle"
         pointer-events="none"
         font-size="8px"
         fill="#000000"
         x="87.42067606098621"
         y="-12.109705673023285"
         font-family="sans-serif"
         id="text30412">IS_LOCATED_IN</text>
    </g>
    <g
       class="relationship"
       transform="translate(499.19832877035117 90.70690954909458) rotate(497.24285964051523)"
       id="g30414">
      <path
         class="outline"
         fill="#A5ABB6"
         stroke="none"
         d="M 24.018736134675446,-6.953439040707552 L 24.277555179777966,-5.987513214418485 A 113.62388937938371 113.62388937938371 0 0 1 25.35743824147262,-6.271187768938617 L 25.108123210601555,-7.23961020536899 A 114.62388937938371 114.62388937938371 0 0 0 24.018736134675446,-6.953439040707552 Z M 78.8338017209438,-8.066400286542901 L 78.61440400091072,-7.090764780606236 A 113.62388937938371 113.62388937938371 0 0 1 79.70250462560124,-6.840453553600059 L 79.01558245532732,-3.920155977669454 L 86.63101933115163,-5.724351418949344 L 80.61840085263313,-10.734183654840866 L 79.93147868235921,-7.813886078910261 A 114.62388937938371 114.62388937938371 0 0 0 78.8338017209438,-8.066400286542901"
         id="path30416" />
      <text
         text-anchor="middle"
         pointer-events="none"
         font-size="8px"
         fill="#000000"
         x="51.92952519598703"
         y="-7.345642089988672"
         transform="rotate(180 51.92952519598703 -10.345642089988672)"
         font-family="sans-serif"
         id="text30418">CONTAIN…</text>
    </g>
    <g
       class="relationship"
       transform="translate(417.72227365649746 166.04143251272) rotate(317.24285964051523)"
       id="g30420">
      <path
         class="outline"
         fill="#A5ABB6"
         stroke="none"
         d="M 24.018736134675446,-6.953439040707552 L 24.277555179777966,-5.987513214418485 A 113.62388937938371 113.62388937938371 0 0 1 24.875621871639233,-6.146020735431762 L 24.622066391224806,-7.113341581041851 A 114.62388937938371 114.62388937938371 0 0 0 24.018736134675446,-6.953439040707552 Z M 79.32351377641893,-7.955147871403142 L 79.09984371788708,-6.980482952101966 A 113.62388937938371 113.62388937938371 0 0 1 79.70250462560124,-6.840453553600059 L 79.01558245532732,-3.920155977669454 L 86.63101933115163,-5.724351418949344 L 80.61840085263313,-10.734183654840866 L 79.93147868235921,-7.813886078910261 A 114.62388937938371 114.62388937938371 0 0 0 79.32351377641893,-7.955147871403142"
         id="path30422" />
      <text
         text-anchor="middle"
         pointer-events="none"
         font-size="8px"
         fill="#000000"
         x="51.92952519598703"
         y="-7.345642089988672"
         font-family="sans-serif"
         id="text30424">IS_LOCAT…</text>
    </g>
  </g>
  <g
     id="g31229">
    <g
       class="node"
       transform="translate(-320.27013,-196.43503)"
       id="g30428">
      <circle
         class="outline"
         cx="0"
         cy="0"
         r="25"
         id="circle30430"
         style="fill:#6dce9e;stroke:#60b58b;stroke-width:2px" />
      <text
         pointer-events="none"
         y="5"
         font-size="10px"
         id="text30432"
         style="font-size:10px;font-family:sans-serif;text-anchor:middle;fill:#ffffff">{&quot;versi…</text>
    </g>
    <g
       id="g31225">
      <circle
         class="outline"
         cx="86.957481"
         cy="-52.682247"
         r="25"
         id="circle30436"
         style="fill:#ffd86e;stroke:#edba39;stroke-width:2px" />
      <text
         pointer-events="none"
         y="-49.037228"
         font-size="10px"
         id="text30438"
         style="font-size:10px;font-family:sans-serif;text-anchor:middle;fill:#604a0e"
         x="86.752403">DIFF</text>
    </g>
    <g
       class="node"
       transform="translate(-317.48287,-67.184527)"
       id="g30440">
      <circle
         class="outline"
         cx="0"
         cy="0"
         r="25"
         id="circle30442"
         style="fill:#6dce9e;stroke:#60b58b;stroke-width:2px" />
      <text
         pointer-events="none"
         y="5"
         font-size="10px"
         id="text30444"
         style="font-size:10px;font-family:sans-serif;text-anchor:middle;fill:#ffffff">test_m…</text>
    </g>
    <g
       class="node"
       transform="translate(-327.1802,88.659228)"
       id="g30446">
      <circle
         class="outline"
         cx="0"
         cy="0"
         r="25"
         id="circle30448"
         style="fill:#ff756e;stroke:#e06760;stroke-width:2px" />
      <text
         pointer-events="none"
         y="0"
         font-size="10px"
         id="text30450"
         style="font-size:10px;font-family:sans-serif;text-anchor:middle;fill:#ffffff">Default</text>
      <text
         pointer-events="none"
         y="10"
         font-size="10px"
         id="text30452"
         style="font-size:10px;font-family:sans-serif;text-anchor:middle;fill:#ffffff">Comp…</text>
    </g>
    <g
       class="node"
       transform="translate(191.52049,140.07288)"
       id="g30454">
      <circle
         class="outline"
         cx="0"
         cy="0"
         r="10"
         id="circle30456"
         style="fill:#a5abb6;stroke:#9aa1ac;stroke-width:2px" />
      <text
         pointer-events="none"
         y="5"
         font-size="10px"
         id="text30458"
         style="font-size:10px;font-family:sans-serif;text-anchor:middle;fill:#ffffff">4</text>
    </g>
    <g
       class="node"
       transform="translate(461.45989,-218.41489)"
       id="g30460">
      <circle
         class="outline"
         cx="0"
         cy="0"
         r="25"
         id="circle30462"
         style="fill:#6dce9e;stroke:#60b58b;stroke-width:2px" />
      <text
         pointer-events="none"
         y="5"
         font-size="10px"
         id="text30464"
         style="font-size:10px;font-family:sans-serif;text-anchor:middle;fill:#ffffff">{&quot;versi…</text>
    </g>
    <g
       class="node"
       transform="translate(483.5244,-77.010616)"
       id="g30466">
      <circle
         class="outline"
         cx="0"
         cy="0"
         r="25"
         id="circle30468"
         style="fill:#6dce9e;stroke:#60b58b;stroke-width:2px" />
      <text
         pointer-events="none"
         y="5"
         font-size="10px"
         id="text30470"
         style="font-size:10px;font-family:sans-serif;text-anchor:middle;fill:#ffffff">test_m…</text>
    </g>
    <g
       class="node"
       transform="translate(297.43276,-44.634149)"
       id="g30472">
      <circle
         class="outline"
         cx="0"
         cy="0"
         r="25"
         id="circle30474"
         style="fill:#de9bf9;stroke:#bf85d6;stroke-width:2px" />
      <text
         pointer-events="none"
         y="5"
         font-size="10px"
         id="text30476"
         style="font-size:10px;font-family:sans-serif;text-anchor:middle;fill:#ffffff">A</text>
    </g>
    <g
       class="node"
       transform="translate(417.72227,166.04143)"
       id="g30478">
      <circle
         class="outline"
         cx="0"
         cy="0"
         r="25"
         id="circle30480"
         style="fill:#de9bf9;stroke:#bf85d6;stroke-width:2px" />
      <text
         pointer-events="none"
         y="5"
         font-size="10px"
         id="text30482"
         style="font-size:10px;font-family:sans-serif;text-anchor:middle;fill:#ffffff">C</text>
    </g>
    <g
       class="node"
       transform="translate(163.23778,94.680152)"
       id="g30484">
      <circle
         class="outline"
         cx="0"
         cy="0"
         r="10"
         id="circle30486"
         style="fill:#a5abb6;stroke:#9aa1ac;stroke-width:2px" />
      <text
         pointer-events="none"
         y="5"
         font-size="10px"
         id="text30488"
         style="font-size:10px;font-family:sans-serif;text-anchor:middle;fill:#ffffff">3</text>
    </g>
    <g
       class="node"
       transform="translate(224.12977,242.62425)"
       id="g30490">
      <circle
         class="outline"
         cx="0"
         cy="0"
         r="25"
         id="circle30492"
         style="fill:#68bdf6;stroke:#5ca8db;stroke-width:2px" />
      <text
         pointer-events="none"
         y="5"
         font-size="10px"
         id="text30494"
         style="font-size:10px;font-family:sans-serif;text-anchor:middle;fill:#ffffff">Inserti…</text>
    </g>
    <g
       class="node"
       transform="translate(51.153309,243.99883)"
       id="g30496">
      <circle
         class="outline"
         cx="0"
         cy="0"
         r="25"
         id="circle30498"
         style="fill:#68bdf6;stroke:#5ca8db;stroke-width:2px" />
      <text
         pointer-events="none"
         y="5"
         font-size="10px"
         id="text30500"
         style="font-size:10px;font-family:sans-serif;text-anchor:middle;fill:#ffffff">XmlAtt…</text>
    </g>
    <g
       class="node"
       transform="translate(143.35689,151.83676)"
       id="g30502">
      <circle
         class="outline"
         cx="0"
         cy="0"
         r="10"
         id="circle30504"
         style="fill:#a5abb6;stroke:#9aa1ac;stroke-width:2px" />
      <text
         pointer-events="none"
         y="5"
         font-size="10px"
         id="text30506"
         style="font-size:10px;font-family:sans-serif;text-anchor:middle;fill:#ffffff">6</text>
    </g>
    <g
       class="node"
       transform="translate(-49.363539,240.85538)"
       id="g30508">
      <circle
         class="outline"
         cx="0"
         cy="0"
         r="25"
         id="circle30510"
         style="fill:#68bdf6;stroke:#5ca8db;stroke-width:2px" />
      <text
         pointer-events="none"
         y="5"
         font-size="10px"
         id="text30512"
         style="font-size:10px;font-family:sans-serif;text-anchor:middle;fill:#ffffff">Specie…</text>
    </g>
    <g
       class="node"
       transform="translate(219.62513,101.52383)"
       id="g30514">
      <circle
         class="outline"
         cx="0"
         cy="0"
         r="10"
         id="circle30516"
         style="fill:#a5abb6;stroke:#9aa1ac;stroke-width:2px" />
      <text
         pointer-events="none"
         y="5"
         font-size="10px"
         id="text30518"
         style="font-size:10px;font-family:sans-serif;text-anchor:middle;fill:#ffffff">5</text>
    </g>
    <g
       class="node"
       transform="translate(299.12774,242.97194)"
       id="g30520">
      <circle
         class="outline"
         cx="0"
         cy="0"
         r="25"
         id="circle30522"
         style="fill:#68bdf6;stroke:#5ca8db;stroke-width:2px" />
      <text
         pointer-events="none"
         y="5"
         font-size="10px"
         id="text30524"
         style="font-size:10px;font-family:sans-serif;text-anchor:middle;fill:#ffffff">EntityI…</text>
    </g>
    <g
       class="node"
       transform="translate(149.07635,242.56527)"
       id="g30526">
      <circle
         class="outline"
         cx="0"
         cy="0"
         r="25"
         id="circle30528"
         style="fill:#68bdf6;stroke:#5ca8db;stroke-width:2px" />
      <text
         pointer-events="none"
         y="5"
         font-size="10px"
         id="text30530"
         style="font-size:10px;font-family:sans-serif;text-anchor:middle;fill:#ffffff">XmlNo…</text>
    </g>
    <g
       class="node"
       transform="translate(30.461841,23.122526)"
       id="g30532">
      <circle
         class="outline"
         cx="0"
         cy="0"
         r="10"
         id="circle30534"
         style="fill:#ffd86e;stroke:#edba39;stroke-width:2px" />
      <text
         pointer-events="none"
         y="5"
         font-size="10px"
         id="text30536"
         style="font-size:10px;font-family:sans-serif;text-anchor:middle;fill:#604a0e">2</text>
    </g>
    <g
       class="node"
       transform="translate(-130.32578,237.19798)"
       id="g30538">
      <circle
         class="outline"
         cx="0"
         cy="0"
         r="25"
         id="circle30540"
         style="fill:#68bdf6;stroke:#5ca8db;stroke-width:2px" />
      <text
         pointer-events="none"
         y="5"
         font-size="10px"
         id="text30542"
         style="font-size:10px;font-family:sans-serif;text-anchor:middle;fill:#ffffff">Update</text>
    </g>
    <g
       class="node"
       transform="translate(-247.51971,105.57264)"
       id="g30544">
      <circle
         class="outline"
         cx="0"
         cy="0"
         r="25"
         id="circle30546"
         style="fill:#de9bf9;stroke:#bf85d6;stroke-width:2px" />
      <text
         pointer-events="none"
         y="5"
         font-size="10px"
         id="text30548"
         style="font-size:10px;font-family:sans-serif;text-anchor:middle;fill:#ffffff">A</text>
    </g>
    <g
       class="node"
       transform="translate(383.94455,241.52949)"
       id="g30550">
      <circle
         class="outline"
         cx="0"
         cy="0"
         r="25"
         id="circle30552"
         style="fill:#68bdf6;stroke:#5ca8db;stroke-width:2px" />
      <text
         pointer-events="none"
         y="5"
         font-size="10px"
         id="text30554"
         style="font-size:10px;font-family:sans-serif;text-anchor:middle;fill:#ffffff">EntityN…</text>
    </g>
    <g
       class="node"
       transform="translate(229.58909,138.26554)"
       id="g30556">
      <circle
         class="outline"
         cx="0"
         cy="0"
         r="10"
         id="circle30558"
         style="fill:#a5abb6;stroke:#9aa1ac;stroke-width:2px" />
      <text
         pointer-events="none"
         y="5"
         font-size="10px"
         id="text30560"
         style="font-size:10px;font-family:sans-serif;text-anchor:middle;fill:#ffffff">7</text>
    </g>
    <g
       class="node"
       transform="translate(-203.41865,28.580555)"
       id="g30562">
      <circle
         class="outline"
         cx="0"
         cy="0"
         r="25"
         id="circle30564"
         style="fill:#fb95af;stroke:#e0849b;stroke-width:2px" />
      <text
         pointer-events="none"
         y="5"
         font-size="10px"
         id="text30566"
         style="font-size:10px;font-family:sans-serif;text-anchor:middle;fill:#ffffff">R</text>
    </g>
    <g
       class="node"
       transform="translate(-142.23229,-36.249523)"
       id="g30568">
      <circle
         class="outline"
         cx="0"
         cy="0"
         r="25"
         id="circle30570"
         style="fill:#de9bf9;stroke:#bf85d6;stroke-width:2px" />
      <text
         pointer-events="none"
         y="5"
         font-size="10px"
         id="text30572"
         style="font-size:10px;font-family:sans-serif;text-anchor:middle;fill:#ffffff">B</text>
    </g>
    <g
       class="node"
       transform="translate(499.19833,90.70691)"
       id="g30574">
      <circle
         class="outline"
         cx="0"
         cy="0"
         r="25"
         id="circle30576"
         style="fill:#ff756e;stroke:#e06760;stroke-width:2px" />
      <text
         pointer-events="none"
         y="0"
         font-size="10px"
         id="text30578"
         style="font-size:10px;font-family:sans-serif;text-anchor:middle;fill:#ffffff">Default</text>
      <text
         pointer-events="none"
         y="10"
         font-size="10px"
         id="text30580"
         style="font-size:10px;font-family:sans-serif;text-anchor:middle;fill:#ffffff">Comp…</text>
    </g>
    <g
       class="node"
       transform="translate(320.11309,58.771413)"
       id="g30582">
      <circle
         class="outline"
         cx="0"
         cy="0"
         r="25"
         id="circle30584"
         style="fill:#de9bf9;stroke:#bf85d6;stroke-width:2px" />
      <text
         pointer-events="none"
         y="5"
         font-size="10px"
         id="text30586"
         style="font-size:10px;font-family:sans-serif;text-anchor:middle;fill:#ffffff">B</text>
    </g>
    <g
       class="node"
       transform="translate(421.68602,18.492779)"
       id="g30588">
      <circle
         class="outline"
         cx="0"
         cy="0"
         r="25"
         id="circle30590"
         style="fill:#fb95af;stroke:#e0849b;stroke-width:2px" />
      <text
         pointer-events="none"
         y="5"
         font-size="10px"
         id="text30592"
         style="font-size:10px;font-family:sans-serif;text-anchor:middle;fill:#ffffff">R</text>
    </g>
  </g>
</svg>
