<svg xmlns="http://www.w3.org/2000/svg" width="884.3785400390625" height="520.4137573242188" viewBox="-356.1802062988281 -247.41490173339844 884.3785400390625 520.4137573242188"><title>Neo4j Graph Visualization</title><desc>Created using Neo4j (http://www.neo4j.com/)</desc><g class="layer relationships"><g class="relationship" transform="translate(483.52439962867237 -77.01061572772394) rotate(530.1303966507121)"><path class="outline" fill="#A5ABB6" stroke="none" d="M 25 0.5 L 58.4435469127511 0.5 L 58.4435469127511 -0.5 L 25 -0.5 Z M 123.4435469127511 0.5 L 156.8870938255022 0.5 L 156.8870938255022 3.5 L 163.8870938255022 0 L 156.8870938255022 -3.5 L 156.8870938255022 -0.5 L 123.4435469127511 -0.5 Z"/><text text-anchor="middle" pointer-events="none" font-size="8px" fill="#000000" x="90.9435469127511" y="3" transform="rotate(180 90.9435469127511 0)" font-family="sans-serif">HAS_SPECIES</text></g><g class="relationship" transform="translate(-320.2701318455323 -196.43502857751642) rotate(379.4432109488031)"><path class="outline" fill="#A5ABB6" stroke="none" d="M 25 0.5 L 188.4277607376139 0.5 L 188.4277607376139 -0.5 L 25 -0.5 Z M 236.4277607376139 0.5 L 399.8555214752278 0.5 L 399.8555214752278 3.5 L 406.8555214752278 0 L 399.8555214752278 -3.5 L 399.8555214752278 -0.5 L 236.4277607376139 -0.5 Z"/><text text-anchor="middle" pointer-events="none" font-size="8px" fill="#000000" x="212.4277607376139" y="3" font-family="sans-serif">HAS_DIFF</text></g><g class="relationship" transform="translate(461.4598923992061 -218.41489460889045) rotate(516.1286487132913)"><path class="outline" fill="#A5ABB6" stroke="none" d="M 25 0.5 L 177.26777401957088 0.5 L 177.26777401957088 -0.5 L 25 -0.5 Z M 225.26777401957088 0.5 L 377.53554803914176 0.5 L 377.53554803914176 3.5 L 384.53554803914176 0 L 377.53554803914176 -3.5 L 377.53554803914176 -0.5 L 225.26777401957088 -0.5 Z"/><text text-anchor="middle" pointer-events="none" font-size="8px" fill="#000000" x="201.26777401957088" y="3" transform="rotate(180 201.26777401957088 0)" font-family="sans-serif">HAS_DIFF</text></g><g class="relationship" transform="translate(-320.2701318455323 -196.43502857751642) rotate(358.3894416102461)"><path class="outline" fill="#A5ABB6" stroke="none" d="M 25 0.5 L 346.01948331139346 0.5 L 346.01948331139346 -0.5 L 25 -0.5 Z M 429.01948331139346 0.5 L 750.0389666227869 0.5 L 750.0389666227869 3.5 L 757.0389666227869 0 L 750.0389666227869 -3.5 L 750.0389666227869 -0.5 L 429.01948331139346 -0.5 Z"/><text text-anchor="middle" pointer-events="none" font-size="8px" fill="#000000" x="387.51948331139346" y="3" font-family="sans-serif">HAS_SUCCESSOR</text></g><g class="relationship" transform="translate(86.95748227825337 -52.68224869590833) rotate(421.521695895804)"><path class="outline" fill="#A5ABB6" stroke="none" d="M 25 0.5 L 74.1448411052012 0.5 L 74.1448411052012 -0.5 L 25 -0.5 Z M 153.14484110520118 0.5 L 202.2896822104024 0.5 L 202.2896822104024 3.5 L 209.2896822104024 0 L 202.2896822104024 -3.5 L 202.2896822104024 -0.5 L 153.14484110520118 -0.5 Z"/><text text-anchor="middle" pointer-events="none" font-size="8px" fill="#000000" x="113.6448411052012" y="3" font-family="sans-serif">HAS_DIFF_ENTRY</text></g><g class="relationship" transform="translate(191.52049309057395 140.0728848123897) rotate(366.5490323803024)"><path class="outline" fill="#A5ABB6" stroke="none" d="M 10 0.5 L 63.84376465232795 0.5 L 63.84376465232795 -0.5 L 10 -0.5 Z M 141.84376465232793 0.5 L 195.6875293046559 0.5 L 195.6875293046559 3.5 L 202.6875293046559 0 L 195.6875293046559 -3.5 L 195.6875293046559 -0.5 L 141.84376465232793 -0.5 Z"/><text text-anchor="middle" pointer-events="none" font-size="8px" fill="#000000" x="102.84376465232795" y="3" font-family="sans-serif">IS_DESTINATION</text></g><g class="relationship" transform="translate(-320.2701318455323 -196.43502857751642) rotate(448.76462111226294)"><path class="outline" fill="#A5ABB6" stroke="none" d="M 24.018736134675446,-6.953439040707552 L 24.277555179777966,-5.987513214418485 A 149.98728203381845 149.98728203381845 0 0 1 31.926653611540583,-7.823523133196858 L 31.718832879948657,-8.801690063490753 A 150.98728203381845 150.98728203381845 0 0 0 24.018736134675446,-6.953439040707552 Z M 90.53124750841428,-9.584921606236037 L 90.34954924319896,-8.601567275174375 A 149.98728203381845 149.98728203381845 0 0 1 98.04482822996275,-6.969905374988667 L 97.34581480436864,-4.052478386898098 L 104.96866010643976,-5.825111879950854 L 98.9768461307549,-10.85980802577609 L 98.27783270516079,-7.9423810376855215 A 150.98728203381845 150.98728203381845 0 0 0 90.53124750841428,-9.584921606236037"/><text text-anchor="middle" pointer-events="none" font-size="8px" fill="#000000" x="61.093190746513486" y="-8.584862890101391" font-family="sans-serif">HAS_MODEL</text></g><g class="relationship" transform="translate(-317.48287437202066 -67.1845266950315) rotate(453.5606214631419)"><path class="outline" fill="#A5ABB6" stroke="none" d="M 25 0.5 L 28.572584753308462 0.5 L 28.572584753308462 -0.5 L 25 -0.5 Z M 120.57258475330846 0.5 L 124.14516950661692 0.5 L 124.14516950661692 3.5 L 131.14516950661692 0 L 124.14516950661692 -3.5 L 124.14516950661692 -0.5 L 120.57258475330846 -0.5 Z"/><text text-anchor="middle" pointer-events="none" font-size="8px" fill="#000000" x="74.57258475330846" y="3" transform="rotate(180 74.57258475330846 0)" font-family="sans-serif">HAS_COMPARTMENT</text></g><g class="relationship" transform="translate(461.4598923992061 -218.41489460889045) rotate(441.1311722050922)"><path class="outline" fill="#A5ABB6" stroke="none" d="M 24.018736134675446,-6.953439040707552 L 24.277555179777966,-5.987513214418485 A 177.290491370185 177.290491370185 0 0 1 38.77008369658891,-9.22689806895653 L 38.593009185018936,-10.211095517313453 A 178.290491370185 178.290491370185 0 0 0 24.018736134675446,-6.953439040707552 Z M 97.48351984686681,-10.9229725753421 L 97.3302878445601,-9.93478233380506 A 177.290491370185 177.290491370185 0 0 1 111.89688645750351,-7.04666843442638 L 111.1907034816484,-4.130968586257433 L 118.81788326587356,-5.884858132125936 L 112.83846375864366,-10.934268231984975 L 112.13228078278854,-8.018568383816028 A 178.290491370185 178.290491370185 0 0 0 97.48351984686681,-10.9229725753421"/><text text-anchor="middle" pointer-events="none" font-size="8px" fill="#000000" x="68.01471054782564" y="-9.515551974940223" font-family="sans-serif">HAS_MODEL</text></g><g class="relationship" transform="translate(191.52049309057395 140.0728848123897) rotate(238.07432946063864)"><path class="outline" fill="#A5ABB6" stroke="none" d="M 10 0.5 L 10.7414098742487 0.5 L 10.7414098742487 -0.5 L 10 -0.5 Z M 35.7414098742487 0.5 L 36.4828197484974 0.5 L 36.4828197484974 3.5 L 43.4828197484974 0 L 36.4828197484974 -3.5 L 36.4828197484974 -0.5 L 35.7414098742487 -0.5 Z"/><text text-anchor="middle" pointer-events="none" font-size="8px" fill="#000000" x="23.2414098742487" y="3" transform="rotate(180 23.2414098742487 0)" font-family="sans-serif">DI…</text></g><g class="relationship" transform="translate(191.52049309057395 140.0728848123897) rotate(432.3603773898719)"><path class="outline" fill="#A5ABB6" stroke="none" d="M 10 0.5 L 30.30554682117441 0.5 L 30.30554682117441 -0.5 L 10 -0.5 Z M 55.30554682117441 0.5 L 75.61109364234882 0.5 L 75.61109364234882 3.5 L 82.61109364234882 0 L 75.61109364234882 -3.5 L 75.61109364234882 -0.5 L 55.30554682117441 -0.5 Z"/><text text-anchor="middle" pointer-events="none" font-size="8px" fill="#000000" x="42.80554682117441" y="3" font-family="sans-serif">type</text></g><g class="relationship" transform="translate(191.52049309057395 140.0728848123897) rotate(503.4842589489837)"><path class="outline" fill="#A5ABB6" stroke="none" d="M 10 0.5 L 53.82632475848331 0.5 L 53.82632475848331 -0.5 L 10 -0.5 Z M 98.82632475848331 0.5 L 142.65264951696662 0.5 L 142.65264951696662 3.5 L 149.65264951696662 0 L 142.65264951696662 -3.5 L 142.65264951696662 -0.5 L 98.82632475848331 -0.5 Z"/><text text-anchor="middle" pointer-events="none" font-size="8px" fill="#000000" x="76.32632475848331" y="3" transform="rotate(180 76.32632475848331 0)" font-family="sans-serif">appliesTo</text></g><g class="relationship" transform="translate(143.3568873517736 151.8367571722141) rotate(289.1793074933658)"><path class="outline" fill="#A5ABB6" stroke="none" d="M 10 0.5 L 11.75775688694959 0.5 L 11.75775688694959 -0.5 L 10 -0.5 Z M 41.75775688694959 0.5 L 43.51551377389918 0.5 L 43.51551377389918 3.5 L 50.51551377389918 0 L 43.51551377389918 -3.5 L 43.51551377389918 -0.5 L 41.75775688694959 -0.5 Z"/><text text-anchor="middle" pointer-events="none" font-size="8px" fill="#000000" x="26.75775688694959" y="3" font-family="sans-serif">DIF…</text></g><g class="relationship" transform="translate(86.95748227825337 -52.68224869590833) rotate(434.58294949560013)"><path class="outline" fill="#A5ABB6" stroke="none" d="M 25 0.5 L 70.57652503491538 0.5 L 70.57652503491538 -0.5 L 25 -0.5 Z M 149.5765250349154 0.5 L 195.15305006983075 0.5 L 195.15305006983075 3.5 L 202.15305006983075 0 L 195.15305006983075 -3.5 L 195.15305006983075 -0.5 L 149.5765250349154 -0.5 Z"/><text text-anchor="middle" pointer-events="none" font-size="8px" fill="#000000" x="110.07652503491538" y="3" font-family="sans-serif">HAS_DIFF_ENTRY</text></g><g class="relationship" transform="translate(143.3568873517736 151.8367571722141) rotate(408.3407723635787)"><path class="outline" fill="#A5ABB6" stroke="none" d="M 10 0.5 L 37.25900737786247 0.5 L 37.25900737786247 -0.5 L 10 -0.5 Z M 62.25900737786247 0.5 L 89.51801475572493 0.5 L 89.51801475572493 3.5 L 96.51801475572493 0 L 89.51801475572493 -3.5 L 89.51801475572493 -0.5 L 62.25900737786247 -0.5 Z"/><text text-anchor="middle" pointer-events="none" font-size="8px" fill="#000000" x="49.75900737786247" y="3" font-family="sans-serif">type</text></g><g class="relationship" transform="translate(143.3568873517736 151.8367571722141) rotate(515.2075250294911)"><path class="outline" fill="#A5ABB6" stroke="none" d="M 10 0.5 L 77.64315626270496 0.5 L 77.64315626270496 -0.5 L 10 -0.5 Z M 112.64315626270496 0.5 L 180.28631252540993 0.5 L 180.28631252540993 3.5 L 187.28631252540993 0 L 180.28631252540993 -3.5 L 180.28631252540993 -0.5 L 112.64315626270496 -0.5 Z"/><text text-anchor="middle" pointer-events="none" font-size="8px" fill="#000000" x="95.14315626270496" y="3" transform="rotate(180 95.14315626270496 0)" font-family="sans-serif">affects</text></g><g class="relationship" transform="translate(143.3568873517736 151.8367571722141) rotate(495.01289936342874)"><path class="outline" fill="#A5ABB6" stroke="none" d="M 10 0.5 L 31.683101956542814 0.5 L 31.683101956542814 -0.5 L 10 -0.5 Z M 76.68310195654281 0.5 L 98.36620391308563 0.5 L 98.36620391308563 3.5 L 105.36620391308563 0 L 98.36620391308563 -3.5 L 98.36620391308563 -0.5 L 76.68310195654281 -0.5 Z"/><text text-anchor="middle" pointer-events="none" font-size="8px" fill="#000000" x="54.183101956542814" y="3" transform="rotate(180 54.183101956542814 0)" font-family="sans-serif">appliesTo</text></g><g class="relationship" transform="translate(143.3568873517736 151.8367571722141) rotate(362.9637191241735)"><path class="outline" fill="#A5ABB6" stroke="none" d="M 10 0.5 L 87.36642421245952 0.5 L 87.36642421245952 -0.5 L 10 -0.5 Z M 165.36642421245952 0.5 L 242.73284842491904 0.5 L 242.73284842491904 3.5 L 249.73284842491904 0 L 242.73284842491904 -3.5 L 242.73284842491904 -0.5 L 165.36642421245952 -0.5 Z"/><text text-anchor="middle" pointer-events="none" font-size="8px" fill="#000000" x="126.36642421245952" y="3" font-family="sans-serif">IS_DESTINATION</text></g><g class="relationship" transform="translate(219.6251319898281 101.52382807180422) rotate(186.92008473051453)"><path class="outline" fill="#A5ABB6" stroke="none" d="M 10 0.5 L 12.40056913305559 0.5 L 12.40056913305559 -0.5 L 10 -0.5 Z M 37.40056913305559 0.5 L 39.80113826611118 0.5 L 39.80113826611118 3.5 L 46.80113826611118 0 L 39.80113826611118 -3.5 L 39.80113826611118 -0.5 L 37.40056913305559 -0.5 Z"/><text text-anchor="middle" pointer-events="none" font-size="8px" fill="#000000" x="24.90056913305559" y="3" transform="rotate(180 24.90056913305559 0)" font-family="sans-serif">DI…</text></g><g class="relationship" transform="translate(86.95748227825337 -52.68224869590833) rotate(409.2937009324949)"><path class="outline" fill="#A5ABB6" stroke="none" d="M 25 0.5 L 66.21064274706305 0.5 L 66.21064274706305 -0.5 L 25 -0.5 Z M 145.21064274706305 0.5 L 186.4212854941261 0.5 L 186.4212854941261 3.5 L 193.4212854941261 0 L 186.4212854941261 -3.5 L 186.4212854941261 -0.5 L 145.21064274706305 -0.5 Z"/><text text-anchor="middle" pointer-events="none" font-size="8px" fill="#000000" x="105.71064274706305" y="3" font-family="sans-serif">HAS_DIFF_ENTRY</text></g><g class="relationship" transform="translate(219.6251319898281 101.52382807180422) rotate(378.0397406611199)"><path class="outline" fill="#A5ABB6" stroke="none" d="M 10 0.5 L 54.169331882395866 0.5 L 54.169331882395866 -0.5 L 10 -0.5 Z M 132.16933188239585 0.5 L 176.33866376479173 0.5 L 176.33866376479173 3.5 L 183.33866376479173 0 L 176.33866376479173 -3.5 L 176.33866376479173 -0.5 L 132.16933188239585 -0.5 Z"/><text text-anchor="middle" pointer-events="none" font-size="8px" fill="#000000" x="93.16933188239587" y="3" font-family="sans-serif">IS_DESTINATION</text></g><g class="relationship" transform="translate(219.6251319898281 101.52382807180422) rotate(420.66131289854684)"><path class="outline" fill="#A5ABB6" stroke="none" d="M 10 0.5 L 47.629883995125155 0.5 L 47.629883995125155 -0.5 L 10 -0.5 Z M 92.62988399512516 0.5 L 130.2597679902503 0.5 L 130.2597679902503 3.5 L 137.2597679902503 0 L 130.2597679902503 -3.5 L 130.2597679902503 -0.5 L 92.62988399512516 -0.5 Z"/><text text-anchor="middle" pointer-events="none" font-size="8px" fill="#000000" x="70.12988399512516" y="3" font-family="sans-serif">appliesTo</text></g><g class="relationship" transform="translate(219.6251319898281 101.52382807180422) rotate(499.77912017925325)"><path class="outline" fill="#A5ABB6" stroke="none" d="M 10 0.5 L 76.81985392488903 0.5 L 76.81985392488903 -0.5 L 10 -0.5 Z M 121.81985392488903 0.5 L 188.63970784977806 0.5 L 188.63970784977806 3.5 L 195.63970784977806 0 L 188.63970784977806 -3.5 L 188.63970784977806 -0.5 L 121.81985392488903 -0.5 Z"/><text text-anchor="middle" pointer-events="none" font-size="8px" fill="#000000" x="99.31985392488903" y="3" transform="rotate(180 99.31985392488903 0)" font-family="sans-serif">appliesTo</text></g><g class="relationship" transform="translate(219.6251319898281 101.52382807180422) rotate(448.1714486376849)"><path class="outline" fill="#A5ABB6" stroke="none" d="M 10 0.5 L 47.08615395729612 0.5 L 47.08615395729612 -0.5 L 10 -0.5 Z M 72.08615395729612 0.5 L 109.17230791459224 0.5 L 109.17230791459224 3.5 L 116.17230791459224 0 L 109.17230791459224 -3.5 L 109.17230791459224 -0.5 L 72.08615395729612 -0.5 Z"/><text text-anchor="middle" pointer-events="none" font-size="8px" fill="#000000" x="59.58615395729612" y="3" font-family="sans-serif">type</text></g><g class="relationship" transform="translate(86.95748227825337 -52.68224869590833) rotate(422.6322235235797)"><path class="outline" fill="#A5ABB6" stroke="none" d="M 25 0.5 L 47.46740487355474 0.5 L 47.46740487355474 -0.5 L 25 -0.5 Z M 126.46740487355474 0.5 L 148.93480974710948 0.5 L 148.93480974710948 3.5 L 155.93480974710948 0 L 148.93480974710948 -3.5 L 148.93480974710948 -0.5 L 126.46740487355474 -0.5 Z"/><text text-anchor="middle" pointer-events="none" font-size="8px" fill="#000000" x="86.96740487355474" y="3" font-family="sans-serif">HAS_DIFF_ENTRY</text></g><g class="relationship" transform="translate(163.23778049582108 94.68015217231977) rotate(375.6642955155242)"><path class="outline" fill="#A5ABB6" stroke="none" d="M 10 0.5 L 82.15028338133402 0.5 L 82.15028338133402 -0.5 L 10 -0.5 Z M 160.15028338133402 0.5 L 232.30056676266804 0.5 L 232.30056676266804 3.5 L 239.30056676266804 0 L 232.30056676266804 -3.5 L 232.30056676266804 -0.5 L 160.15028338133402 -0.5 Z"/><text text-anchor="middle" pointer-events="none" font-size="8px" fill="#000000" x="121.15028338133402" y="3" font-family="sans-serif">IS_DESTINATION</text></g><g class="relationship" transform="translate(163.23778049582108 94.68015217231977) rotate(505.48931342164747)"><path class="outline" fill="#A5ABB6" stroke="none" d="M 10 0.5 L 100.50244099103412 0.5 L 100.50244099103412 -0.5 L 10 -0.5 Z M 135.50244099103412 0.5 L 226.00488198206824 0.5 L 226.00488198206824 3.5 L 233.00488198206824 0 L 226.00488198206824 -3.5 L 226.00488198206824 -0.5 L 135.50244099103412 -0.5 Z"/><text text-anchor="middle" pointer-events="none" font-size="8px" fill="#000000" x="118.00244099103412" y="3" transform="rotate(180 118.00244099103412 0)" font-family="sans-serif">affects</text></g><g class="relationship" transform="translate(163.23778049582108 94.68015217231977) rotate(427.6285291657872)"><path class="outline" fill="#A5ABB6" stroke="none" d="M 10 0.5 L 56.49264128096132 0.5 L 56.49264128096132 -0.5 L 10 -0.5 Z M 81.49264128096132 0.5 L 127.98528256192265 0.5 L 127.98528256192265 3.5 L 134.98528256192265 0 L 127.98528256192265 -3.5 L 127.98528256192265 -0.5 L 81.49264128096132 -0.5 Z"/><text text-anchor="middle" pointer-events="none" font-size="8px" fill="#000000" x="68.99264128096132" y="3" font-family="sans-serif">type</text></g><g class="relationship" transform="translate(163.23778049582108 94.68015217231977) rotate(455.4699466778038)"><path class="outline" fill="#A5ABB6" stroke="none" d="M 10 0.5 L 40.780808637049404 0.5 L 40.780808637049404 -0.5 L 10 -0.5 Z M 85.7808086370494 0.5 L 116.56161727409881 0.5 L 116.56161727409881 3.5 L 123.56161727409881 0 L 116.56161727409881 -3.5 L 116.56161727409881 -0.5 L 85.7808086370494 -0.5 Z"/><text text-anchor="middle" pointer-events="none" font-size="8px" fill="#000000" x="63.280808637049404" y="3" transform="rotate(180 63.280808637049404 0)" font-family="sans-serif">appliesTo</text></g><g class="relationship" transform="translate(30.46184088120019 23.122526104834833) rotate(444.64820826294874)"><path class="outline" fill="#A5ABB6" stroke="none" d="M 10 0.5 L 77.42168135458363 0.5 L 77.42168135458363 -0.5 L 10 -0.5 Z M 122.42168135458363 0.5 L 189.84336270916725 0.5 L 189.84336270916725 3.5 L 196.84336270916725 0 L 189.84336270916725 -3.5 L 189.84336270916725 -0.5 L 122.42168135458363 -0.5 Z"/><text text-anchor="middle" pointer-events="none" font-size="8px" fill="#000000" x="99.92168135458363" y="3" font-family="sans-serif">appliesTo</text></g><g class="relationship" transform="translate(86.95748227825337 -52.68224869590833) rotate(486.69635746990605)"><path class="outline" fill="#A5ABB6" stroke="none" d="M 25 0.5 L 25.270819168530956 0.5 L 25.270819168530956 -0.5 L 25 -0.5 Z M 77.27081916853095 0.5 L 77.54163833706191 0.5 L 77.54163833706191 3.5 L 84.54163833706191 0 L 77.54163833706191 -3.5 L 77.54163833706191 -0.5 L 77.27081916853095 -0.5 Z"/><text text-anchor="middle" pointer-events="none" font-size="8px" fill="#000000" x="51.270819168530956" y="3" transform="rotate(180 51.270819168530956 0)" font-family="sans-serif">HAS_DIF…</text></g><g class="relationship" transform="translate(30.46184088120019 23.122526104834833) rotate(470.1339836416238)"><path class="outline" fill="#A5ABB6" stroke="none" d="M 10 0.5 L 87.45224026786762 0.5 L 87.45224026786762 -0.5 L 10 -0.5 Z M 122.45224026786762 0.5 L 199.90448053573525 0.5 L 199.90448053573525 3.5 L 206.90448053573525 0 L 199.90448053573525 -3.5 L 199.90448053573525 -0.5 L 122.45224026786762 -0.5 Z"/><text text-anchor="middle" pointer-events="none" font-size="8px" fill="#000000" x="104.95224026786762" y="3" transform="rotate(180 104.95224026786762 0)" font-family="sans-serif">affects</text></g><g class="relationship" transform="translate(30.46184088120019 23.122526104834833) rotate(486.9094509258488)"><path class="outline" fill="#A5ABB6" stroke="none" d="M 10 0.5 L 110.36650081809847 0.5 L 110.36650081809847 -0.5 L 10 -0.5 Z M 135.36650081809847 0.5 L 235.73300163619695 0.5 L 235.73300163619695 3.5 L 242.73300163619695 0 L 235.73300163619695 -3.5 L 235.73300163619695 -0.5 L 135.36650081809847 -0.5 Z"/><text text-anchor="middle" pointer-events="none" font-size="8px" fill="#000000" x="122.86650081809847" y="3" transform="rotate(180 122.86650081809847 0)" font-family="sans-serif">type</text></g><g class="relationship" transform="translate(30.46184088120019 23.122526104834833) rotate(523.479494409849)"><path class="outline" fill="#A5ABB6" stroke="none" d="M 10 0.5 L 105.97565582722913 0.5 L 105.97565582722913 -0.5 L 10 -0.5 Z M 161.97565582722913 0.5 L 257.95131165445827 0.5 L 257.95131165445827 3.5 L 264.95131165445827 0 L 257.95131165445827 -3.5 L 257.95131165445827 -0.5 L 161.97565582722913 -0.5 Z"/><text text-anchor="middle" pointer-events="none" font-size="8px" fill="#000000" x="133.97565582722913" y="3" transform="rotate(180 133.97565582722913 0)" font-family="sans-serif">IS_SOURCE</text></g><g class="relationship" transform="translate(30.46184088120019 23.122526104834833) rotate(345.7591335303373)"><path class="outline" fill="#A5ABB6" stroke="none" d="M 10 0.5 L 87.71749913105054 0.5 L 87.71749913105054 -0.5 L 10 -0.5 Z M 165.71749913105054 0.5 L 243.4349982621011 0.5 L 243.4349982621011 3.5 L 250.4349982621011 0 L 243.4349982621011 -3.5 L 243.4349982621011 -0.5 L 165.71749913105054 -0.5 Z"/><text text-anchor="middle" pointer-events="none" font-size="8px" fill="#000000" x="126.71749913105054" y="3" font-family="sans-serif">IS_DESTINATION</text></g><g class="relationship" transform="translate(86.95748227825337 -52.68224869590833) rotate(413.2414992379868)"><path class="outline" fill="#A5ABB6" stroke="none" d="M 25 0.5 L 83.66882438687284 0.5 L 83.66882438687284 -0.5 L 25 -0.5 Z M 162.66882438687284 0.5 L 221.33764877374568 0.5 L 221.33764877374568 3.5 L 228.33764877374568 0 L 221.33764877374568 -3.5 L 221.33764877374568 -0.5 L 162.66882438687284 -0.5 Z"/><text text-anchor="middle" pointer-events="none" font-size="8px" fill="#000000" x="123.16882438687284" y="3" font-family="sans-serif">HAS_DIFF_ENTRY</text></g><g class="relationship" transform="translate(229.58909256595226 138.26554147128724) rotate(393.7825605526991)"><path class="outline" fill="#A5ABB6" stroke="none" d="M 10 0.5 L 59.35613918570954 0.5 L 59.35613918570954 -0.5 L 10 -0.5 Z M 104.35613918570954 0.5 L 153.71227837141907 0.5 L 153.71227837141907 3.5 L 160.71227837141907 0 L 153.71227837141907 -3.5 L 153.71227837141907 -0.5 L 104.35613918570954 -0.5 Z"/><text text-anchor="middle" pointer-events="none" font-size="8px" fill="#000000" x="81.85613918570954" y="3" font-family="sans-serif">appliesTo</text></g><g class="relationship" transform="translate(229.58909256595226 138.26554147128724) rotate(452.99458500642476)"><path class="outline" fill="#A5ABB6" stroke="none" d="M 10 0.5 L 28.750703206123255 0.5 L 28.750703206123255 -0.5 L 10 -0.5 Z M 53.750703206123255 0.5 L 72.50140641224651 0.5 L 72.50140641224651 3.5 L 79.50140641224651 0 L 72.50140641224651 -3.5 L 72.50140641224651 -0.5 L 53.750703206123255 -0.5 Z"/><text text-anchor="middle" pointer-events="none" font-size="8px" fill="#000000" x="41.250703206123255" y="3" transform="rotate(180 41.250703206123255 0)" font-family="sans-serif">type</text></g><g class="relationship" transform="translate(229.58909256595226 138.26554147128724) rotate(509.3508618040089)"><path class="outline" fill="#A5ABB6" stroke="none" d="M 10 0.5 L 70.20493801064035 0.5 L 70.20493801064035 -0.5 L 10 -0.5 Z M 115.20493801064035 0.5 L 175.4098760212807 0.5 L 175.4098760212807 3.5 L 182.4098760212807 0 L 175.4098760212807 -3.5 L 175.4098760212807 -0.5 L 115.20493801064035 -0.5 Z"/><text text-anchor="middle" pointer-events="none" font-size="8px" fill="#000000" x="92.70493801064035" y="3" transform="rotate(180 92.70493801064035 0)" font-family="sans-serif">appliesTo</text></g><g class="relationship" transform="translate(229.58909256595226 138.26554147128724) rotate(213.3004365722203)"><path class="outline" fill="#A5ABB6" stroke="none" d="M 10 0.5 L 11.19314416171413 0.5 L 11.19314416171413 -0.5 L 10 -0.5 Z M 61.19314416171413 0.5 L 62.38628832342826 0.5 L 62.38628832342826 3.5 L 69.38628832342826 0 L 62.38628832342826 -3.5 L 62.38628832342826 -0.5 L 61.19314416171413 -0.5 Z"/><text text-anchor="middle" pointer-events="none" font-size="8px" fill="#000000" x="36.19314416171413" y="3" transform="rotate(180 36.19314416171413 0)" font-family="sans-serif">DIFF_TR…</text></g><g class="relationship" transform="translate(229.58909256595226 138.26554147128724) rotate(368.3984500982565)"><path class="outline" fill="#A5ABB6" stroke="none" d="M 10 0.5 L 45.08626865956175 0.5 L 45.08626865956175 -0.5 L 10 -0.5 Z M 123.08626865956175 0.5 L 158.1725373191235 0.5 L 158.1725373191235 3.5 L 165.1725373191235 0 L 158.1725373191235 -3.5 L 158.1725373191235 -0.5 L 123.08626865956175 -0.5 Z"/><text text-anchor="middle" pointer-events="none" font-size="8px" fill="#000000" x="84.08626865956175" y="3" font-family="sans-serif">IS_DESTINATION</text></g><g class="relationship" transform="translate(-317.48287437202066 -67.1845266950315) rotate(268.76462111226294)"><path class="outline" fill="#A5ABB6" stroke="none" d="M 24.018736134675446,-6.953439040707552 L 24.277555179777966,-5.987513214418485 A 149.98728203381845 149.98728203381845 0 0 1 29.00829011674081,-7.173021735595626 L 28.78101197879264,-8.146851622183021 A 150.98728203381845 150.98728203381845 0 0 0 24.018736134675446,-6.953439040707552 Z M 93.4854649895701,-9.00855010666578 L 93.28420072222956,-8.029013126918784 A 149.98728203381845 149.98728203381845 0 0 1 98.04482822996275,-6.969905374988667 L 97.34581480436864,-4.052478386898098 L 104.96866010643976,-5.825111879950854 L 98.9768461307549,-10.85980802577609 L 98.27783270516079,-7.9423810376855215 A 150.98728203381845 150.98728203381845 0 0 0 93.4854649895701,-9.00855010666578"/><text text-anchor="middle" pointer-events="none" font-size="8px" fill="#000000" x="61.093190746513486" y="-8.584862890101391" transform="rotate(180 61.093190746513486 -11.584862890101391)" font-family="sans-serif">BELONGS_TO</text></g><g class="relationship" transform="translate(-317.48287437202066 -67.1845266950315) rotate(400.0158636497123)"><path class="outline" fill="#A5ABB6" stroke="none" d="M 25 0.5 L 34.96744076093324 0.5 L 34.96744076093324 -0.5 L 25 -0.5 Z M 106.96744076093324 0.5 L 116.93488152186649 0.5 L 116.93488152186649 3.5 L 123.93488152186649 0 L 116.93488152186649 -3.5 L 116.93488152186649 -0.5 L 106.96744076093324 -0.5 Z"/><text text-anchor="middle" pointer-events="none" font-size="8px" fill="#000000" x="70.96744076093324" y="3" font-family="sans-serif">HAS_REACTION</text></g><g class="relationship" transform="translate(-317.48287437202066 -67.1845266950315) rotate(427.95304598489736)"><path class="outline" fill="#A5ABB6" stroke="none" d="M 25 0.5 L 57.193190723027215 0.5 L 57.193190723027215 -0.5 L 25 -0.5 Z M 122.19319072302721 0.5 L 154.38638144605443 0.5 L 154.38638144605443 3.5 L 161.38638144605443 0 L 154.38638144605443 -3.5 L 154.38638144605443 -0.5 L 122.19319072302721 -0.5 Z"/><text text-anchor="middle" pointer-events="none" font-size="8px" fill="#000000" x="89.69319072302721" y="3" font-family="sans-serif">HAS_SPECIES</text></g><g class="relationship" transform="translate(-317.48287437202066 -67.1845266950315) rotate(370.0106526981097)"><path class="outline" fill="#A5ABB6" stroke="none" d="M 25 0.5 L 52.979970476623365 0.5 L 52.979970476623365 -0.5 L 25 -0.5 Z M 117.97997047662336 0.5 L 145.95994095324673 0.5 L 145.95994095324673 3.5 L 152.95994095324673 0 L 145.95994095324673 -3.5 L 145.95994095324673 -0.5 L 117.97997047662336 -0.5 Z"/><text text-anchor="middle" pointer-events="none" font-size="8px" fill="#000000" x="85.47997047662336" y="3" font-family="sans-serif">HAS_SPECIES</text></g><g class="relationship" transform="translate(483.52439962867237 -77.01061572772394) rotate(444.66096840253016)"><path class="outline" fill="#A5ABB6" stroke="none" d="M 25 0.5 L 34.72416568259763 0.5 L 34.72416568259763 -0.5 L 25 -0.5 Z M 126.72416568259763 0.5 L 136.44833136519526 0.5 L 136.44833136519526 3.5 L 143.44833136519526 0 L 136.44833136519526 -3.5 L 136.44833136519526 -0.5 L 126.72416568259763 -0.5 Z"/><text text-anchor="middle" pointer-events="none" font-size="8px" fill="#000000" x="80.72416568259763" y="3" font-family="sans-serif">HAS_COMPARTMENT</text></g><g class="relationship" transform="translate(483.52439962867237 -77.01061572772394) rotate(261.1311722050922)"><path class="outline" fill="#A5ABB6" stroke="none" d="M 24.018736134675446,-6.953439040707552 L 24.277555179777966,-5.987513214418485 A 177.290491370185 177.290491370185 0 0 1 35.83040380803422,-8.672353560430878 L 35.63674814839569,-9.653423122434475 A 178.290491370185 178.290491370185 0 0 0 24.018736134675446,-6.953439040707552 Z M 100.45239753293907,-10.43692411910655 L 100.28251361799667,-9.451460037851518 A 177.290491370185 177.290491370185 0 0 1 111.89688645750351,-7.04666843442638 L 111.1907034816484,-4.130968586257433 L 118.81788326587356,-5.884858132125936 L 112.83846375864366,-10.934268231984975 L 112.13228078278854,-8.018568383816028 A 178.290491370185 178.290491370185 0 0 0 100.45239753293907,-10.43692411910655"/><text text-anchor="middle" pointer-events="none" font-size="8px" fill="#000000" x="68.01471054782564" y="-9.515551974940223" transform="rotate(180 68.01471054782564 -12.515551974940223)" font-family="sans-serif">BELONGS_TO</text></g><g class="relationship" transform="translate(483.52439962867237 -77.01061572772394) rotate(500.2760671530713)"><path class="outline" fill="#A5ABB6" stroke="none" d="M 25 0.5 L 70.23089875099062 0.5 L 70.23089875099062 -0.5 L 25 -0.5 Z M 135.2308987509906 0.5 L 180.46179750198124 0.5 L 180.46179750198124 3.5 L 187.46179750198124 0 L 180.46179750198124 -3.5 L 180.46179750198124 -0.5 L 135.2308987509906 -0.5 Z"/><text text-anchor="middle" pointer-events="none" font-size="8px" fill="#000000" x="102.73089875099062" y="3" transform="rotate(180 102.73089875099062 0)" font-family="sans-serif">HAS_SPECIES</text></g><g class="relationship" transform="translate(483.52439962867237 -77.01061572772394) rotate(465.148693597278)"><path class="outline" fill="#A5ABB6" stroke="none" d="M 25 0.5 L 89.90097094178134 0.5 L 89.90097094178134 -0.5 L 25 -0.5 Z M 154.90097094178134 0.5 L 219.80194188356268 0.5 L 219.80194188356268 3.5 L 226.80194188356268 0 L 219.80194188356268 -3.5 L 219.80194188356268 -0.5 L 154.90097094178134 -0.5 Z"/><text text-anchor="middle" pointer-events="none" font-size="8px" fill="#000000" x="122.40097094178134" y="3" transform="rotate(180 122.40097094178134 0)" font-family="sans-serif">HAS_SPECIES</text></g><g class="relationship" transform="translate(483.52439962867237 -77.01061572772394) rotate(482.9230271001985)"><path class="outline" fill="#A5ABB6" stroke="none" d="M 25 0.5 L 26.88779180210085 0.5 L 26.88779180210085 -0.5 L 25 -0.5 Z M 79.88779180210085 0.5 L 81.7755836042017 0.5 L 81.7755836042017 3.5 L 88.7755836042017 0 L 81.7755836042017 -3.5 L 81.7755836042017 -0.5 L 79.88779180210085 -0.5 Z"/><text text-anchor="middle" pointer-events="none" font-size="8px" fill="#000000" x="53.38779180210085" y="3" transform="rotate(180 53.38779180210085 0)" font-family="sans-serif">HAS_REA…</text></g><g class="relationship" transform="translate(-247.51970861086403 105.57263994424581) rotate(299.80407899166653)"><path class="outline" fill="#A5ABB6" stroke="none" d="M 24.018736134675446,-6.953439040707552 L 24.277555179777966,-5.987513214418485 A 68.92104760870644 68.92104760870644 0 0 1 27.032060959149412,-6.665146888149863 L 26.81320801837847,-7.64090474249484 A 69.92104760870644 69.92104760870644 0 0 0 24.018736134675446,-6.953439040707552 Z M 54.81906389891594,-8.172262345568512 L 54.63738142383808,-7.188905097031849 A 68.92104760870644 68.92104760870644 0 0 1 57.41560914856625,-6.616244469856321 L 56.74963083990348,-3.6910995345769297 L 64.35194371566196,-5.549819238856422 L 58.303580226783275,-10.51643771689551 L 57.63760191812051,-7.591292781616119 A 69.92104760870644 69.92104760870644 0 0 0 54.81906389891594,-8.172262345568512"/><text text-anchor="middle" pointer-events="none" font-size="8px" fill="#000000" x="40.79874018270854" y="-5.823449306467694" font-family="sans-serif">IS_…</text></g><g class="relationship" transform="translate(-203.4186463808985 28.580554763304406) rotate(479.80407899166653)"><path class="outline" fill="#A5ABB6" stroke="none" d="M 24.018736134675446,-6.953439040707552 L 24.277555179777966,-5.987513214418485 A 68.92104760870644 68.92104760870644 0 0 1 24.620539005416376,-6.078469786940914 L 24.366696434664416,-7.045715334500599 A 69.92104760870644 69.92104760870644 0 0 0 24.018736134675446,-6.953439040707552 Z M 57.286391771476275,-7.670303652125995 L 57.0694219550764,-6.69412533912606 A 68.92104760870644 68.92104760870644 0 0 1 57.41560914856625,-6.616244469856321 L 56.74963083990348,-3.6910995345769297 L 64.35194371566196,-5.549819238856422 L 58.303580226783275,-10.51643771689551 L 57.63760191812051,-7.591292781616119 A 69.92104760870644 69.92104760870644 0 0 0 57.286391771476275,-7.670303652125995"/><text text-anchor="middle" pointer-events="none" font-size="8px" fill="#000000" x="40.79874018270854" y="-5.823449306467694" transform="rotate(180 40.79874018270854 -8.823449306467694)" font-family="sans-serif">HAS…</text></g><g class="relationship" transform="translate(-142.2322933464759 -36.249523312260905) rotate(493.3437722165241)"><path class="outline" fill="#A5ABB6" stroke="none" d="M 24.018736134675446,-6.953439040707552 L 24.277555179777966,-5.987513214418485 A 69.76556891344018 69.76556891344018 0 0 1 24.343038990744706,-6.005025456685345 L 24.085158572130677,-6.971202298518904 A 70.76556891344018 70.76556891344018 0 0 0 24.018736134675446,-6.953439040707552 Z M 57.987969003757115,-7.611652137091156 L 57.766763180966144,-6.636424992286734 A 69.76556891344018 69.76556891344018 0 0 1 57.8328616744814,-6.621398439689606 L 57.166401894583856,-3.696363164384551 L 64.76902061350945,-5.553831499146183 L 58.721474714344794,-10.52144547342968 L 58.05501493444725,-7.596410198124624 A 70.76556891344018 70.76556891344018 0 0 0 57.987969003757115,-7.611652137091156"/><text text-anchor="middle" pointer-events="none" font-size="8px" fill="#000000" x="41.00707992260036" y="-5.852183169842817" transform="rotate(180 41.00707992260036 -8.852183169842817)" font-family="sans-serif">IS_P…</text></g><g class="relationship" transform="translate(-203.4186463808985 28.580554763304406) rotate(313.3437722165241)"><path class="outline" fill="#A5ABB6" stroke="none" d="M 24.018736134675446,-6.953439040707552 L 24.277555179777966,-5.987513214418485 A 69.76556891344018 69.76556891344018 0 0 1 24.823141267761642,-6.1313405079662004 L 24.57214249986005,-7.099327914140417 A 70.76556891344018 70.76556891344018 0 0 0 24.018736134675446,-6.953439040707552 Z M 57.49649346946557,-7.721293910325485 L 57.282232769024894,-6.744517399425135 A 69.76556891344018 69.76556891344018 0 0 1 57.8328616744814,-6.621398439689606 L 57.166401894583856,-3.696363164384551 L 64.76902061350945,-5.553831499146183 L 58.721474714344794,-10.52144547342968 L 58.05501493444725,-7.596410198124624 A 70.76556891344018 70.76556891344018 0 0 0 57.49649346946557,-7.721293910325485"/><text text-anchor="middle" pointer-events="none" font-size="8px" fill="#000000" x="41.00707992260036" y="-5.852183169842817" font-family="sans-serif">HAS…</text></g><g class="relationship" transform="translate(421.68602190172214 18.492779314419536) rotate(206.93286787310353)"><path class="outline" fill="#A5ABB6" stroke="none" d="M 24.018736134675446,6.953439040707552 L 24.277555179777966,5.987513214418485 A 169.9094189102271 169.9094189102271 0 0 0 31.054838783647618,7.6550761483159135 L 30.835907366007646,8.630816397752284 A 170.9094189102271 170.9094189102271 0 0 1 24.018736134675446,6.953439040707552 Z M 101.52486347453478,9.507218227428211 L 101.3301900916947,8.526350104787042 A 169.9094189102271 169.9094189102271 0 0 0 108.14673307993571,7.027323462178634 L 107.44235686701428,4.111186608279203 L 115.06844844118795,5.8698017743452136 L 109.08590136383096,10.915505934044543 L 108.38152515090952,7.999369080145112 A 170.9094189102271 170.9094189102271 0 0 1 101.52486347453478,9.507218227428211"/><text text-anchor="middle" pointer-events="none" font-size="8px" fill="#000000" x="66.14077475047058" y="15.263940924287027" transform="rotate(180 66.14077475047058 12.263940924287027)" font-family="sans-serif">HAS_REACTANT</text></g><g class="relationship" transform="translate(297.43275930739514 -44.6341487126147) rotate(386.93286787310353)"><path class="outline" fill="#A5ABB6" stroke="none" d="M 24.018736134675446,6.953439040707552 L 24.277555179777966,5.987513214418485 A 169.9094189102271 169.9094189102271 0 0 0 35.44524697951426,8.579461850119941 L 35.25215526060333,9.560642561349027 A 170.9094189102271 170.9094189102271 0 0 1 24.018736134675446,6.953439040707552 Z M 97.0869205881056,10.327270114702685 L 96.91821384253294,9.341603825333777 A 169.9094189102271 169.9094189102271 0 0 0 108.14673307993571,7.027323462178634 L 107.44235686701428,4.111186608279203 L 115.06844844118795,5.8698017743452136 L 109.08590136383096,10.915505934044543 L 108.38152515090952,7.999369080145112 A 170.9094189102271 170.9094189102271 0 0 1 97.0869205881056,10.327270114702685"/><text text-anchor="middle" pointer-events="none" font-size="8px" fill="#000000" x="66.14077475047058" y="15.263940924287027" font-family="sans-serif">IS_REACTANT</text></g><g class="relationship" transform="translate(421.68602190172214 18.492779314419536) rotate(518.3692534112057)"><path class="outline" fill="#A5ABB6" stroke="none" d="M 24.018736134675446,6.953439040707552 L 24.277555179777966,5.987513214418485 A 110.23338806821425 110.23338806821425 0 0 0 26.941057603810645,6.665723176116828 L 26.70640095152494,7.637801493711692 A 111.23338806821425 111.23338806821425 0 0 1 24.018736134675446,6.953439040707552 Z M 75.52110045434613,8.400016842007773 L 75.31690776156931,7.421086127290664 A 110.23338806821425 110.23338806821425 0 0 0 78.00028632418434,6.826364844106057 L 77.31468013859057,3.905758030740801 L 84.92930325296891,5.713384879948125 L 78.91442790497604,10.720507261926398 L 78.22882171938227,7.799900448561142 A 111.23338806821425 111.23338806821425 0 0 1 75.52110045434613,8.400016842007773"/><text text-anchor="middle" pointer-events="none" font-size="8px" fill="#000000" x="51.07922370290686" y="13.230128260864902" transform="rotate(180 51.07922370290686 10.230128260864902)" font-family="sans-serif">HAS_PR…</text></g><g class="relationship" transform="translate(320.11309000946926 58.771412855994775) rotate(338.3692534112057)"><path class="outline" fill="#A5ABB6" stroke="none" d="M 24.018736134675446,6.953439040707552 L 24.277555179777966,5.987513214418485 A 110.23338806821425 110.23338806821425 0 0 0 24.528632554894056,6.0544721156657175 L 24.272091198788637,7.021005370451917 A 111.23338806821425 111.23338806821425 0 0 1 24.018736134675446,6.953439040707552 Z M 77.97348065722905,7.859523761160915 L 77.74724080536203,6.885452136778397 A 110.23338806821425 110.23338806821425 0 0 0 78.00028632418434,6.826364844106057 L 77.31468013859057,3.905758030740801 L 84.92930325296891,5.713384879948125 L 78.91442790497604,10.720507261926398 L 78.22882171938227,7.799900448561142 A 111.23338806821425 111.23338806821425 0 0 1 77.97348065722905,7.859523761160915"/><text text-anchor="middle" pointer-events="none" font-size="8px" fill="#000000" x="51.07922370290686" y="13.230128260864902" font-family="sans-serif">IS_PROD…</text></g><g class="relationship" transform="translate(421.68602190172214 18.492779314419536) rotate(451.5388241910621)"><path class="outline" fill="#A5ABB6" stroke="none" d="M 24.018736134675446,6.953439040707552 L 24.277555179777966,5.987513214418485 A 186.1214594267001 186.1214594267001 0 0 0 34.626696073532344,8.445871043642171 L 34.423481260879065,9.425005222352269 A 187.1214594267001 187.1214594267001 0 0 1 24.018736134675446,6.953439040707552 Z M 106.16453717391741,10.267016283153964 L 105.98435899608825,9.283382294195604 A 186.1214594267001 186.1214594267001 0 0 0 116.38834764249464,7.06859997967086 L 115.68011634778814,4.153396996481115 L 123.30852648572179,5.90192745588736 L 117.33265603543661,10.955537290590518 L 116.62442474073012,8.040334307400775 A 187.1214594267001 187.1214594267001 0 0 1 106.16453717391741,10.267016283153964"/><text text-anchor="middle" pointer-events="none" font-size="8px" fill="#000000" x="70.25914402991336" y="15.816595678786229" transform="rotate(180 70.25914402991336 12.816595678786229)" font-family="sans-serif">HAS_PRODUCT</text></g><g class="relationship" transform="translate(417.72227365649746 166.04143251272) rotate(271.5388241910621)"><path class="outline" fill="#A5ABB6" stroke="none" d="M 24.018736134675446,6.953439040707552 L 24.277555179777966,5.987513214418485 A 186.1214594267001 186.1214594267001 0 0 0 39.03156432095552,9.304822006456362 L 38.85201614116119,10.288571187463674 A 187.1214594267001 187.1214594267001 0 0 1 24.018736134675446,6.953439040707552 Z M 101.71695398536303,11.026404947055823 L 101.5605442368855,10.038712692058766 A 186.1214594267001 186.1214594267001 0 0 0 116.38834764249464,7.06859997967086 L 115.68011634778814,4.153396996481115 L 123.30852648572179,5.90192745588736 L 117.33265603543661,10.955537290590518 L 116.62442474073012,8.040334307400775 A 187.1214594267001 187.1214594267001 0 0 1 101.71695398536303,11.026404947055823"/><text text-anchor="middle" pointer-events="none" font-size="8px" fill="#000000" x="70.25914402991336" y="15.816595678786229" font-family="sans-serif">IS_PRODUCT</text></g><g class="relationship" transform="translate(-327.1802038922616 88.65922762456258) rotate(371.9869596909714)"><path class="outline" fill="#A5ABB6" stroke="none" d="M 24.018736134675446,-6.953439040707552 L 24.277555179777966,-5.987513214418485 A 54.056243181239346 54.056243181239346 0 0 1 26.84118543062646,-6.6078164445503305 L 26.62979162449686,-7.58521741586663 A 55.056243181239346 55.056243181239346 0 0 0 24.018736134675446,-6.953439040707552 Z M 47.687219635504114,-8.017773403998149 L 47.51614223048172,-7.032515812557818 A 54.056243181239346 54.056243181239346 0 0 1 50.10308333481097,-6.5180142254764055 L 49.44628170285022,-3.590795132847072 L 57.04272815627287,-5.473346933006219 L 50.97881884409197,-10.420973015648851 L 50.32201721213122,-7.493753923019518 A 55.056243181239346 55.056243181239346 0 0 0 47.687219635504114,-8.017773403998149"/><text text-anchor="middle" pointer-events="none" font-size="8px" fill="#000000" x="37.1478972047473" y="-5.317928327770531" font-family="sans-serif">C…</text></g><g class="relationship" transform="translate(-247.51970861086403 105.57263994424581) rotate(191.9869596909714)"><path class="outline" fill="#A5ABB6" stroke="none" d="M 24.018736134675446,-6.953439040707552 L 24.277555179777966,-5.987513214418485 A 54.056243181239346 54.056243181239346 0 0 1 25.393022508462764,-6.2737024748272106 L 25.154838773234534,-7.244922588021296 A 55.056243181239346 55.056243181239346 0 0 0 24.018736134675446,-6.953439040707552 Z M 49.174902853550776,-7.738336244609016 L 48.9768042946667,-6.758154138585823 A 54.056243181239346 54.056243181239346 0 0 1 50.10308333481097,-6.5180142254764055 L 49.44628170285022,-3.590795132847072 L 57.04272815627287,-5.473346933006219 L 50.97881884409197,-10.420973015648851 L 50.32201721213122,-7.493753923019518 A 55.056243181239346 55.056243181239346 0 0 0 49.174902853550776,-7.738336244609016"/><text text-anchor="middle" pointer-events="none" font-size="8px" fill="#000000" x="37.1478972047473" y="-5.317928327770531" transform="rotate(180 37.1478972047473 -8.317928327770531)" font-family="sans-serif">IS…</text></g><g class="relationship" transform="translate(-327.1802038922616 88.65922762456258) rotate(325.965986457096)"><path class="outline" fill="#A5ABB6" stroke="none" d="M 24.018736134675446,-6.953439040707552 L 24.277555179777966,-5.987513214418485 A 333.8895777909312 333.8895777909312 0 0 1 62.30361631403109,-13.839244249331102 L 62.15868540340057,-14.828686026872276 A 334.8895777909312 334.8895777909312 0 0 0 24.018736134675446,-6.953439040707552 Z M 154.00307340022727,-15.552347478782963 L 153.87375155983858,-14.56074480553201 A 333.8895777909312 333.8895777909312 0 0 1 192.01881475408376,-7.309182247185809 L 191.28811559522865,-4.399529563574164 L 198.9297875423201,-6.089159657125839 L 192.9930802992239,-11.188719158668 L 192.26238114036877,-8.279066475056357 A 334.8895777909312 334.8895777909312 0 0 0 154.00307340022727,-15.552347478782963"/><text text-anchor="middle" pointer-events="none" font-size="8px" fill="#000000" x="108.05989210573229" y="-14.854145386404866" font-family="sans-serif">CONTAINS_SPECIES</text></g><g class="relationship" transform="translate(-142.2322933464759 -36.249523312260905) rotate(505.965986457096)"><path class="outline" fill="#A5ABB6" stroke="none" d="M 24.018736134675446,-6.953439040707552 L 24.277555179777966,-5.987513214418485 A 333.8895777909312 333.8895777909312 0 0 1 72.20340376379184,-15.138455335327137 L 72.08812273775867,-16.131788252851152 A 334.8895777909312 334.8895777909312 0 0 0 24.018736134675446,-6.953439040707552 Z M 144.0543353038058,-16.6988253360081 L 143.95472098122656,-15.703799212362583 A 333.8895777909312 333.8895777909312 0 0 1 192.01881475408376,-7.309182247185809 L 191.28811559522865,-4.399529563574164 L 198.9297875423201,-6.089159657125839 L 192.9930802992239,-11.188719158668 L 192.26238114036877,-8.279066475056357 A 334.8895777909312 334.8895777909312 0 0 0 144.0543353038058,-16.6988253360081"/><text text-anchor="middle" pointer-events="none" font-size="8px" fill="#000000" x="108.05989210573229" y="-14.854145386404866" transform="rotate(180 108.05989210573229 -17.854145386404866)" font-family="sans-serif">IS_LOCATED_IN</text></g><g class="relationship" transform="translate(499.19832877035117 90.70690954909458) rotate(213.85306547510567)"><path class="outline" fill="#A5ABB6" stroke="none" d="M 24.018736134675446,-6.953439040707552 L 24.277555179777966,-5.987513214418485 A 372.3767664768903 372.3767664768903 0 0 1 72.15401272093044,-15.503778196768394 L 72.02376361319034,-16.49525949761727 A 373.3767664768903 373.3767664768903 0 0 0 24.018736134675446,-6.953439040707552 Z M 163.9112178431786,-17.161921001700478 L 163.79536847217022,-16.168654208116322 A 372.3767664768903 372.3767664768903 0 0 1 211.80486351901232,-7.348060619739023 L 211.07053379632018,-4.439322085877494 L 218.71430838513788,-6.1194143557676615 L 212.78396981593514,-11.226378664887728 L 212.049640093243,-8.317640131026199 A 373.3767664768903 373.3767664768903 0 0 0 163.9112178431786,-17.161921001700478"/><text text-anchor="middle" pointer-events="none" font-size="8px" fill="#000000" x="117.95053141509584" y="-16.166130509083473" transform="rotate(180 117.95053141509584 -19.166130509083473)" font-family="sans-serif">CONTAINS_SPECIES</text></g><g class="relationship" transform="translate(297.43275930739514 -44.6341487126147) rotate(393.85306547510567)"><path class="outline" fill="#A5ABB6" stroke="none" d="M 24.018736134675446,-6.953439040707552 L 24.277555179777966,-5.987513214418485 A 372.3767664768903 372.3767664768903 0 0 1 82.07178480084593,-16.671602781889533 L 81.96816939577678,-17.666220219818513 A 373.3767664768903 373.3767664768903 0 0 0 24.018736134675446,-6.953439040707552 Z M 153.95086870507217,-18.188468822651657 L 153.8616957371836,-17.19245266726159 A 372.3767664768903 372.3767664768903 0 0 1 211.80486351901232,-7.348060619739023 L 211.07053379632018,-4.439322085877494 L 218.71430838513788,-6.1194143557676615 L 212.78396981593514,-11.226378664887728 L 212.049640093243,-8.317640131026199 A 373.3767664768903 373.3767664768903 0 0 0 153.95086870507217,-18.188468822651657"/><text text-anchor="middle" pointer-events="none" font-size="8px" fill="#000000" x="117.95053141509584" y="-16.166130509083473" font-family="sans-serif">IS_LOCATED_IN</text></g><g class="relationship" transform="translate(499.19832877035117 90.70690954909458) rotate(190.11102574647657)"><path class="outline" fill="#A5ABB6" stroke="none" d="M 24.018736134675446,-6.953439040707552 L 24.277555179777966,-5.987513214418485 A 253.3853645862723 253.3853645862723 0 0 1 41.80877180329834,-10.023837319373456 L 41.61914071880335,-11.005692732249145 A 254.3853645862723 254.3853645862723 0 0 0 24.018736134675446,-6.953439040707552 Z M 133.29257633814248,-11.885992459677794 L 133.12183513562152,-10.900676550051998 A 253.3853645862723 253.3853645862723 0 0 1 150.72732992630455,-7.201754848221774 L 150.0066630076677,-4.289601144794965 L 157.64246638740659,-6.005557655306955 L 151.68821915115367,-11.084626452790854 L 150.96755223251682,-8.172472749364044 A 254.3853645862723 254.3853645862723 0 0 0 133.29257633814248,-11.885992459677794"/><text text-anchor="middle" pointer-events="none" font-size="8px" fill="#000000" x="87.42067606098621" y="-12.109705673023285" transform="rotate(180 87.42067606098621 -15.109705673023285)" font-family="sans-serif">CONTAINS_SPECIES</text></g><g class="relationship" transform="translate(320.11309000946926 58.771412855994775) rotate(370.11102574647657)"><path class="outline" fill="#A5ABB6" stroke="none" d="M 24.018736134675446,-6.953439040707552 L 24.277555179777966,-5.987513214418485 A 253.3853645862723 253.3853645862723 0 0 1 51.64272322454655,-11.722964130626082 L 51.491902398241905,-12.711525245758992 A 254.3853645862723 254.3853645862723 0 0 0 24.018736134675446,-6.953439040707552 Z M 123.38887750933115,-13.401920311304934 L 123.25706818028853,-12.410645222957953 A 253.3853645862723 253.3853645862723 0 0 1 150.72732992630455,-7.201754848221774 L 150.0066630076677,-4.289601144794965 L 157.64246638740659,-6.005557655306955 L 151.68821915115367,-11.084626452790854 L 150.96755223251682,-8.172472749364044 A 254.3853645862723 254.3853645862723 0 0 0 123.38887750933115,-13.401920311304934"/><text text-anchor="middle" pointer-events="none" font-size="8px" fill="#000000" x="87.42067606098621" y="-12.109705673023285" font-family="sans-serif">IS_LOCATED_IN</text></g><g class="relationship" transform="translate(499.19832877035117 90.70690954909458) rotate(497.24285964051523)"><path class="outline" fill="#A5ABB6" stroke="none" d="M 24.018736134675446,-6.953439040707552 L 24.277555179777966,-5.987513214418485 A 113.62388937938371 113.62388937938371 0 0 1 25.35743824147262,-6.271187768938617 L 25.108123210601555,-7.23961020536899 A 114.62388937938371 114.62388937938371 0 0 0 24.018736134675446,-6.953439040707552 Z M 78.8338017209438,-8.066400286542901 L 78.61440400091072,-7.090764780606236 A 113.62388937938371 113.62388937938371 0 0 1 79.70250462560124,-6.840453553600059 L 79.01558245532732,-3.920155977669454 L 86.63101933115163,-5.724351418949344 L 80.61840085263313,-10.734183654840866 L 79.93147868235921,-7.813886078910261 A 114.62388937938371 114.62388937938371 0 0 0 78.8338017209438,-8.066400286542901"/><text text-anchor="middle" pointer-events="none" font-size="8px" fill="#000000" x="51.92952519598703" y="-7.345642089988672" transform="rotate(180 51.92952519598703 -10.345642089988672)" font-family="sans-serif">CONTAIN…</text></g><g class="relationship" transform="translate(417.72227365649746 166.04143251272) rotate(317.24285964051523)"><path class="outline" fill="#A5ABB6" stroke="none" d="M 24.018736134675446,-6.953439040707552 L 24.277555179777966,-5.987513214418485 A 113.62388937938371 113.62388937938371 0 0 1 24.875621871639233,-6.146020735431762 L 24.622066391224806,-7.113341581041851 A 114.62388937938371 114.62388937938371 0 0 0 24.018736134675446,-6.953439040707552 Z M 79.32351377641893,-7.955147871403142 L 79.09984371788708,-6.980482952101966 A 113.62388937938371 113.62388937938371 0 0 1 79.70250462560124,-6.840453553600059 L 79.01558245532732,-3.920155977669454 L 86.63101933115163,-5.724351418949344 L 80.61840085263313,-10.734183654840866 L 79.93147868235921,-7.813886078910261 A 114.62388937938371 114.62388937938371 0 0 0 79.32351377641893,-7.955147871403142"/><text text-anchor="middle" pointer-events="none" font-size="8px" fill="#000000" x="51.92952519598703" y="-7.345642089988672" font-family="sans-serif">IS_LOCAT…</text></g></g><g class="layer nodes"><g class="node" transform="translate(-320.2701318455323,-196.43502857751642)"><circle class="outline" cx="0" cy="0" r="25" fill="#6DCE9E" stroke="#60B58B" stroke-width="2px"/><text text-anchor="middle" pointer-events="none" y="5" font-size="10px" fill="#FFFFFF" font-family="sans-serif"> {"versi…</text></g><g class="node" transform="translate(86.95748227825337,-52.68224869590833)"><circle class="outline" cx="0" cy="0" r="25" fill="#FFD86E" stroke="#EDBA39" stroke-width="2px"/><text text-anchor="middle" pointer-events="none" y="5" font-size="10px" fill="#604A0E" font-family="sans-serif"> 2421</text></g><g class="node" transform="translate(-317.48287437202066,-67.1845266950315)"><circle class="outline" cx="0" cy="0" r="25" fill="#6DCE9E" stroke="#60B58B" stroke-width="2px"/><text text-anchor="middle" pointer-events="none" y="5" font-size="10px" fill="#FFFFFF" font-family="sans-serif"> test_m…</text></g><g class="node" transform="translate(-327.1802038922616,88.65922762456258)"><circle class="outline" cx="0" cy="0" r="25" fill="#FF756E" stroke="#E06760" stroke-width="2px"/><text text-anchor="middle" pointer-events="none" y="0" font-size="10px" fill="#FFFFFF" font-family="sans-serif"> Default</text><text text-anchor="middle" pointer-events="none" y="10" font-size="10px" fill="#FFFFFF" font-family="sans-serif"> Comp…</text></g><g class="node" transform="translate(191.52049309057395,140.0728848123897)"><circle class="outline" cx="0" cy="0" r="10" fill="#A5ABB6" stroke="#9AA1AC" stroke-width="2px"/><text text-anchor="middle" pointer-events="none" y="5" font-size="10px" fill="#FFFFFF" font-family="sans-serif"> 4</text></g><g class="node" transform="translate(461.4598923992061,-218.41489460889045)"><circle class="outline" cx="0" cy="0" r="25" fill="#6DCE9E" stroke="#60B58B" stroke-width="2px"/><text text-anchor="middle" pointer-events="none" y="5" font-size="10px" fill="#FFFFFF" font-family="sans-serif"> {"versi…</text></g><g class="node" transform="translate(483.52439962867237,-77.01061572772394)"><circle class="outline" cx="0" cy="0" r="25" fill="#6DCE9E" stroke="#60B58B" stroke-width="2px"/><text text-anchor="middle" pointer-events="none" y="5" font-size="10px" fill="#FFFFFF" font-family="sans-serif"> test_m…</text></g><g class="node" transform="translate(297.43275930739514,-44.6341487126147)"><circle class="outline" cx="0" cy="0" r="25" fill="#DE9BF9" stroke="#BF85D6" stroke-width="2px"/><text text-anchor="middle" pointer-events="none" y="5" font-size="10px" fill="#FFFFFF" font-family="sans-serif"> A</text></g><g class="node" transform="translate(417.72227365649746,166.04143251272)"><circle class="outline" cx="0" cy="0" r="25" fill="#DE9BF9" stroke="#BF85D6" stroke-width="2px"/><text text-anchor="middle" pointer-events="none" y="5" font-size="10px" fill="#FFFFFF" font-family="sans-serif"> C</text></g><g class="node" transform="translate(163.23778049582108,94.68015217231977)"><circle class="outline" cx="0" cy="0" r="10" fill="#A5ABB6" stroke="#9AA1AC" stroke-width="2px"/><text text-anchor="middle" pointer-events="none" y="5" font-size="10px" fill="#FFFFFF" font-family="sans-serif"> 3</text></g><g class="node" transform="translate(224.1297743940271,242.62424876126474)"><circle class="outline" cx="0" cy="0" r="25" fill="#68BDF6" stroke="#5CA8DB" stroke-width="2px"/><text text-anchor="middle" pointer-events="none" y="5" font-size="10px" fill="#FFFFFF" font-family="sans-serif"> Inserti…</text></g><g class="node" transform="translate(51.15330915728015,243.99882795428883)"><circle class="outline" cx="0" cy="0" r="25" fill="#68BDF6" stroke="#5CA8DB" stroke-width="2px"/><text text-anchor="middle" pointer-events="none" y="5" font-size="10px" fill="#FFFFFF" font-family="sans-serif"> XmlAtt…</text></g><g class="node" transform="translate(143.3568873517736,151.8367571722141)"><circle class="outline" cx="0" cy="0" r="10" fill="#A5ABB6" stroke="#9AA1AC" stroke-width="2px"/><text text-anchor="middle" pointer-events="none" y="5" font-size="10px" fill="#FFFFFF" font-family="sans-serif"> 6</text></g><g class="node" transform="translate(-49.36353922004122,240.8553825694519)"><circle class="outline" cx="0" cy="0" r="25" fill="#68BDF6" stroke="#5CA8DB" stroke-width="2px"/><text text-anchor="middle" pointer-events="none" y="5" font-size="10px" fill="#FFFFFF" font-family="sans-serif"> Specie…</text></g><g class="node" transform="translate(219.6251319898281,101.52382807180422)"><circle class="outline" cx="0" cy="0" r="10" fill="#A5ABB6" stroke="#9AA1AC" stroke-width="2px"/><text text-anchor="middle" pointer-events="none" y="5" font-size="10px" fill="#FFFFFF" font-family="sans-serif"> 5</text></g><g class="node" transform="translate(299.1277413948943,242.9719365994029)"><circle class="outline" cx="0" cy="0" r="25" fill="#68BDF6" stroke="#5CA8DB" stroke-width="2px"/><text text-anchor="middle" pointer-events="none" y="5" font-size="10px" fill="#FFFFFF" font-family="sans-serif"> EntityI…</text></g><g class="node" transform="translate(149.0763486363001,242.56526966148414)"><circle class="outline" cx="0" cy="0" r="25" fill="#68BDF6" stroke="#5CA8DB" stroke-width="2px"/><text text-anchor="middle" pointer-events="none" y="5" font-size="10px" fill="#FFFFFF" font-family="sans-serif"> XmlNo…</text></g><g class="node" transform="translate(30.46184088120019,23.122526104834833)"><circle class="outline" cx="0" cy="0" r="10" fill="#FFD86E" stroke="#EDBA39" stroke-width="2px"/><text text-anchor="middle" pointer-events="none" y="5" font-size="10px" fill="#604A0E" font-family="sans-serif"> 2</text></g><g class="node" transform="translate(-130.3257821734087,237.1979811144572)"><circle class="outline" cx="0" cy="0" r="25" fill="#68BDF6" stroke="#5CA8DB" stroke-width="2px"/><text text-anchor="middle" pointer-events="none" y="5" font-size="10px" fill="#FFFFFF" font-family="sans-serif"> Update</text></g><g class="node" transform="translate(-247.51970861086403,105.57263994424581)"><circle class="outline" cx="0" cy="0" r="25" fill="#DE9BF9" stroke="#BF85D6" stroke-width="2px"/><text text-anchor="middle" pointer-events="none" y="5" font-size="10px" fill="#FFFFFF" font-family="sans-serif"> A</text></g><g class="node" transform="translate(383.9445498402645,241.5294903960762)"><circle class="outline" cx="0" cy="0" r="25" fill="#68BDF6" stroke="#5CA8DB" stroke-width="2px"/><text text-anchor="middle" pointer-events="none" y="5" font-size="10px" fill="#FFFFFF" font-family="sans-serif"> EntityN…</text></g><g class="node" transform="translate(229.58909256595226,138.26554147128724)"><circle class="outline" cx="0" cy="0" r="10" fill="#A5ABB6" stroke="#9AA1AC" stroke-width="2px"/><text text-anchor="middle" pointer-events="none" y="5" font-size="10px" fill="#FFFFFF" font-family="sans-serif"> 7</text></g><g class="node" transform="translate(-203.4186463808985,28.580554763304406)"><circle class="outline" cx="0" cy="0" r="25" fill="#FB95AF" stroke="#E0849B" stroke-width="2px"/><text text-anchor="middle" pointer-events="none" y="5" font-size="10px" fill="#FFFFFF" font-family="sans-serif"> R</text></g><g class="node" transform="translate(-142.2322933464759,-36.249523312260905)"><circle class="outline" cx="0" cy="0" r="25" fill="#DE9BF9" stroke="#BF85D6" stroke-width="2px"/><text text-anchor="middle" pointer-events="none" y="5" font-size="10px" fill="#FFFFFF" font-family="sans-serif"> B</text></g><g class="node" transform="translate(499.19832877035117,90.70690954909458)"><circle class="outline" cx="0" cy="0" r="25" fill="#FF756E" stroke="#E06760" stroke-width="2px"/><text text-anchor="middle" pointer-events="none" y="0" font-size="10px" fill="#FFFFFF" font-family="sans-serif"> Default</text><text text-anchor="middle" pointer-events="none" y="10" font-size="10px" fill="#FFFFFF" font-family="sans-serif"> Comp…</text></g><g class="node" transform="translate(320.11309000946926,58.771412855994775)"><circle class="outline" cx="0" cy="0" r="25" fill="#DE9BF9" stroke="#BF85D6" stroke-width="2px"/><text text-anchor="middle" pointer-events="none" y="5" font-size="10px" fill="#FFFFFF" font-family="sans-serif"> B</text></g><g class="node" transform="translate(421.68602190172214,18.492779314419536)"><circle class="outline" cx="0" cy="0" r="25" fill="#FB95AF" stroke="#E0849B" stroke-width="2px"/><text text-anchor="middle" pointer-events="none" y="5" font-size="10px" fill="#FFFFFF" font-family="sans-serif"> R</text></g></g></svg>